<?xml version="1.0" encoding="UTF-8"?>
<svg id="Body" xmlns="http://www.w3.org/2000/svg" viewBox="0 0 250 300">
  <defs>
    <style>
      .cls-1 {
        fill: #ffdab9;
      }

      .cls-2 {
        fill: #ddbb9f;
      }
    </style>
  </defs>
  <path class="cls-2" d="M136.75,265.07c-1.93-.02-3.28-.28-4.23-.8-1.18-.65-1.74-1.72-1.72-3.26l.07-7c.03-3.27,2.73-5.94,6-5.94,1.67.02,3.16.66,4.29,1.8,1.12,1.15,1.73,2.66,1.71,4.26l-.07,7c-.04,3.49-3.12,3.94-5.8,3.94,0,0-.24,0-.24,0Z"/>
  <path class="cls-2" d="M113.04,264.95c-2.79,0-6-.45-6-4v-7c0-3.31,2.69-6,6-6s6,2.69,6,6v7c0,3.55-3.21,4-6,4Z"/>
  <rect class="cls-2" x="117.04" y="93.95" width="16" height="12" transform="translate(224.98 -25.09) rotate(90)"/>
  <path class="cls-1" d="M125.04,94.95c-10.48,0-19-9.87-19-22s8.52-22,19-22,19,9.87,19,22-8.52,22-19,22Z"/>
  <path class="cls-1" d="M105.82,80c-2.05,0-4.03-1.67-4.81-4.06-.96-2.9.16-5.89,2.48-6.65.36-.12.75-.18,1.13-.18,2.05,0,4.03,1.67,4.81,4.06.46,1.41.46,2.87,0,4.13-.47,1.26-1.35,2.15-2.47,2.52-.36.12-.75.18-1.13.18Z"/>
  <path class="cls-1" d="M144.52,79.81c-.37,0-.74-.06-1.1-.17-2.33-.74-3.47-3.71-2.55-6.63.77-2.42,2.75-4.11,4.81-4.11.37,0,.74.06,1.1.17,1.13.36,2.02,1.25,2.5,2.5.48,1.25.5,2.72.05,4.13-.77,2.42-2.75,4.11-4.81,4.11h0Z"/>
  <path class="cls-2" d="M109.42,106.95h48.62v50h-48.62c-9.59,0-17.38-7.79-17.38-17.38v-15.24c0-9.59,7.79-17.38,17.38-17.38Z" transform="translate(256.98 6.91) rotate(90)"/>
  <g id="Mains_2" data-name="Mains 2">
    <path class="cls-1" d="M93.53,171.58v.04s0-.03,0-.04l4.02,5.06c.51.64.4,1.58-.24,2.09-.64.51-1.58.4-2.09-.24l-2.17-2.73-.52,4.54h0s-1.02,8.92-1.02,8.92c-.09.78-.76,1.34-1.5,1.26-.74-.09-1.27-.79-1.18-1.57l1.02-8.92-.63-.07-1.02,8.87c-.09.78-.76,1.34-1.5,1.26-.74-.09-1.27-.79-1.18-1.57l1.02-8.87-.63-.07-1.01,8.8c-.09.78-.76,1.34-1.5,1.26-.74-.09-1.27-.79-1.18-1.57l1.01-8.81-.63-.07-1.01,8.85c-.09.78-.76,1.34-1.51,1.26-.74-.09-1.27-.79-1.18-1.57l1.01-8.85h0s.74-6.5.74-6.5c1.19-10.4,5.63-38.95,8.01-49.01l11.87,6.46c-3.59,21.64-6.82,37.98-6.98,41.78Z"/>
    <path class="cls-1" d="M156.02,171.58v.04s0-.03,0-.04l-4.02,5.06c-.51.64-.4,1.58.24,2.09.64.51,1.58.4,2.09-.24l2.17-2.73.52,4.54h0s1.02,8.92,1.02,8.92c.09.78.76,1.34,1.5,1.26.74-.09,1.27-.79,1.18-1.57l-1.02-8.92.63-.07,1.02,8.87c.09.78.76,1.34,1.5,1.26.74-.09,1.27-.79,1.18-1.57l-1.02-8.87.63-.07,1.01,8.8c.09.78.76,1.34,1.5,1.26.74-.09,1.27-.79,1.18-1.57l-1.01-8.81.63-.07,1.01,8.85c.09.78.76,1.34,1.51,1.26.74-.09,1.27-.79,1.18-1.57l-1.01-8.85h0s-.74-6.5-.74-6.5c-1.19-10.4-5.63-38.95-8.01-49.01l-11.87,6.46c3.59,21.64,6.82,37.98,6.98,41.78Z"/>
  </g>
</svg>