<?xml version="1.0" encoding="UTF-8" standalone="no"?>
<svg
   id="bottom_clothes_pants"
   viewBox="0 0 250 300"
   version="1.1"
   sodipodi:docname="bottom-clothes.pants.top.svg"
   inkscape:version="1.4 (1:1.4+202410161351+e7c3feb100)"
   xmlns:inkscape="http://www.inkscape.org/namespaces/inkscape"
   xmlns:sodipodi="http://sodipodi.sourceforge.net/DTD/sodipodi-0.dtd"
   xmlns="http://www.w3.org/2000/svg"
   xmlns:svg="http://www.w3.org/2000/svg">
  <sodipodi:namedview
     id="namedview1"
     pagecolor="#ffffff"
     bordercolor="#666666"
     borderopacity="1.0"
     inkscape:showpageshadow="2"
     inkscape:pageopacity="0.0"
     inkscape:pagecheckerboard="0"
     inkscape:deskcolor="#d1d1d1"
     inkscape:zoom="3.9933333"
     inkscape:cx="124.83306"
     inkscape:cy="190.06678"
     inkscape:window-width="1253"
     inkscape:window-height="991"
     inkscape:window-x="26"
     inkscape:window-y="23"
     inkscape:window-maximized="0"
     inkscape:current-layer="bottom_clothes_pants" />
  <defs
     id="defs1" />
  <path
     class="cls-1"
     d="M149.5,162.93c3.39,31.86,6.5,67.75,3.84,92.37-.1.89-.85,1.58-1.75,1.62,0,0-21.46.84-21.46.84-.56,0-1.03-.2-1.37-.55-.35-.36-.53-.83-.52-1.33.56-18.51-.64-36.4-2.46-63.49l-.43-6.44-.3,4.85c-1.73,27.84-2.88,46.23-2.21,65.09.02.5-.16.98-.51,1.34-.35.36-.81.56-1.31.56l-21.52-.74c-.9-.03-1.66-.72-1.76-1.61-2.77-24.61.17-60.51,3.41-92.39,16.15.94,32.26.91,48.34-.11Z"
     id="path1"
     style="fill:#50728c;fill-opacity:1" />
</svg>
