<?xml version="1.0" encoding="UTF-8" standalone="no"?>
<svg
   id="face_smile"
   viewBox="0 0 250 300"
   version="1.1"
   sodipodi:docname="face-expression.smile.top.svg"
   inkscape:version="1.4 (1:1.4+202410161351+e7c3feb100)"
   xmlns:inkscape="http://www.inkscape.org/namespaces/inkscape"
   xmlns:sodipodi="http://sodipodi.sourceforge.net/DTD/sodipodi-0.dtd"
   xmlns="http://www.w3.org/2000/svg"
   xmlns:svg="http://www.w3.org/2000/svg">
  <sodipodi:namedview
     id="namedview5"
     pagecolor="#ffffff"
     bordercolor="#666666"
     borderopacity="1.0"
     inkscape:showpageshadow="2"
     inkscape:pageopacity="0.0"
     inkscape:pagecheckerboard="0"
     inkscape:deskcolor="#d1d1d1"
     inkscape:zoom="3.9933333"
     inkscape:cx="124.95826"
     inkscape:cy="170.03339"
     inkscape:window-width="2560"
     inkscape:window-height="1403"
     inkscape:window-x="0"
     inkscape:window-y="0"
     inkscape:window-maximized="1"
     inkscape:current-layer="face_smile" />
  <defs
     id="defs1" />
  <path
     d="M118.92,73.14c0,.53-.18,1.01-.48,1.37-.4-.2-.86-.32-1.35-.32-.44,0-.86.1-1.23.27-.28-.35-.44-.82-.44-1.32,0-1.1.78-2,1.75-2s1.75.9,1.75,2Z"
     id="path1" />
  <path
     d="M131.26,73.14c0,.53.18,1.01.48,1.37.4-.2.86-.32,1.35-.32.44,0,.86.1,1.23.27.28-.35.44-.82.44-1.32,0-1.1-.78-2-1.75-2s-1.75.9-1.75,2Z"
     id="path2" />
  <path
     class="cls-2"
     d="M119.85,67.17c-2.06.07-4.02.71-5.89,1.91-.48.31-1.13.02-1.32-.57l-.02-.07c-.12-.39-.02-.82.28-1.05,1.9-1.49,4.21-2.15,6.83-2.14.39,0,.75.29.88.7.19.6-.18,1.2-.76,1.22Z"
     id="path3"
     style="fill:#d6ac69;fill-opacity:1" />
  <path
     class="cls-2"
     d="M136.47,69.09c-.15,0-.29-.04-.42-.12-1.89-1.18-3.88-1.81-5.91-1.85-.25,0-.49-.13-.64-.34-.18-.24-.23-.57-.13-.87.13-.41.49-.7.88-.71h.2c2.63,0,4.87.7,6.66,2.08.3.23.41.65.29,1.05-.15.48-.51.77-.91.77h0Z"
     id="path4"
     style="fill:#d6ac69;fill-opacity:1" />
  <path
     class="cls-1"
     d="M125.09,86.19h0c-2,0-3.81-1.2-4.6-3.04l-.1-.23c-.14-.34.11-.72.48-.72h8.43c.37,0,.62.38.48.72l-.1.23c-.78,1.85-2.59,3.04-4.6,3.04Z"
     id="path5"
     style="fill:#ffffff" />
</svg>
