<?xml version="1.0" encoding="UTF-8" standalone="no"?>
<svg
   id="face_basic"
   viewBox="0 0 250 300"
   version="1.1"
   sodipodi:docname="face-expression.basic.top.svg"
   inkscape:version="1.4 (1:1.4+202410161351+e7c3feb100)"
   xmlns:inkscape="http://www.inkscape.org/namespaces/inkscape"
   xmlns:sodipodi="http://sodipodi.sourceforge.net/DTD/sodipodi-0.dtd"
   xmlns="http://www.w3.org/2000/svg"
   xmlns:svg="http://www.w3.org/2000/svg">
  <sodipodi:namedview
     id="namedview4"
     pagecolor="#ffffff"
     bordercolor="#666666"
     borderopacity="1.0"
     inkscape:showpageshadow="2"
     inkscape:pageopacity="0.0"
     inkscape:pagecheckerboard="0"
     inkscape:deskcolor="#d1d1d1"
     inkscape:zoom="11.294852"
     inkscape:cx="126.03087"
     inkscape:cy="90.837844"
     inkscape:window-width="1253"
     inkscape:window-height="991"
     inkscape:window-x="26"
     inkscape:window-y="23"
     inkscape:window-maximized="0"
     inkscape:current-layer="face_basic" />
  <defs
     id="defs1" />
  <path
     d="M125.04,85.36c-.44,0-.88-.06-1.3-.18-1.04-.29-1.9-.8-2.56-1.53-.3-.33-.26-.87.08-1.21.17-.17.4-.27.65-.27.23,0,.45.09.62.25.66.63,1.5.98,2.5,1.03,1.04-.05,1.88-.39,2.55-1.03.17-.16.38-.25.62-.25.25,0,.48.1.65.27.34.34.38.89.08,1.21-.66.73-1.53,1.24-2.56,1.53-.42.12-.86.18-1.3.18Z"
     id="path1"
     style="fill:#000000;fill-opacity:1" />
  <ellipse
     cx="117.29"
     cy="72.45"
     rx="1.75"
     ry="2"
     id="ellipse1"
     style="fill:#000000;fill-opacity:1" />
  <path
     d="M133.02,74.37c-.96,0-1.74-.89-1.75-1.98,0-.53.17-1.04.5-1.42.33-.38.76-.59,1.23-.6.97,0,1.76.89,1.77,1.98,0,.53-.17,1.04-.5,1.42-.33.38-.76.59-1.23.6h-.02Z"
     id="path2"
     style="fill:#000000;fill-opacity:1" />
  <path
     class="cls-1"
     d="M113.65,67.25c-.4,0-.76-.29-.89-.7-.15-.46-.04-.89.26-1.12,1.81-1.42,4.1-2.14,6.79-2.14.43,0,.8.29.93.7.1.3.05.63-.12.87-.15.21-.38.34-.64.35-2.03.07-4.02.71-5.89,1.91-.13.08-.27.12-.43.12Z"
     id="path3"
     style="fill:#d6ac69;fill-opacity:1" />
  <path
     class="cls-1"
     d="M136.59,67.14c-.15,0-.29-.04-.42-.12-1.89-1.18-3.88-1.81-5.91-1.85-.25,0-.49-.13-.64-.34-.18-.24-.23-.57-.13-.87.13-.41.49-.7.88-.71h.2c2.63,0,4.87.7,6.66,2.08.3.23.41.65.29,1.05-.15.48-.51.77-.91.77h0Z"
     id="path4"
     style="fill:#d6ac69;fill-opacity:1" />
</svg>
