<?xml version="1.0" encoding="UTF-8"?>
<svg id="face_smile" xmlns="http://www.w3.org/2000/svg" viewBox="0 0 250 300">
  <defs>
    <style>
      .cls-1 {
        fill: #fff;
      }

      .cls-2 {
        fill: #26170c;
      }
    </style>
  </defs>
  <path d="M118.92,73.14c0,.53-.18,1.01-.48,1.37-.4-.2-.86-.32-1.35-.32-.44,0-.86.1-1.23.27-.28-.35-.44-.82-.44-1.32,0-1.1.78-2,1.75-2s1.75.9,1.75,2Z"/>
  <path d="M131.26,73.14c0,.53.18,1.01.48,1.37.4-.2.86-.32,1.35-.32.44,0,.86.1,1.23.27.28-.35.44-.82.44-1.32,0-1.1-.78-2-1.75-2s-1.75.9-1.75,2Z"/>
  <path class="cls-2" d="M119.85,67.17c-2.06.07-4.02.71-5.89,1.91-.48.31-1.13.02-1.32-.57l-.02-.07c-.12-.39-.02-.82.28-1.05,1.9-1.49,4.21-2.15,6.83-2.14.39,0,.75.29.88.7.19.6-.18,1.2-.76,1.22Z"/>
  <path class="cls-2" d="M136.47,69.09c-.15,0-.29-.04-.42-.12-1.89-1.18-3.88-1.81-5.91-1.85-.25,0-.49-.13-.64-.34-.18-.24-.23-.57-.13-.87.13-.41.49-.7.88-.71h.2c2.63,0,4.87.7,6.66,2.08.3.23.41.65.29,1.05-.15.48-.51.77-.91.77h0Z"/>
  <path class="cls-1" d="M125.09,86.19h0c-2,0-3.81-1.2-4.6-3.04l-.1-.23c-.14-.34.11-.72.48-.72h8.43c.37,0,.62.38.48.72l-.1.23c-.78,1.85-2.59,3.04-4.6,3.04Z"/>
</svg>