<?xml version="1.0" encoding="UTF-8"?>
<svg id="hair_top_01" xmlns="http://www.w3.org/2000/svg" viewBox="0 0 250 300">
  <defs>
    <style>
      .cls-1 {
        fill: #eac37d;
      }
    </style>
  </defs>
  <path class="cls-1" d="M124.77,52.32s-1.18-1.47-.67-5.62c.15-1.23.59-2.43,1.91-3.23s3.73-.81,5.58-.81c10.27,0,16.92,10.3,17.68,23.7,0,.1-.15,2.59-.21,2.75-.4,1.21-4.11,1.38-5.71.59-9.38-4.66-10.75-18-18.59-17.37Z"/>
  <path class="cls-1" d="M102.8,69.4c-1.09-2.11-1.42-3.04-.43-6.99,1.36-5.45,7.86-16.05,13.77-18.12s6.58-.77,9.22,1.32l-.58,6.71c-1.01,1.32-2.83,3.44-5.03,5.77-6.01,6.38-14.77,14.3-16.94,11.31Z"/>
</svg>