<?xml version="1.0" encoding="UTF-8"?>
<svg id="hair_top_02" xmlns="http://www.w3.org/2000/svg" viewBox="0 0 46.51 23.1">
  <defs>
    <style>
      .cls-1 {
        fill: #7c5c45;
      }
    </style>
  </defs>
  <path class="cls-1" d="M43.99,20.63c-.09,0-.17,0-.26-.01-10.75-1.12-17.96-3.95-21.42-8.39-1.98-2.55-2.73-5.65-2.22-9.23.15-1.06,2.15-2.12,3.45-2.38,2.04-.41,4.02-.62,5.87-.62,10.27,0,16.35,6.36,17.1,17.91.05.72-.2,1.4-.69,1.92-.48.51-1.14.8-1.83.8Z"/>
  <path class="cls-1" d="M2.57,23.1c-.83,0-1.36-.18-1.54-.52-1.09-1.81-1.42-2.62-.43-6.02C1.96,11.87,6.01.95,14.11.95c2.33,0,4.85.91,7.48,2.72.41,4.31-.99,8.27-4.17,11.77-4.55,5-11.55,7.67-14.85,7.67h0Z"/>
</svg>