<?xml version="1.0" encoding="UTF-8" standalone="no"?>
<svg
   id="hair_top_01"
   viewBox="0 0 250 300"
   version="1.1"
   sodipodi:docname="hair.long.top.svg"
   inkscape:version="1.4 (1:1.4+202410161351+e7c3feb100)"
   xmlns:inkscape="http://www.inkscape.org/namespaces/inkscape"
   xmlns:sodipodi="http://sodipodi.sourceforge.net/DTD/sodipodi-0.dtd"
   xmlns="http://www.w3.org/2000/svg"
   xmlns:svg="http://www.w3.org/2000/svg">
  <sodipodi:namedview
     id="namedview2"
     pagecolor="#ffffff"
     bordercolor="#666666"
     borderopacity="1.0"
     inkscape:showpageshadow="2"
     inkscape:pageopacity="0.0"
     inkscape:pagecheckerboard="0"
     inkscape:deskcolor="#d1d1d1"
     inkscape:zoom="3.9933333"
     inkscape:cx="124.95826"
     inkscape:cy="150"
     inkscape:window-width="2560"
     inkscape:window-height="1403"
     inkscape:window-x="0"
     inkscape:window-y="0"
     inkscape:window-maximized="1"
     inkscape:current-layer="hair_top_01" />
  <defs
     id="defs1" />
  <path
     class="cls-1"
     d="M124.77,52.32s-1.18-1.47-.67-5.62c.15-1.23.59-2.43,1.91-3.23s3.73-.81,5.58-.81c10.27,0,16.92,10.3,17.68,23.7,0,.1-.15,2.59-.21,2.75-.4,1.21-4.11,1.38-5.71.59-9.38-4.66-10.75-18-18.59-17.37Z"
     id="path1"
     style="fill:#eac37d;fill-opacity:1" />
  <path
     class="cls-1"
     d="M102.8,69.4c-1.09-2.11-1.42-3.04-.43-6.99,1.36-5.45,7.86-16.05,13.77-18.12s6.58-.77,9.22,1.32l-.58,6.71c-1.01,1.32-2.83,3.44-5.03,5.77-6.01,6.38-14.77,14.3-16.94,11.31Z"
     id="path2"
     style="fill:#eac37d;fill-opacity:1" />
</svg>
