<?xml version="1.0" encoding="UTF-8" standalone="no"?>
<svg
   id="hair_top_02"
   viewBox="0 0 250 300"
   version="1.1"
   sodipodi:docname="hair.short.top.svg"
   inkscape:version="1.4 (1:1.4+202410161351+e7c3feb100)"
   xmlns:inkscape="http://www.inkscape.org/namespaces/inkscape"
   xmlns:sodipodi="http://sodipodi.sourceforge.net/DTD/sodipodi-0.dtd"
   xmlns="http://www.w3.org/2000/svg"
   xmlns:svg="http://www.w3.org/2000/svg">
  <sodipodi:namedview
     id="namedview2"
     pagecolor="#ffffff"
     bordercolor="#666666"
     borderopacity="1.0"
     inkscape:showpageshadow="2"
     inkscape:pageopacity="0.0"
     inkscape:pagecheckerboard="0"
     inkscape:deskcolor="#d1d1d1"
     inkscape:zoom="3.9933333"
     inkscape:cx="124.95826"
     inkscape:cy="150"
     inkscape:window-width="2560"
     inkscape:window-height="1403"
     inkscape:window-x="0"
     inkscape:window-y="0"
     inkscape:window-maximized="1"
     inkscape:current-layer="hair_top_02" />
  <defs
     id="defs1" />
  <path
     class="cls-1"
     d="M145.97,63.9c-.09,0-.17,0-.26-.01-10.75-1.12-17.96-3.95-21.42-8.39-1.98-2.55-2.73-5.65-2.22-9.23.15-1.06,2.15-2.12,3.45-2.38,2.04-.41,4.02-.62,5.87-.62,10.27,0,16.35,6.36,17.1,17.91.05.72-.2,1.4-.69,1.92-.48.51-1.14.8-1.83.8Z"
     id="path1"
     style="fill:#eac37d;fill-opacity:1" />
  <path
     class="cls-1"
     d="M104.55,66.38c-.83,0-1.36-.18-1.54-.52-1.09-1.81-1.42-2.62-.43-6.02,1.36-4.7,5.41-15.62,13.52-15.62,2.33,0,4.85.91,7.48,2.72.41,4.31-.99,8.27-4.17,11.77-4.55,5-11.55,7.67-14.85,7.67h0Z"
     id="path2"
     style="fill:#eac37d;fill-opacity:1" />
</svg>
