<?xml version="1.0" encoding="UTF-8"?>
<svg id="shoes" xmlns="http://www.w3.org/2000/svg" viewBox="0 0 250 300">
  <path d="M132.97,274.53c-.75,0-1.46-.31-1.98-.85-.53-.54-.81-1.25-.8-2l.08-7.81c0-.75.62-1.35,1.37-1.35,1.73.68,3.54,1.02,5.38,1.02,1.56,0,3.2-.25,4.86-.73.23-.07.46-.1.69-.1.4,0,.77.11,1.06.31.09.06.18.13.26.21l9.39,6.73c.27.2.5.45.66.75l.4.75c.38.7.36,1.52-.04,2.2-.41.68-1.12,1.09-1.91,1.09,0,0-19.42-.2-19.42-.2Z"/>
  <path d="M97.32,274.45c-.8,0-1.52-.41-1.92-1.1-.4-.69-.42-1.51-.03-2.21l.41-.74c.16-.29.39-.55.67-.74l9.46-6.63c.08-.08.17-.14.26-.21.29-.2.65-.3,1.04-.3.24,0,.48.04.72.11,1.71.52,3.4.79,5.01.79,1.79,0,3.54-.32,5.22-.96.75,0,1.37.61,1.37,1.37v7.82c0,1.55-1.26,2.82-2.82,2.82h-19.4Z"/>
</svg>