<?xml version="1.0" encoding="UTF-8" standalone="no"?>
<svg
   id="shoes"
   viewBox="0 0 250 300"
   version="1.1"
   sodipodi:docname="shoes.basic.top.svg"
   inkscape:version="1.4 (1:1.4+202410161351+e7c3feb100)"
   xmlns:inkscape="http://www.inkscape.org/namespaces/inkscape"
   xmlns:sodipodi="http://sodipodi.sourceforge.net/DTD/sodipodi-0.dtd"
   xmlns="http://www.w3.org/2000/svg"
   xmlns:svg="http://www.w3.org/2000/svg">
  <defs
     id="defs2" />
  <sodipodi:namedview
     id="namedview2"
     pagecolor="#ffffff"
     bordercolor="#666666"
     borderopacity="1.0"
     inkscape:showpageshadow="2"
     inkscape:pageopacity="0.0"
     inkscape:pagecheckerboard="0"
     inkscape:deskcolor="#d1d1d1"
     inkscape:zoom="3.9933333"
     inkscape:cx="124.95826"
     inkscape:cy="150"
     inkscape:window-width="2560"
     inkscape:window-height="1403"
     inkscape:window-x="0"
     inkscape:window-y="0"
     inkscape:window-maximized="1"
     inkscape:current-layer="shoes" />
  <path
     d="M132.97,274.53c-.75,0-1.46-.31-1.98-.85-.53-.54-.81-1.25-.8-2l.08-7.81c0-.75.62-1.35,1.37-1.35,1.73.68,3.54,1.02,5.38,1.02,1.56,0,3.2-.25,4.86-.73.23-.07.46-.1.69-.1.4,0,.77.11,1.06.31.09.06.18.13.26.21l9.39,6.73c.27.2.5.45.66.75l.4.75c.38.7.36,1.52-.04,2.2-.41.68-1.12,1.09-1.91,1.09,0,0-19.42-.2-19.42-.2Z"
     id="path1"
     style="fill:#2b1100" />
  <path
     d="M97.32,274.45c-.8,0-1.52-.41-1.92-1.1-.4-.69-.42-1.51-.03-2.21l.41-.74c.16-.29.39-.55.67-.74l9.46-6.63c.08-.08.17-.14.26-.21.29-.2.65-.3,1.04-.3.24,0,.48.04.72.11,1.71.52,3.4.79,5.01.79,1.79,0,3.54-.32,5.22-.96.75,0,1.37.61,1.37,1.37v7.82c0,1.55-1.26,2.82-2.82,2.82h-19.4Z"
     id="path2"
     style="fill:#2b1100" />
</svg>
