<?xml version="1.0" encoding="UTF-8" standalone="no"?>
<svg
   id="top_clothes_tshirt"
   viewBox="0 0 250 300"
   version="1.1"
   sodipodi:docname="top-clothes.tshirt.top.svg"
   inkscape:version="1.4 (1:1.4+202410161351+e7c3feb100)"
   xml:space="preserve"
   xmlns:inkscape="http://www.inkscape.org/namespaces/inkscape"
   xmlns:sodipodi="http://sodipodi.sourceforge.net/DTD/sodipodi-0.dtd"
   xmlns="http://www.w3.org/2000/svg"
   xmlns:svg="http://www.w3.org/2000/svg"><sodipodi:namedview
     id="namedview3"
     pagecolor="#ffffff"
     bordercolor="#666666"
     borderopacity="1.0"
     inkscape:showpageshadow="2"
     inkscape:pageopacity="0.0"
     inkscape:pagecheckerboard="0"
     inkscape:deskcolor="#d1d1d1"
     inkscape:zoom="3.9933333"
     inkscape:cx="107.67947"
     inkscape:cy="146.74458"
     inkscape:window-width="1614"
     inkscape:window-height="991"
     inkscape:window-x="26"
     inkscape:window-y="23"
     inkscape:window-maximized="0"
     inkscape:current-layer="top_clothes_tshirt" /><defs
     id="defs1" /><path
     class="cls-2"
     d="M81.19,128.76c-.35-.14-.61-.43-.71-.79-.11-.36-.04-.74.17-1.05l14.01-20.21c3.37-4.86,8.9-7.75,14.81-7.75h9.56l-18,38-19.84-8.19Z"
     id="path1"
     style="fill:#337ab7;fill-opacity:1" /><path
     class="cls-2"
     d="M131.04,98.95h9.56c5.91,0,11.45,2.9,14.81,7.75l14.01,20.21c.21.31.28.69.17,1.05-.11.36-.37.65-.71.79l-19.84,8.19-18-38Z"
     id="path2"
     style="fill:#337ab7;fill-opacity:1" /><path
     class="cls-1"
     d="M97.24,187.82c-.67,0-1.21-.71-1.21-1.58l3-64.4c0-12.62,7.86-22.89,17.52-22.89h2.35c.08,0,.14.08.14.18,0,4.07,2.4,7.43,5.46,7.64.18.01.36.02.54.02,3.64,0,6-2.57,6-6.54v-1.31h2.48c9.66,0,17.52,10.27,17.52,22.89l3.4,64.4c0,.87-.54,1.58-1.21,1.58h-55.98Z"
     id="path3"
     style="fill:#2b6c9e;fill-opacity:1" /></svg>
