<?xml version="1.0" encoding="UTF-8"?>
<svg id="top_clothes_sweat_shirt" xmlns="http://www.w3.org/2000/svg" viewBox="0 0 250 300">
  <defs>
    <style>
      .cls-1 {
        fill: #232828;
      }
    </style>
  </defs>
  <rect x="153.65" y="157.92" width="18.71" height="13.77" rx="1.52" ry="1.52" transform="translate(326 329.6) rotate(-180)"/>
  <rect x="77.19" y="157.92" width="18.71" height="13.77" rx="1.52" ry="1.52"/>
  <path d="M77.6,164.95c-1.5,0-2.77-1.16-3.01-2.77l-.02-.15c-1.11-7.43-.1-14.93,2.94-21.71l13.75-30.69c5.71-10.55,13.92-11.45,24.86-11.46l-11.59,32.23c-2.82,9.1-4.67,18.5-5.53,28.05-.1,1.09-.23,2.21-.38,3.33l-.05.37c-.23,1.62-1.5,2.8-3.02,2.8h-17.94Z"/>
  <path d="M172.43,164.79c1.5,0,2.77-1.17,3-2.78l.02-.15c1.09-7.43.05-14.93-3.01-21.7l-13.86-30.64c-5.74-10.53-13.95-11.4-24.9-11.38l11.7,32.19c2.85,9.09,4.73,18.49,5.62,28.03.1,1.09.23,2.21.39,3.33l.05.36c.23,1.62,1.51,2.8,3.03,2.79l17.94-.06Z"/>
  <path class="cls-1" d="M100.25,165.95c-.67,0-1.21-.54-1.21-1.21v-49.27c0-9.66,7.86-17.52,17.52-17.52h2.35c.08,0,.14.06.14.14,0,3.11,2.4,5.68,5.46,5.85.18,0,.36.01.54.01,3.64,0,6-1.96,6-5v-1h2.48c9.66,0,17.52,7.86,17.52,17.52v49.27c0,.67-.54,1.21-1.21,1.21h-49.58Z"/>
</svg>