<?xml version="1.0" encoding="UTF-8"?>
<svg id="top_clothes_tshirt" xmlns="http://www.w3.org/2000/svg" viewBox="0 0 89.21 88.88">
  <defs>
    <style>
      .cls-1 {
        fill: #337ab7;
      }

      .cls-2 {
        fill: #2b6c9e;
      }
    </style>
  </defs>
  <path class="cls-2" d="M.77,29.81c-.35-.14-.61-.43-.71-.79-.11-.36-.04-.74.17-1.05L14.23,7.75C17.6,2.9,23.13,0,29.04,0h9.56l-18,38L.77,29.81Z"/>
  <path class="cls-2" d="M50.61,0h9.56c5.91,0,11.45,2.9,14.81,7.75l14.01,20.21c.21.31.28.69.17,1.05-.11.36-.37.65-.71.79l-19.84,8.19L50.61,0Z"/>
  <path class="cls-1" d="M16.81,88.88c-.67,0-1.21-.71-1.21-1.58l3-64.4C18.61,10.27,26.46,0,36.12,0h2.35c.08,0,.14.08.14.18,0,4.07,2.4,7.43,5.46,7.64.18.01.36.02.54.02,3.64,0,6-2.57,6-6.54V0h2.48c9.66,0,17.52,10.27,17.52,22.89l3.4,64.4c0,.87-.54,1.58-1.21,1.58H16.81Z"/>
</svg>