<svg width="191" height="89" viewBox="0 0 191 89" fill="none" xmlns="http://www.w3.org/2000/svg">
<path d="M18.14 20.57H5.48001L5.86001 16.24C5.98001 14.9 7.10001 13.87 8.44001 13.87H15.19C16.53 13.87 17.65 14.9 17.77 16.24L18.15 20.57H18.14Z" fill="#B5B5B5"/>
<path d="M21.18 18.1H2.45001C1.15214 18.1 0.100006 19.1521 0.100006 20.45V85.89C0.100006 87.1879 1.15214 88.24 2.45001 88.24H21.18C22.4779 88.24 23.53 87.1879 23.53 85.89V20.45C23.53 19.1521 22.4779 18.1 21.18 18.1Z" fill="#646464"/>
<path d="M23.43 31.22H0V75.12H23.43V31.22Z" fill="#FFC51C"/>
<path d="M51.86 20.45V85.88C51.86 87.18 50.8 88.24 49.51 88.24H30.78C29.48 88.24 28.43 87.18 28.43 85.88V20.45C28.43 19.15 29.48 18.1 30.78 18.1H49.51C50.8 18.1 51.86 19.15 51.86 20.45Z" fill="#646464"/>
<path d="M46.48 20.57H33.82L34.2 16.24C34.32 14.9 35.44 13.87 36.78 13.87H43.53C44.87 13.87 45.99 14.9 46.11 16.24L46.49 20.57H46.48Z" fill="#B5B5B5"/>
<path d="M51.86 20.45V68.23H28.43V20.45C28.43 19.15 29.48 18.1 30.78 18.1H49.51C50.8 18.1 51.86 19.15 51.86 20.45Z" fill="#8CCC00"/>
<path d="M84.11 21.44H71.45L71.83 17.11C71.95 15.77 73.07 14.74 74.41 14.74H81.16C82.5 14.74 83.62 15.77 83.74 17.11L84.12 21.44H84.11Z" fill="#C7C7C7"/>
<path d="M59.49 85.89V20.46C59.49 19.16 61.14 18.1 63.16 18.1H92.4C94.43 18.1 96.07 19.16 96.07 20.46V85.89C96.07 87.19 94.43 88.24 92.4 88.24H63.16C61.15 88.24 59.49 87.19 59.49 85.89Z" fill="#646464"/>
<path d="M59.49 85.89V38.11H96.06V85.89C96.06 87.19 94.42 88.24 92.39 88.24H63.15C61.14 88.24 59.48 87.19 59.48 85.89H59.49Z" fill="#8CCC00"/>
<path d="M148.278 1.62726L148.273 1.61842C147.98 1.06128 147.291 0.847353 146.734 1.1406L110.072 20.4374C109.515 20.7307 109.301 21.42 109.594 21.9772L109.599 21.986C109.892 22.5432 110.581 22.7571 111.138 22.4638L147.8 3.16703C148.357 2.87378 148.571 2.1844 148.278 1.62726Z" fill="#B5B5B5"/>
<path d="M184.31 21.1C184.02 21.66 183.48 21.96 183.1 21.76L158.16 8.94C157.78 8.74 157.71 8.13 158 7.57C158.29 7.01 158.83 6.71 159.21 6.91L184.15 19.73C184.53 19.93 184.6 20.54 184.31 21.1Z" fill="#B5B5B5"/>
<path d="M190.22 22.07V84.27C190.22 86.46 188.44 88.24 186.25 88.24H109.24C107.04 88.24 105.27 86.46 105.27 84.27V22.07C105.27 19.88 107.04 18.1 109.24 18.1H186.25C188.44 18.1 190.22 19.88 190.22 22.07Z" fill="#646464"/>
<path d="M190.22 23.02V38.11H105.27V23.02C105.27 20.31 107.04 18.1 109.24 18.1H186.25C188.44 18.1 190.22 20.3 190.22 23.02Z" fill="#FFC51C"/>
<path d="M190.22 40.04H105.27V43.21H190.22V40.04Z" fill="#FFC51C"/>
</svg>
