<svg width="24" height="76" viewBox="0 0 24 76" fill="none" xmlns="http://www.w3.org/2000/svg">
<path d="M23.86 7.45V72.88C23.86 74.18 22.8 75.24 21.51 75.24H2.77999C1.47999 75.24 0.429993 74.18 0.429993 72.88V7.45C0.429993 6.15 1.47999 5.1 2.77999 5.1H21.51C22.8 5.1 23.86 6.15 23.86 7.45Z" fill="#646464"/>
<path d="M18.48 7.56999H5.82001L6.20001 3.24C6.32001 1.89999 7.44001 0.869995 8.78001 0.869995H15.53C16.87 0.869995 17.99 1.89999 18.11 3.24L18.49 7.56999H18.48Z" fill="#B5B5B5"/>
<path d="M23.86 7.45V55.23H0.429993V7.45C0.429993 6.15 1.47999 5.1 2.77999 5.1H21.51C22.8 5.1 23.86 6.15 23.86 7.45Z" fill="#8CCC00"/>
</svg>
