<svg width="86" height="89" viewBox="0 0 86 89" fill="none" xmlns="http://www.w3.org/2000/svg">
<path d="M43.278 1.62726L43.2733 1.61842C42.9801 1.06128 42.2907 0.847353 41.7336 1.1406L5.07191 20.4374C4.51477 20.7307 4.30084 21.42 4.59409 21.9772L4.59874 21.986C4.89199 22.5432 5.58137 22.7571 6.13852 22.4638L42.8002 3.16703C43.3573 2.87378 43.5713 2.1844 43.278 1.62726Z" fill="#B5B5B5"/>
<path d="M79.31 21.1C79.02 21.66 78.48 21.96 78.1 21.76L53.16 8.94C52.78 8.74 52.71 8.13 53 7.57C53.29 7.01 53.83 6.71 54.21 6.91L79.15 19.73C79.53 19.93 79.6 20.54 79.31 21.1Z" fill="#B5B5B5"/>
<path d="M85.22 22.07V84.27C85.22 86.46 83.44 88.24 81.25 88.24H4.24002C2.04002 88.24 0.27002 86.46 0.27002 84.27V22.07C0.27002 19.88 2.04002 18.1 4.24002 18.1H81.25C83.44 18.1 85.22 19.88 85.22 22.07Z" fill="#646464"/>
<path d="M85.22 23.02V38.11H0.27002V23.02C0.27002 20.31 2.04002 18.1 4.24002 18.1H81.25C83.44 18.1 85.22 20.3 85.22 23.02Z" fill="#FFC51C"/>
<path d="M85.22 40.04H0.27002V43.21H85.22V40.04Z" fill="#FFC51C"/>
</svg>
