<svg width="38" height="75" viewBox="0 0 38 75" fill="none" xmlns="http://www.w3.org/2000/svg">
<path d="M25.11 7.44H12.45L12.83 3.11C12.95 1.77 14.07 0.739998 15.41 0.739998H22.16C23.5 0.739998 24.62 1.77 24.74 3.11L25.12 7.44H25.11Z" fill="#C7C7C7"/>
<path d="M0.48999 71.89V6.46C0.48999 5.16 2.13999 4.1 4.15999 4.1H33.4C35.43 4.1 37.07 5.16 37.07 6.46V71.89C37.07 73.19 35.43 74.24 33.4 74.24H4.15999C2.14999 74.24 0.48999 73.19 0.48999 71.89Z" fill="#646464"/>
<path d="M0.489983 71.89V24.11H37.06V71.89C37.06 73.19 35.42 74.24 33.39 74.24H4.14998C2.13998 74.24 0.47998 73.19 0.47998 71.89H0.489983Z" fill="#8CCC00"/>
</svg>
