<svg width="174" height="102" viewBox="0 0 174 102" fill="none" xmlns="http://www.w3.org/2000/svg">
<g clip-path="url(#clip0_378_4095)">
<path d="M30.29 41.21C13.56 41.21 0 54.77 0 71.5C0 88.23 13.56 101.79 30.29 101.79C47.02 101.79 60.58 88.22 60.58 71.5C60.58 54.78 47.02 41.21 30.29 41.21ZM30.29 96.94C16.24 96.94 4.85 85.55 4.85 71.5C4.85 57.45 16.24 46.06 30.29 46.06C44.34 46.06 55.73 57.45 55.73 71.5C55.73 85.55 44.34 96.94 30.29 96.94Z" fill="#646464"/>
<path d="M143.28 41.21C126.55 41.21 112.99 54.77 112.99 71.5C112.99 88.23 126.55 101.79 143.28 101.79C160.01 101.79 173.57 88.22 173.57 71.5C173.57 54.78 160.01 41.21 143.28 41.21ZM143.28 96.94C129.23 96.94 117.84 85.55 117.84 71.5C117.84 57.45 129.23 46.06 143.28 46.06C157.33 46.06 168.72 57.45 168.72 71.5C168.72 85.55 157.33 96.94 143.28 96.94Z" fill="#646464"/>
<path d="M29.08 70.01V74.66L82.52 74.8L82.43 69.93L34.36 70.01L57.82 26.11L74.75 67.26L79.21 65.29L61.71 23.17L115.45 23.31L116 24.37L81.96 65.83L85.8 68.82L118.34 28.87L141.33 73.12L145.42 70.9L109.18 1.17L105.1 3.39L112.92 18.45L59.77 18.51L53.71 3.93L49.41 5.69L55.52 20.53L29.08 70V70.01Z" fill="#F03214"/>
<path d="M81.96 83.83C88.2947 83.83 93.43 78.6947 93.43 72.36C93.43 66.0253 88.2947 60.89 81.96 60.89C75.6253 60.89 70.49 66.0253 70.49 72.36C70.49 78.6947 75.6253 83.83 81.96 83.83Z" fill="#FFC51C"/>
<path d="M81.96 72.33C83.26 72.33 84.32 73.39 84.32 74.69V92.1H79.6V74.69C79.6 73.39 80.66 72.33 81.96 72.33Z" fill="#646464"/>
<path d="M87.53 91.88H76.39C74.9927 91.88 73.86 93.0127 73.86 94.41C73.86 95.8073 74.9927 96.94 76.39 96.94H87.53C88.9273 96.94 90.06 95.8073 90.06 94.41C90.06 93.0127 88.9273 91.88 87.53 91.88Z" fill="#B5B5B5"/>
<path d="M67.68 0H41.66C39.6662 0 38.05 1.61625 38.05 3.61C38.05 5.60375 39.6662 7.22 41.66 7.22H67.68C69.6737 7.22 71.29 5.60375 71.29 3.61C71.29 1.61625 69.6737 0 67.68 0Z" fill="#646464"/>
<path d="M96.71 3.66999C96.71 2.38999 97.74 1.34999 99.02 1.32999L109.18 1.17999L106.5 6.04999L99.05 6.01999C97.75 6.01999 96.71 4.95999 96.71 3.66999Z" fill="#646464"/>
<path d="M143.28 75.13C145.285 75.13 146.91 73.5048 146.91 71.5C146.91 69.4952 145.285 67.87 143.28 67.87C141.275 67.87 139.65 69.4952 139.65 71.5C139.65 73.5048 141.275 75.13 143.28 75.13Z" fill="#646464"/>
<path d="M30.29 75.13C32.2948 75.13 33.92 73.5048 33.92 71.5C33.92 69.4952 32.2948 67.87 30.29 67.87C28.2852 67.87 26.66 69.4952 26.66 71.5C26.66 73.5048 28.2852 75.13 30.29 75.13Z" fill="#646464"/>
</g>
<defs>
<clipPath id="clip0_378_4095">
<rect width="173.57" height="101.8" fill="white"/>
</clipPath>
</defs>
</svg>
