<svg width="137" height="128" viewBox="0 0 137 128" fill="none" xmlns="http://www.w3.org/2000/svg">
<g clip-path="url(#clip0_335_209)">
<path d="M101.33 22.1H133.23C134.96 22.1 136.37 23.51 136.37 25.24C136.37 26.97 134.96 28.38 133.23 28.38H101.33V22.09V22.1Z" fill="#B5B5B5"/>
<path d="M87.62 16.19H105.33C106.91 16.19 108.19 17.47 108.19 19.05V31.43C108.19 33.01 106.91 34.29 105.33 34.29H87.62V16.19Z" fill="#B5B5B5"/>
<path d="M70.67 8.57H88.53C90.84 8.57 92.72 10.45 92.72 12.76V37.71C92.72 40.02 90.84 41.9 88.53 41.9H70.67V8.57Z" fill="#646464"/>
<path d="M57.78 117.4L9.02 117.91V101.53L11.42 98.73C13.23 96.61 14.23 93.91 14.23 91.11V43.12H64.33L47.66 84.71C45.87 89.18 47.35 94.31 51.26 97.13L57.37 101.54L57.79 117.41L57.78 117.4Z" fill="#FFC51C"/>
<path d="M70.67 0H12C5.37258 0 0 5.37258 0 12V38.48C0 45.1074 5.37258 50.48 12 50.48H70.67C77.2974 50.48 82.67 45.1074 82.67 38.48V12C82.67 5.37258 77.2974 0 70.67 0Z" fill="#FFC51C"/>
<path d="M63.22 64.44H56L58.06 50.47H70.95L65.72 62.79C65.29 63.79 64.31 64.44 63.23 64.44H63.22Z" fill="#646464"/>
<path d="M9.35 101.52H70.98C73.12 101.52 74.85 103.26 74.85 105.39V123.8C74.85 125.94 73.11 127.67 70.98 127.67H8.89C6.75 127.67 5.02 125.93 5.02 123.8V105.85C5.02 103.46 6.96 101.52 9.35 101.52Z" fill="#646464"/>
<path d="M35.23 11.65H10.86C9.49033 11.65 8.38 12.7581 8.38 14.125C8.38 15.4919 9.49033 16.6 10.86 16.6H35.23C36.5997 16.6 37.71 15.4919 37.71 14.125C37.71 12.7581 36.5997 11.65 35.23 11.65Z" fill="#646464"/>
<path d="M35.23 23.71H10.86C9.49033 23.71 8.38 24.8181 8.38 26.185C8.38 27.5519 9.49033 28.66 10.86 28.66H35.23C36.5997 28.66 37.71 27.5519 37.71 26.185C37.71 24.8181 36.5997 23.71 35.23 23.71Z" fill="#646464"/>
</g>
<defs>
<clipPath id="clip0_335_209">
<rect width="136.38" height="127.68" fill="white"/>
</clipPath>
</defs>
</svg>
