<svg width="31" height="12" viewBox="0 0 31 12" fill="none" xmlns="http://www.w3.org/2000/svg">
<path d="M7.17153 0C3.59789 0 0.700073 2.59873 0.700073 5.80588C0.700073 9.01304 3.59789 11.6118 7.17153 11.6118C10.7452 11.6118 13.643 9.01304 13.643 5.80588C13.643 2.59873 10.7452 0 7.17153 0ZM7.17153 10.7249C4.1406 10.7249 1.69332 8.51805 1.69332 5.80588C1.69332 3.09372 4.1406 0.886866 7.17153 0.886866C10.2025 0.886866 12.6497 3.08341 12.6497 5.80588C12.6497 8.52836 10.1922 10.7249 7.17153 10.7249Z" fill="#00585C"/>
<path d="M24.3435 0C20.7699 0 17.8721 2.59873 17.8721 5.80588C17.8721 9.01304 20.7699 11.6118 24.3435 11.6118C27.9172 11.6118 30.815 9.01304 30.815 5.80588C30.815 2.59873 27.9172 0 24.3435 0ZM24.3435 10.7249C21.3126 10.7249 18.8653 8.51805 18.8653 5.80588C18.8653 3.09372 21.3126 0.886866 24.3435 0.886866C27.3745 0.886866 29.8217 3.08341 29.8217 5.80588C29.8217 8.52836 27.3642 10.7249 24.3435 10.7249Z" fill="#00585C"/>
<path d="M18.3226 5.95026C16.5716 5.11495 14.7899 5.38307 13.1003 5.95026V4.69214C15.0459 4.26933 16.8583 4.13527 18.3226 4.69214V5.95026Z" fill="#00585C"/>
</svg>
