<svg width="37" height="108" viewBox="0 0 37 108" fill="none" xmlns="http://www.w3.org/2000/svg">
<g clip-path="url(#clip0_378_4092)">
<path d="M10.35 95.68H26.61V102.83C26.61 105.43 24.5 107.55 21.89 107.55H15.07C12.47 107.55 10.35 105.44 10.35 102.83V95.68Z" fill="#646464"/>
<path d="M20.6 0.84C19.41 -0.28 17.56 -0.28 16.37 0.84C3.44 13 -7.64 63.24 6.84 74.63V74.57H30.12V74.63C44.61 63.24 33.53 13 20.59 0.84H20.6Z" fill="#82DCFF"/>
<path d="M30.12 74.57V97.4C30.12 98.83 28.96 99.98 27.54 99.98H9.42C8 99.98 6.84 98.83 6.84 97.4V74.57H30.12Z" fill="#B5B5B5"/>
<path d="M30.12 78.94H6.84V81H30.12V78.94Z" fill="#646464"/>
<path d="M30.12 93.84H6.84V95.9H30.12V93.84Z" fill="#646464"/>
<path d="M30.12 86.39H6.84V88.45H30.12V86.39Z" fill="#646464"/>
<path d="M22.51 7.85C22.34 9.08 20.73 9.44 20.06 8.4C20.01 8.32 19.95 8.23 19.9 8.15C19.75 7.92 19.67 7.65 19.68 7.37C19.73 6.06 21.43 5.6 22.15 6.69C22.2 6.77 22.26 6.86 22.31 6.94C22.48 7.21 22.56 7.54 22.51 7.86V7.85Z" fill="white"/>
<path d="M27.26 18.01C26.77 19.09 25.22 19.06 24.79 17.96C24.3 16.72 23.8 15.54 23.29 14.41C23.17 14.16 23.14 13.87 23.2 13.6V13.58C23.46 12.31 25.2 12.09 25.74 13.27C26.28 14.45 26.8 15.68 27.3 16.95C27.43 17.29 27.42 17.67 27.27 18L27.26 18.01Z" fill="white"/>
</g>
<defs>
<clipPath id="clip0_378_4092">
<rect width="36.96" height="107.55" fill="white"/>
</clipPath>
</defs>
</svg>
