<svg width="52" height="83" viewBox="0 0 52 83" fill="none" xmlns="http://www.w3.org/2000/svg">
<g clip-path="url(#clip0_378_4091)">
<path d="M17.45 70.67H33.71V77.82C33.71 80.42 31.6 82.54 28.99 82.54H22.17C19.57 82.54 17.45 80.43 17.45 77.82V70.67Z" fill="#646464"/>
<path d="M37.63 63.19V74.9C37.63 75.84 36.86 76.61 35.92 76.61H15.24C14.3 76.61 13.53 75.84 13.53 74.9V63.19H37.63Z" fill="#B5B5B5"/>
<path d="M37.87 63.19H13.29C12.56 63.19 11.93 62.67 11.79 61.96L9.7 51.19C8.96 47.39 7.28 43.86 4.98 40.75C1.85 36.5 0 31.25 0 25.57C0 11.45 11.45 0 25.58 0C39.71 0 51.16 11.45 51.16 25.57C51.16 31.25 49.31 36.5 46.18 40.75C43.88 43.87 42.2 47.39 41.46 51.19L39.37 61.96C39.23 62.68 38.6 63.19 37.87 63.19Z" fill="#82DCFF"/>
<path d="M37.63 66.61H13.53V68.23H37.63V66.61Z" fill="#646464"/>
<path d="M35.89 7.55001C35.53 8.18001 34.75 8.43001 34.1 8.12001C33.77 7.96001 33.43 7.81001 33.09 7.67001C32.42 7.40001 32.08 6.65001 32.3 5.97001C32.55 5.21001 33.4 4.82001 34.14 5.12001C34.53 5.28001 34.91 5.45001 35.29 5.63001C36.01 5.98001 36.29 6.86001 35.9 7.56001L35.89 7.55001Z" fill="white"/>
<path d="M42.83 13.95C42.23 14.36 41.42 14.23 40.98 13.66C40.08 12.5 39.05 11.45 37.91 10.53C37.35 10.08 37.24 9.27 37.65 8.68C38.11 8.02 39.04 7.9 39.66 8.41C40.95 9.45 42.12 10.64 43.14 11.95C43.63 12.58 43.5 13.51 42.83 13.96V13.95Z" fill="white"/>
<path d="M37.63 71.51H13.53V73.13H37.63V71.51Z" fill="#646464"/>
</g>
<defs>
<clipPath id="clip0_378_4091">
<rect width="51.16" height="82.54" fill="white"/>
</clipPath>
</defs>
</svg>
