<svg width="70" height="150" viewBox="0 0 70 150" fill="none" xmlns="http://www.w3.org/2000/svg">
<g clip-path="url(#clip0_335_208)">
<path d="M56.3 149.37H6.69C3 149.37 0 146.38 0 142.69V62.38C0.94 48.09 6.22 45.36 19.93 29.08H44.31L45.17 37.15C45.84 43.62 49.01 49.57 54.01 53.74C59.69 58.48 62.98 65.49 62.98 72.89V142.7C62.98 146.39 59.99 149.39 56.29 149.39L56.3 149.37Z" fill="#82DCFF"/>
<path d="M62.3 4.52H68.85C69.44 4.52 69.92 5 69.92 5.59V12.18C69.92 12.77 69.44 13.25 68.85 13.25H62.3V4.52Z" fill="#00A05A"/>
<path d="M56.91 30.44C51.4 26.48 46.11 19.17 40.82 11.83L45.32 7.72C50.38 14.71 55.46 21.35 60.63 25.57C62.09 26.76 62.18 28.95 60.79 30.22C59.71 31.2 58.1 31.29 56.91 30.43V30.44Z" fill="#00A05A"/>
<path d="M64.15 1.21V16.89C64.15 17.47 63.68 17.94 63.1 17.94L46.74 17.9V29.82C46.74 30.57 46.13 31.17 45.38 31.17H17.62C16.87 31.17 16.26 30.57 16.26 29.82V17.82L1.42 17.78C0.600001 17.78 -0.0599992 17.07 0.0100008 16.25C0.790001 7.16 8.44 0 17.73 0L63.1 0.16C63.68 0.16 64.15 0.63 64.15 1.21Z" fill="#00A05A"/>
</g>
<defs>
<clipPath id="clip0_335_208">
<rect width="69.92" height="149.37" fill="white"/>
</clipPath>
</defs>
</svg>
