<svg width="100" height="109" viewBox="0 0 100 109" fill="none" xmlns="http://www.w3.org/2000/svg">
<g clip-path="url(#clip0_378_4093)">
<path d="M5.91 105.53H16.36V107.27C16.36 108.23 15.58 109.01 14.62 109.01H7.65C6.69 109.01 5.91 108.23 5.91 107.27V105.53Z" fill="#646464"/>
<path d="M83.39 105.53V107.27C83.39 108.23 84.17 109.01 85.13 109.01H92.1C93.06 109.01 93.84 108.23 93.84 107.27V105.53" fill="#646464"/>
<path d="M99.75 15.61V101.11C99.75 103.84 97.53 106.06 94.79 106.06H4.96C2.22 106.06 0 103.84 0 101.11V15.61H99.75Z" fill="#B5B5B5"/>
<path d="M99.75 4.95V15.61H0V4.95C0 2.21 2.22 0 4.96 0H94.79C97.53 0 99.75 2.21 99.75 4.95Z" fill="#646464"/>
<path d="M24.78 2.89999H5.56C5.04086 2.89999 4.62 3.32085 4.62 3.83999V11.77C4.62 12.2891 5.04086 12.71 5.56 12.71H24.78C25.2992 12.71 25.72 12.2891 25.72 11.77V3.83999C25.72 3.32085 25.2992 2.89999 24.78 2.89999Z" fill="white"/>
<path d="M62.13 10.56C63.6543 10.56 64.89 9.3243 64.89 7.79999C64.89 6.27569 63.6543 5.03999 62.13 5.03999C60.6057 5.03999 59.37 6.27569 59.37 7.79999C59.37 9.3243 60.6057 10.56 62.13 10.56Z" fill="#82DCFF"/>
<path d="M76.63 10.56C78.1543 10.56 79.39 9.3243 79.39 7.79999C79.39 6.27569 78.1543 5.03999 76.63 5.03999C75.1057 5.03999 73.87 6.27569 73.87 7.79999C73.87 9.3243 75.1057 10.56 76.63 10.56Z" fill="#82DCFF"/>
<path d="M91.13 10.56C92.6543 10.56 93.89 9.3243 93.89 7.79999C93.89 6.27569 92.6543 5.03999 91.13 5.03999C89.6057 5.03999 88.37 6.27569 88.37 7.79999C88.37 9.3243 89.6057 10.56 91.13 10.56Z" fill="#82DCFF"/>
<path d="M49.87 91.45C68.6311 91.45 83.84 76.2411 83.84 57.48C83.84 38.7189 68.6311 23.51 49.87 23.51C31.1089 23.51 15.9 38.7189 15.9 57.48C15.9 76.2411 31.1089 91.45 49.87 91.45Z" fill="#646464"/>
<path d="M49.87 82.8C63.8539 82.8 75.19 71.4639 75.19 57.48C75.19 43.4962 63.8539 32.16 49.87 32.16C35.8862 32.16 24.55 43.4962 24.55 57.48C24.55 71.4639 35.8862 82.8 49.87 82.8Z" fill="#82DCFF"/>
<path d="M58.5 39.59C58.05 40.56 56.93 40.98 55.93 40.62C55.53 40.48 55.13 40.35 54.72 40.23C53.7 39.94 53.05 38.96 53.23 37.92C53.43 36.75 54.6 35.98 55.74 36.29C56.3 36.44 56.85 36.62 57.39 36.82C58.5 37.22 59 38.51 58.5 39.58V39.59Z" fill="white"/>
<path d="M67.97 49.24C67 49.71 65.86 49.33 65.32 48.41C64.37 46.8 63.19 45.36 61.8 44.13C61.01 43.43 60.85 42.26 61.47 41.4C62.16 40.44 63.54 40.25 64.43 41.03C66.18 42.58 67.68 44.4 68.86 46.43C69.45 47.44 69.02 48.74 67.97 49.24Z" fill="white"/>
</g>
<defs>
<clipPath id="clip0_378_4093">
<rect width="99.75" height="109.01" fill="white"/>
</clipPath>
</defs>
</svg>
