<svg width="183" height="67" viewBox="0 0 183 67" fill="none" xmlns="http://www.w3.org/2000/svg">
<g clip-path="url(#clip0_378_4094)">
<path d="M175 25.94H7.36C3.29518 25.94 0 29.2352 0 33.3C0 37.3648 3.29518 40.66 7.36 40.66H175C179.065 40.66 182.36 37.3648 182.36 33.3C182.36 29.2352 179.065 25.94 175 25.94Z" fill="#B5B5B5"/>
<path d="M53 0H44.3C41.3287 0 38.92 2.40871 38.92 5.38V61.23C38.92 64.2013 41.3287 66.61 44.3 66.61H53C55.9713 66.61 58.38 64.2013 58.38 61.23V5.38C58.38 2.40871 55.9713 0 53 0Z" fill="#646464"/>
<path d="M30.55 0H21.85C18.8787 0 16.47 2.40871 16.47 5.38V61.23C16.47 64.2013 18.8787 66.61 21.85 66.61H30.55C33.5213 66.61 35.93 64.2013 35.93 61.23V5.38C35.93 2.40871 33.5213 0 30.55 0Z" fill="#646464"/>
<path d="M14.97 21.96C14.97 20.2369 13.5731 18.84 11.85 18.84C10.1269 18.84 8.73 20.2369 8.73 21.96V44.66C8.73 46.3831 10.1269 47.78 11.85 47.78C13.5731 47.78 14.97 46.3831 14.97 44.66V21.96Z" fill="#B5B5B5"/>
<path d="M129.36 66.61H138.06C141.031 66.61 143.44 64.2013 143.44 61.23V5.37999C143.44 2.40869 141.031 -1.52588e-05 138.06 -1.52588e-05H129.36C126.389 -1.52588e-05 123.98 2.40869 123.98 5.37999V61.23C123.98 64.2013 126.389 66.61 129.36 66.61Z" fill="#646464"/>
<path d="M151.81 66.61H160.51C163.481 66.61 165.89 64.2013 165.89 61.23V5.37999C165.89 2.40869 163.481 -1.52588e-05 160.51 -1.52588e-05H151.81C148.839 -1.52588e-05 146.43 2.40869 146.43 5.37999V61.23C146.43 64.2013 148.839 66.61 151.81 66.61Z" fill="#646464"/>
<path d="M167.38 44.65C167.38 46.3731 168.777 47.77 170.5 47.77C172.223 47.77 173.62 46.3731 173.62 44.65V21.95C173.62 20.2269 172.223 18.83 170.5 18.83C168.777 18.83 167.38 20.2269 167.38 21.95V44.65Z" fill="#B5B5B5"/>
</g>
<defs>
<clipPath id="clip0_378_4094">
<rect width="182.36" height="66.61" fill="white"/>
</clipPath>
</defs>
</svg>
