<svg width="55" height="24" viewBox="0 0 55 24" fill="none" xmlns="http://www.w3.org/2000/svg">
<g clip-path="url(#clip0_494_4761)">
<path d="M54.64 17.58C54.64 21.1 51.78 23.95 48.27 23.95C44.76 23.95 41.9 21.1 41.9 17.58C41.9 17.29 41.92 17 41.96 16.73H12.69C12.73 17 12.75 17.29 12.75 17.58C12.75 21.1 9.89 23.95 6.38 23.95C2.87 23.95 0 21.1 0 17.58C0 15.16 1.36 13.05 3.35 11.98C1.36 10.9 0 8.79 0 6.37C0 2.85 2.86 0 6.38 0C9.9 0 12.75 2.85 12.75 6.37C12.75 6.66 12.73 6.95 12.69 7.22H41.96C41.92 6.95 41.9 6.66 41.9 6.37C41.9 2.85 44.75 0 48.27 0C51.79 0 54.64 2.85 54.64 6.37C54.64 8.79 53.28 10.9 51.29 11.98C53.28 13.05 54.64 15.16 54.64 17.58Z" fill="white"/>
</g>
<defs>
<clipPath id="clip0_494_4761">
<rect width="54.64" height="23.95" fill="white"/>
</clipPath>
</defs>
</svg>
