<svg width="67" height="54" viewBox="0 0 67 54" fill="none" xmlns="http://www.w3.org/2000/svg">
<g clip-path="url(#clip0_494_4760)">
<path d="M47.06 51.2201C37.91 54.5201 28.76 54.5201 19.62 51.2201C16.06 49.9401 13.7 46.5301 13.7 42.7501C13.7 37.7701 17.73 33.7401 22.71 33.7401C22.71 18.5401 43.97 17.9001 43.97 33.7401C48.95 33.7401 52.9799 37.7701 52.9799 42.7501C52.9799 46.5301 50.62 49.9401 47.06 51.2201Z" fill="#5E5953"/>
<path d="M13.0298 29.3462C15.8498 27.0454 15.6679 22.1553 12.6235 18.4237C9.57901 14.6922 4.82489 13.5323 2.00484 15.8331C-0.815214 18.1339 -0.633299 23.0241 2.41116 26.7556C5.45561 30.4872 10.2097 31.647 13.0298 29.3462Z" fill="#5E5953"/>
<path d="M24.7618 16.9565C28.2595 15.9502 30.0155 11.3826 28.6841 6.7544C27.3526 2.12619 23.4378 -0.809979 19.9401 0.196272C16.4424 1.20252 14.6863 5.77015 16.0178 10.3984C17.3493 15.0266 21.2641 17.9627 24.7618 16.9565Z" fill="#5E5953"/>
<path d="M64.436 26.7557C67.4804 23.0241 67.6623 18.134 64.8423 15.8332C62.0222 13.5324 57.2681 14.6922 54.2237 18.4237C51.1792 22.1553 50.9973 27.0455 53.8173 29.3463C56.6374 31.6471 61.3915 30.4872 64.436 26.7557Z" fill="#5E5953"/>
<path d="M50.8318 10.3987C52.1633 5.77054 50.4072 1.20291 46.9095 0.196661C43.4118 -0.80959 39.497 2.12658 38.1655 6.75479C36.834 11.383 38.5901 15.9506 42.0878 16.9569C45.5855 17.9631 49.5003 15.0269 50.8318 10.3987Z" fill="#5E5953"/>
</g>
<defs>
<clipPath id="clip0_494_4760">
<rect width="66.85" height="53.7" fill="white"/>
</clipPath>
</defs>
</svg>
