<svg width="112" height="72" viewBox="0 0 112 72" fill="none" xmlns="http://www.w3.org/2000/svg">
<path d="M106.94 5.83997H5.26001V66.71H106.94V5.83997Z" fill="#00A4FF"/>
<path d="M108.33 0.619995H3.87001C1.94806 0.619995 0.390015 2.17804 0.390015 4.09999C0.390015 6.02194 1.94806 7.57999 3.87001 7.57999H108.33C110.252 7.57999 111.81 6.02194 111.81 4.09999C111.81 2.17804 110.252 0.619995 108.33 0.619995Z" fill="#9E9E9E"/>
<path d="M108.33 64.97H3.87001C1.94806 64.97 0.390015 66.528 0.390015 68.45C0.390015 70.3719 1.94806 71.93 3.87001 71.93H108.33C110.252 71.93 111.81 70.3719 111.81 68.45C111.81 66.528 110.252 64.97 108.33 64.97Z" fill="#9E9E9E"/>
<path d="M39.55 29L28.29 24.29C26.49 23.54 24.51 24.86 24.51 26.81V45.74C24.51 47.69 26.49 49.01 28.29 48.26L39.55 43.55C49.46 49.55 89.73 59.47 89.73 36.28C89.73 13.09 49.46 23 39.55 29ZM75.38 40.19C73.22 40.19 71.46 38.44 71.46 36.28C71.46 34.12 73.22 32.36 75.38 32.36C77.54 32.36 79.29 34.11 79.29 36.28C79.29 38.45 77.54 40.19 75.38 40.19Z" fill="white"/>
</svg>
