<svg width="44" height="49" viewBox="0 0 44 49" fill="none" xmlns="http://www.w3.org/2000/svg">
<path d="M1.03002 13.58L5.24002 22.01C5.89002 23.3 7.42001 23.88 8.76001 23.34L15.55 20.58C17.07 19.96 17.72 18.17 16.96 16.72L12.33 7.91C11.63 6.58 10 6.04999 8.65001 6.70999L2.27002 9.84999C0.890023 10.53 0.330023 12.2 1.02002 13.58H1.03002Z" fill="#C18E4F"/>
<path d="M12.13 41.91L17.53 34.11C18.46 32.77 20.34 32.52 21.59 33.56L24.86 36.3C25.4 36.75 25.75 37.39 25.83 38.09L26.76 45.65C27 47.59 25.21 49.16 23.31 48.67L13.71 46.17C11.85 45.69 11.03 43.49 12.13 41.91Z" fill="#C18E4F"/>
<path d="M28.64 9.69C29.78 7.52 31.39 4.36 32.56 2.05C33.34 0.500003 35.33 0.0499985 36.71 1.1L42.71 5.65C43.58 6.31 43.98 7.43 43.73 8.5L42 15.82C41.59 17.57 39.64 18.47 38.04 17.65L29.84 13.45C28.47 12.75 27.93 11.06 28.65 9.7L28.64 9.69Z" fill="#C18E4F"/>
</svg>
