<svg width="145" height="85" viewBox="0 0 145 85" fill="none" xmlns="http://www.w3.org/2000/svg">
<g clip-path="url(#clip0_494_4759)">
<path d="M120.19 34.27H21.86C19.97 23.58 29.13 13.26 41.28 13.46C45.51 13.53 49.06 14.92 51.72 17.12C56.55 7.04001 67.17 0.18001 78.22 1.00867e-05C91.4 -0.21999 102.43 9.15001 103.46 22.13C103.49 22.47 103.51 22.81 103.52 23.15C104.17 23.06 104.83 23.01 105.51 23.01C111.36 23.01 117.55 26.69 119.63 32.23C119.88 32.91 120.07 33.59 120.19 34.27Z" fill="#A3724D"/>
<path d="M138.68 84.36H5.67002C1.83002 84.36 -0.889975 80.63 0.270025 76.98L12.65 38.21C13.4 35.87 15.58 34.27 18.04 34.27H126.3C128.77 34.27 130.95 35.87 131.7 38.21L144.07 76.98C145.24 80.63 142.51 84.36 138.68 84.36Z" fill="#0064C8"/>
<path d="M99.49 67.36C99.49 70.88 96.63 73.73 93.12 73.73C89.61 73.73 86.75 70.88 86.75 67.36C86.75 67.07 86.77 66.78 86.81 66.51H57.54C57.58 66.78 57.6 67.07 57.6 67.36C57.6 70.88 54.74 73.73 51.23 73.73C47.72 73.73 44.85 70.88 44.85 67.36C44.85 64.94 46.21 62.83 48.2 61.76C46.21 60.68 44.85 58.57 44.85 56.15C44.85 52.63 47.71 49.78 51.23 49.78C54.75 49.78 57.6 52.63 57.6 56.15C57.6 56.44 57.58 56.73 57.54 57H86.81C86.77 56.73 86.75 56.44 86.75 56.15C86.75 52.63 89.6 49.78 93.12 49.78C96.64 49.78 99.49 52.63 99.49 56.15C99.49 58.57 98.13 60.68 96.14 61.76C98.13 62.83 99.49 64.94 99.49 67.36Z" fill="white"/>
</g>
<defs>
<clipPath id="clip0_494_4759">
<rect width="144.34" height="84.36" fill="white"/>
</clipPath>
</defs>
</svg>
