<svg width="112" height="152" viewBox="0 0 112 152" fill="none" xmlns="http://www.w3.org/2000/svg">
<path d="M55.71 101.68C83.7882 101.68 106.55 78.9182 106.55 50.84C106.55 22.7618 83.7882 0 55.71 0C27.6318 0 4.87 22.7618 4.87 50.84C4.87 78.9182 27.6318 101.68 55.71 101.68Z" fill="#6D6D6D"/>
<path d="M92.9701 72.7C85.3201 85.73 71.0201 94.39 54.7201 94.03C32.3201 93.53 13.7801 75.6 12.5801 53.24C12.3501 49.03 12.7301 44.93 13.6301 41.03C14.0501 39.24 15.8901 38.17 17.6401 38.73C19.2201 39.23 20.1001 40.87 19.7301 42.48C18.9001 46.03 18.5901 49.79 18.8801 53.63C20.2101 71.85 35.0401 86.53 53.2701 87.71C67.8301 88.65 80.7601 81.1 87.5701 69.54C88.4101 68.12 90.1701 67.55 91.6601 68.27C93.3201 69.07 93.9201 71.12 92.9801 72.71L92.9701 72.7Z" fill="#494949"/>
<path d="M87.75 27.02C86.45 27.98 84.61 27.82 83.55 26.6C76.78 18.83 66.8 13.9 55.71 13.9C44.62 13.9 34.43 18.93 27.65 26.84C26.6 28.07 24.75 28.25 23.44 27.29C21.99 26.23 21.7 24.14 22.87 22.78C30.79 13.51 42.56 7.64001 55.71 7.64001C68.86 7.64001 80.3 13.35 88.21 22.39C89.43 23.78 89.24 25.91 87.75 27.01V27.02Z" fill="#494949"/>
<path d="M98.9 50.84C98.9 53.74 98.61 56.58 98.07 59.32C97.73 61.05 95.95 62.1 94.25 61.63C94.23 61.63 94.21 61.62 94.19 61.61C92.63 61.18 91.63 59.62 91.94 58.04C92.4 55.71 92.65 53.3 92.65 50.84C92.65 47.97 92.32 45.18 91.7 42.5C91.33 40.89 92.22 39.27 93.79 38.77C95.55 38.21 97.38 39.3 97.8 41.09C98.52 44.22 98.91 47.49 98.91 50.84H98.9Z" fill="#494949"/>
<path d="M55.71 75.79C41.96 75.79 30.77 64.6 30.77 50.85C30.77 37.1 41.96 25.91 55.71 25.91C69.46 25.91 80.65 37.1 80.65 50.85C80.65 64.6 69.46 75.79 55.71 75.79Z" fill="#494949"/>
<path d="M55.71 69.79C45.26 69.79 36.77 61.29 36.77 50.84C36.77 40.39 45.27 31.9 55.71 31.9C66.15 31.9 74.65 40.4 74.65 50.84C74.65 61.28 66.15 69.79 55.71 69.79Z" fill="#6D6D6D"/>
<path d="M106.55 85.84H4.87V146.71H106.55V85.84Z" fill="#00A4FF"/>
<path d="M107.94 80.62H3.48C1.55805 80.62 0 82.178 0 84.1C0 86.0219 1.55805 87.58 3.48 87.58H107.94C109.862 87.58 111.42 86.0219 111.42 84.1C111.42 82.178 109.862 80.62 107.94 80.62Z" fill="#9E9E9E"/>
<path d="M107.94 144.97H3.48C1.55805 144.97 0 146.528 0 148.45C0 150.372 1.55805 151.93 3.48 151.93H107.94C109.862 151.93 111.42 150.372 111.42 148.45C111.42 146.528 109.862 144.97 107.94 144.97Z" fill="#9E9E9E"/>
<path d="M39.16 109L27.9 104.29C26.1 103.54 24.12 104.86 24.12 106.81V125.74C24.12 127.69 26.1 129.01 27.9 128.26L39.16 123.55C49.07 129.55 89.34 139.47 89.34 116.28C89.34 93.09 49.07 103 39.16 109ZM74.99 120.19C72.83 120.19 71.07 118.44 71.07 116.28C71.07 114.12 72.83 112.36 74.99 112.36C77.15 112.36 78.9 114.11 78.9 116.28C78.9 118.45 77.15 120.19 74.99 120.19Z" fill="white"/>
</svg>
