<svg width="124" height="180" viewBox="0 0 124 180" fill="none" xmlns="http://www.w3.org/2000/svg">
<path d="M123.16 50.52V173.29C123.16 176.47 120.59 179.04 117.41 179.04H5.75C2.58 179.04 0 176.47 0 173.29V50.52C0 46.99 0.93 43.52 2.71 40.47L18.64 13.04H104.52L120.45 40.47C122.22 43.52 123.16 46.99 123.16 50.52Z" fill="#F9BB5A"/>
<path d="M21.47 0H101.7C103.26 0 104.53 1.27 104.53 2.83V13.05H18.64V2.83C18.64 1.27 19.91 0 21.47 0Z" fill="#D69238"/>
<path d="M61.58 143.7C87.7749 143.7 109.01 122.465 109.01 96.27C109.01 70.0752 87.7749 48.84 61.58 48.84C35.3852 48.84 14.15 70.0752 14.15 96.27C14.15 122.465 35.3852 143.7 61.58 143.7Z" fill="white"/>
<path d="M75.22 120.08C66.07 123.38 56.92 123.38 47.78 120.08C44.22 118.8 41.86 115.39 41.86 111.61C41.86 106.63 45.89 102.6 50.87 102.6C50.87 87.4 72.13 86.76 72.13 102.6C77.11 102.6 81.14 106.63 81.14 111.61C81.14 115.39 78.78 118.8 75.22 120.08Z" fill="#5E5953"/>
<path d="M41.1822 98.2159C44.0023 95.9151 43.8204 91.0249 40.7759 87.2933C37.7315 83.5618 32.9774 82.402 30.1573 84.7028C27.3373 87.0035 27.5192 91.8937 30.5636 95.6253C33.6081 99.3568 38.3622 100.517 41.1822 98.2159Z" fill="#5E5953"/>
<path d="M52.9223 85.8168C56.42 84.8105 58.1761 80.2429 56.8446 75.6147C55.5131 70.9865 51.5983 68.0503 48.1006 69.0566C44.6029 70.0628 42.8468 74.6304 44.1783 79.2586C45.5098 83.8868 49.4246 86.823 52.9223 85.8168Z" fill="#5E5953"/>
<path d="M92.5928 95.6072C95.6373 91.8756 95.8192 86.9855 92.9991 84.6847C90.1791 82.3839 85.425 83.5437 82.3805 87.2752C79.3361 91.0068 79.1541 95.897 81.9742 98.1978C84.7942 100.499 89.5484 99.3387 92.5928 95.6072Z" fill="#5E5953"/>
<path d="M78.9834 79.2645C80.3149 74.6363 78.5588 70.0687 75.0611 69.0624C71.5634 68.0562 67.6486 70.9924 66.3171 75.6206C64.9856 80.2488 66.7417 84.8164 70.2394 85.8227C73.7371 86.8289 77.6519 83.8927 78.9834 79.2645Z" fill="#5E5953"/>
<path d="M96.98 154.29H26.01C25.1871 154.29 24.52 154.955 24.52 155.775C24.52 156.595 25.1871 157.26 26.01 157.26H96.98C97.8029 157.26 98.47 156.595 98.47 155.775C98.47 154.955 97.8029 154.29 96.98 154.29Z" fill="white"/>
<path d="M96.98 163.29H26.01C25.1871 163.29 24.52 163.955 24.52 164.775C24.52 165.595 25.1871 166.26 26.01 166.26H96.98C97.8029 166.26 98.47 165.595 98.47 164.775C98.47 163.955 97.8029 163.29 96.98 163.29Z" fill="white"/>
</svg>
