<svg width="64" height="69" viewBox="0 0 64 69" fill="none" xmlns="http://www.w3.org/2000/svg">
<path d="M46.2138 3.82154C61.337 12.0868 66.9182 31.1303 58.6621 46.2653C57.371 48.629 55.8175 50.7661 54.0583 52.6457L63.1065 63.9801L56.9183 68.929L47.9473 57.6924C38.6625 63.5527 26.5639 64.3561 16.2657 58.7275C1.14244 50.4622 -4.43876 31.4187 3.81729 16.2838C12.0733 1.1437 31.0957 -4.4437 46.2138 3.82154ZM42.4175 10.7788C31.1317 4.60944 16.9292 8.78069 10.7668 20.0842C4.60432 31.3827 8.77091 45.6009 20.0619 51.7703C31.3477 57.9396 45.5502 53.7683 51.7127 42.4648C57.8751 31.1664 53.7085 16.9481 42.4175 10.7788Z" fill="black"/>
<path d="M42.5679 10.5758C53.8537 16.7451 58.0254 30.9582 51.863 42.2618C45.7005 53.5602 31.5032 57.7366 20.2122 51.5673C8.92637 45.398 4.75464 31.1848 10.9171 19.8813C17.0796 8.58286 31.2769 4.40646 42.5679 10.5758Z" fill="white"/>
<path d="M42.8282 33.575C42.8282 40.0971 37.511 45.3821 30.9539 45.3821C24.3968 45.3821 19.0796 40.095 19.0796 33.575C19.0796 26.1267 27.0051 18.4207 29.9067 15.8485C30.5042 15.3183 31.4057 15.3161 32.0075 15.8442C34.9134 18.3994 42.8303 26.0521 42.8303 33.575H42.8282Z" fill="#FFC51F"/>
<path d="M38.3907 30.0422C38.0909 30.0422 37.804 29.8697 37.6755 29.5801C36.9966 28.0704 35.9495 26.4756 34.564 24.8402C34.2856 24.5102 34.3284 24.0205 34.6582 23.7415C34.9901 23.4647 35.4826 23.5073 35.7632 23.8352C37.2429 25.5813 38.3672 27.3017 39.106 28.9435C39.2816 29.3374 39.106 29.7973 38.7098 29.9719C38.607 30.0188 38.4978 30.04 38.3907 30.04V30.0422Z" fill="white"/>
<path d="M37.9455 38.5467C37.7678 38.5467 37.5879 38.4871 37.4401 38.3636C37.1082 38.0868 37.0675 37.5949 37.3459 37.2649C38.1126 36.3599 38.4595 34.8715 38.5216 34.4201C38.5794 33.9943 38.9734 33.694 39.4039 33.7536C39.8321 33.8111 40.1341 34.2051 40.0741 34.6309C39.9713 35.3868 39.5195 37.1201 38.5451 38.2699C38.3909 38.453 38.1682 38.5467 37.9455 38.5467Z" fill="white"/>
</svg>
