<svg width="123" height="131" viewBox="0 0 123 131" fill="none" xmlns="http://www.w3.org/2000/svg">
<g clip-path="url(#clip0_494_4754)">
<path d="M61.28 130.08C95.124 130.08 122.56 102.644 122.56 68.8C122.56 34.956 95.124 7.52002 61.28 7.52002C27.436 7.52002 0 34.956 0 68.8C0 102.644 27.436 130.08 61.28 130.08Z" fill="#FFBE00"/>
<path d="M49.6 61.73C53.17 80.34 47.26 85.42 34.51 85.42C21.76 85.42 15.85 80.34 19.42 61.73C21.84 49.09 28.32 41.48 34.51 41.48C40.7 41.48 47.18 49.09 49.6 61.73Z" fill="white"/>
<path d="M41.49 51.72C40.92 52.95 39.68 53.81 38.24 53.81C36.26 53.81 34.65 52.21 34.65 50.24C34.65 49.08 35.21 48.06 36.07 47.41C35.56 47.29 35.04 47.22 34.51 47.22C29.67 47.22 25.75 52.29 25.75 58.54C25.75 64.79 29.67 69.86 34.51 69.86C39.35 69.86 43.27 64.79 43.27 58.54C43.27 55.98 42.6 53.62 41.49 51.72Z" fill="black"/>
<path d="M73.97 61.73C70.4 80.34 76.31 85.42 89.06 85.42C101.81 85.42 107.72 80.34 104.15 61.73C101.73 49.09 95.25 41.48 89.06 41.48C82.87 41.48 76.39 49.09 73.97 61.73Z" fill="white"/>
<path d="M82.08 51.72C82.65 52.95 83.89 53.81 85.33 53.81C87.31 53.81 88.92 52.21 88.92 50.24C88.92 49.08 88.36 48.06 87.5 47.41C88.01 47.29 88.53 47.22 89.06 47.22C93.9 47.22 97.82 52.29 97.82 58.54C97.82 64.79 93.9 69.86 89.06 69.86C84.22 69.86 80.3 64.79 80.3 58.54C80.3 55.98 80.97 53.62 82.08 51.72Z" fill="black"/>
<path d="M59.88 107.24L45.97 93.3301C44.79 92.1501 44.98 90.1801 46.37 89.2501L54.81 83.6101C59.01 80.8001 64.49 80.8001 68.7 83.6101L77.14 89.2501C78.53 90.1801 78.73 92.1501 77.54 93.3301L63.63 107.24C62.59 108.28 60.91 108.28 59.88 107.24Z" fill="#E49031"/>
<path d="M77.9801 92.7301C78.0401 92.6301 78.0901 92.5201 78.1301 92.4201C78.1601 92.3501 78.1801 92.2801 78.2001 92.2101C78.2301 92.1201 78.2401 92.0301 78.2601 91.9401C78.2801 91.8501 78.3001 91.7701 78.3001 91.6801C78.3001 91.6401 78.3001 91.6001 78.3001 91.5601C78.3101 91.1501 78.2401 90.7401 78.0601 90.3601C78.0601 90.3601 78.0601 90.34 78.0501 90.34C77.9901 90.21 77.9101 90.0701 77.8301 89.9501L62.8301 98.5201C62.1801 98.8901 61.3701 98.8901 60.7201 98.5201L45.6901 89.9301C45.6001 90.0601 45.5201 90.1901 45.4601 90.3301C45.2801 90.7101 45.2001 91.1301 45.2101 91.5501C45.2101 91.5901 45.2101 91.6301 45.2101 91.6801C45.2101 91.7701 45.2401 91.8601 45.2501 91.9501C45.2701 92.0401 45.2801 92.1301 45.3101 92.2101C45.3301 92.2801 45.3601 92.3601 45.3801 92.4301C45.4201 92.5401 45.4701 92.6401 45.5301 92.7401C45.5601 92.7901 45.5901 92.8501 45.6201 92.9001C45.7201 93.0501 45.8301 93.2001 45.9701 93.3301L59.8801 107.24C60.9201 108.28 62.6001 108.28 63.6301 107.24L77.5401 93.3301C77.6701 93.2001 77.7901 93.0501 77.8901 92.9001C77.9201 92.8501 77.9501 92.7901 77.9801 92.7401V92.7301Z" fill="#C47526"/>
<path d="M49.5301 8.77001L38.6501 19.31L33.3101 10.39C31.9101 8.06001 32.4801 5.05001 34.6401 3.39001C36.4401 2.01001 38.9101 1.91001 40.8201 3.14001L49.5301 8.77001Z" fill="#FFBE00"/>
<path d="M72.13 11.93L56.57 18.59L50.53 9.41003C48.78 6.75003 49.38 3.19003 51.91 1.25003C54.16 -0.479971 57.31 -0.419971 59.49 1.40003L72.13 11.92V11.93Z" fill="#FFBE00"/>
</g>
<defs>
<clipPath id="clip0_494_4754">
<rect width="122.56" height="130.08" fill="white"/>
</clipPath>
</defs>
</svg>
