<svg width="123" height="134" viewBox="0 0 123 134" fill="none" xmlns="http://www.w3.org/2000/svg">
<g clip-path="url(#clip0_494_4751)">
<path d="M61.28 133.67C95.124 133.67 122.56 106.234 122.56 72.39C122.56 38.546 95.124 11.11 61.28 11.11C27.436 11.11 0 38.546 0 72.39C0 106.234 27.436 133.67 61.28 133.67Z" fill="#AAAAAA"/>
<path d="M42.44 14.07L12.68 0.460021C9.16 -1.14998 5.25 1.79002 5.82 5.62002L10.63 37.9C18.22 26.78 29.37 18.3 42.44 14.08V14.07Z" fill="#AAAAAA"/>
<path d="M111.94 37.91C111.94 37.91 111.91 37.87 111.9 37.85L116.7 5.61001C117.27 1.78001 113.36 -1.15999 109.84 0.450011L80.09 14.06C93.18 18.28 104.34 26.77 111.94 37.9V37.91Z" fill="#AAAAAA"/>
<path d="M66.22 56.29C62.65 74.9 68.56 79.98 81.31 79.98C94.06 79.98 99.97 74.9 96.4 56.29C93.98 43.65 87.5 36.04 81.31 36.04C75.12 36.04 68.64 43.65 66.22 56.29Z" fill="white"/>
<path d="M56.39 56.29C59.96 74.9 54.05 79.98 41.3 79.98C28.55 79.98 22.64 74.9 26.21 56.29C28.63 43.65 35.11 36.04 41.3 36.04C47.49 36.04 53.97 43.65 56.39 56.29Z" fill="white"/>
<path d="M81.3 41.77C80.8 41.77 80.32 41.84 79.85 41.94C80.73 42.59 81.3 43.62 81.3 44.8C81.3 46.77 79.69 48.37 77.71 48.37C76.21 48.37 74.93 47.45 74.39 46.14C73.23 48.06 72.53 50.47 72.53 53.09C72.53 59.34 76.45 64.41 81.29 64.41C86.13 64.41 90.05 59.34 90.05 53.09C90.05 46.84 86.13 41.77 81.29 41.77H81.3Z" fill="black"/>
<path d="M48.28 46.28C47.71 47.51 46.47 48.37 45.03 48.37C43.05 48.37 41.44 46.77 41.44 44.8C41.44 43.64 42 42.62 42.86 41.97C42.35 41.85 41.83 41.78 41.3 41.78C36.46 41.78 32.54 46.85 32.54 53.1C32.54 59.35 36.46 64.42 41.3 64.42C46.14 64.42 50.06 59.35 50.06 53.1C50.06 50.54 49.39 48.18 48.28 46.28Z" fill="black"/>
<path d="M105.79 30.3L108.89 9.49997C108.94 9.14997 108.59 8.87997 108.26 9.02997L89.1 17.8C95.36 21 101 25.24 105.79 30.3Z" fill="#FFE6DC"/>
<path d="M33.45 17.82L14.24 9.02997C13.92 8.87997 13.56 9.14997 13.61 9.49997L16.72 30.38C21.51 25.29 27.17 21.03 33.45 17.82Z" fill="#FFE6DC"/>
<path d="M50.65 27.15C49.69 27.15 48.92 26.37 48.92 25.42V12.92C48.92 11.96 49.7 11.19 50.65 11.19C51.6 11.19 52.38 11.97 52.38 12.92V25.42C52.38 26.38 51.6 27.15 50.65 27.15Z" fill="black"/>
<path d="M71.9101 27.15C70.9501 27.15 70.1801 26.37 70.1801 25.42V12.92C70.1801 11.96 70.9601 11.19 71.9101 11.19C72.8601 11.19 73.6401 11.97 73.6401 12.92V25.42C73.6401 26.38 72.8601 27.15 71.9101 27.15Z" fill="black"/>
<path d="M61.28 33.44C60.32 33.44 59.55 32.66 59.55 31.71V12C59.55 11.04 60.33 10.27 61.28 10.27C62.23 10.27 63.01 11.05 63.01 12V31.71C63.01 32.67 62.23 33.44 61.28 33.44Z" fill="black"/>
<path d="M61.31 83.48C67.4403 83.48 72.41 78.5104 72.41 72.38C72.41 66.2497 67.4403 61.28 61.31 61.28C55.1796 61.28 50.21 66.2497 50.21 72.38C50.21 78.5104 55.1796 83.48 61.31 83.48Z" fill="black"/>
<path d="M52.01 95.65C46.41 95.65 40.79 92.36 39.61 88.1C39.35 87.17 39.9 86.2 40.83 85.95C41.76 85.69 42.65 86.26 42.98 87.17C44.14 90.37 49.21 92.73 53.4 92.06C56.21 91.61 59.58 89.89 59.55 83.65C59.55 82.68 60.33 81.89 61.3 81.89C62.26 81.89 63.05 82.67 63.05 83.63C63.17 91.03 58.61 95.72 52.01 95.65Z" fill="black"/>
<path d="M70.6 95.65C76.2 95.65 81.8201 92.36 83.0001 88.1C83.2601 87.17 82.7101 86.2 81.7801 85.95C80.8501 85.69 79.96 86.26 79.63 87.17C78.47 90.37 73.4001 92.73 69.2101 92.06C66.4001 91.61 63.0301 89.89 63.0601 83.65C63.0601 82.68 62.2801 81.89 61.3101 81.89C60.3501 81.89 59.5601 82.67 59.5601 83.63C59.4401 91.03 64.0001 95.72 70.6 95.65Z" fill="black"/>
</g>
<defs>
<clipPath id="clip0_494_4751">
<rect width="122.56" height="133.67" fill="white"/>
</clipPath>
</defs>
</svg>
