<svg width="151" height="134" viewBox="0 0 151 134" fill="none" xmlns="http://www.w3.org/2000/svg">
<g clip-path="url(#clip0_494_4750)">
<path d="M2.34002 43.15C4.76003 44.93 8.14002 44.57 10.11 42.3L15.07 36.61L20.44 43.29L57.12 13.28L34.57 0.789992C30.77 -1.20001 25.11 0.689992 22.07 5.00999L1.04003 35.21C-0.739975 37.77 -0.169975 41.29 2.35002 43.14L2.34002 43.15Z" fill="#6F4E37"/>
<path d="M20.86 29L29.91 16.49C31.15 14.74 33.53 14.23 35.37 15.32L48.06 22.79L31.78 41.14L20.86 29Z" fill="#FFE6DC"/>
<path d="M148.13 43.15C145.71 44.93 142.33 44.57 140.36 42.3L135.4 36.61L130.03 43.29L93.35 13.29L115.9 0.789992C119.7 -1.20001 125.36 0.689992 128.4 5.00999L149.44 35.21C151.22 37.77 150.65 41.29 148.13 43.14V43.15Z" fill="#6F4E37"/>
<path d="M129.61 29L120.56 16.49C119.32 14.74 116.94 14.23 115.1 15.32L102.41 22.79L118.69 41.14L129.61 29Z" fill="#FFE6DC"/>
<path d="M75.2101 133.04C109.054 133.04 136.49 105.604 136.49 71.76C136.49 37.916 109.054 10.48 75.2101 10.48C41.366 10.48 13.9301 37.916 13.9301 71.76C13.9301 105.604 41.366 133.04 75.2101 133.04Z" fill="#AF9279"/>
<path d="M119.86 62.93C118.79 79.05 111.3 83.29 96.9901 83.8C83.6501 84.27 78.1901 78.35 76.0301 63.78C74.1301 50.91 80.6901 31.48 93.6401 29.67C108.8 27.55 121 45.8 119.86 62.93Z" fill="#6F4E37"/>
<path d="M80.1501 55.66C76.5801 74.27 82.4901 79.35 95.2401 79.35C107.99 79.35 113.9 74.27 110.33 55.66C107.91 43.02 101.43 35.41 95.2401 35.41C89.0501 35.41 82.5701 43.02 80.1501 55.66Z" fill="white"/>
<path d="M70.3201 55.66C73.8901 74.27 67.9801 79.35 55.2301 79.35C42.4801 79.35 36.5701 74.27 40.1401 55.66C42.5601 43.02 49.0401 35.41 55.2301 35.41C61.4201 35.41 67.9001 43.02 70.3201 55.66Z" fill="white"/>
<path d="M95.23 41.14C94.73 41.14 94.25 41.21 93.78 41.31C94.66 41.96 95.23 42.99 95.23 44.17C95.23 46.14 93.62 47.74 91.64 47.74C90.14 47.74 88.86 46.82 88.32 45.51C87.16 47.43 86.46 49.84 86.46 52.46C86.46 58.71 90.38 63.78 95.22 63.78C100.06 63.78 103.98 58.71 103.98 52.46C103.98 46.21 100.06 41.14 95.22 41.14H95.23Z" fill="black"/>
<path d="M62.21 45.65C61.64 46.88 60.4 47.74 58.96 47.74C56.98 47.74 55.37 46.14 55.37 44.17C55.37 43.01 55.93 41.99 56.79 41.34C56.28 41.22 55.76 41.15 55.23 41.15C50.39 41.15 46.47 46.22 46.47 52.47C46.47 58.72 50.39 63.79 55.23 63.79C60.07 63.79 63.99 58.72 63.99 52.47C63.99 49.91 63.32 47.55 62.21 45.65Z" fill="black"/>
<path d="M75.23 82.85C81.3604 82.85 86.33 77.8804 86.33 71.75C86.33 65.6197 81.3604 60.65 75.23 60.65C69.0997 60.65 64.13 65.6197 64.13 71.75C64.13 77.8804 69.0997 82.85 75.23 82.85Z" fill="black"/>
<path d="M76.9801 83.01V83.28C76.9801 85.77 76.4501 87.94 75.4801 89.71C75.4001 89.86 75.3201 90.01 75.2301 90.15C73.4201 93.14 70.3301 94.9 66.5001 95.01C66.3101 95.02 66.1301 95.02 65.9401 95.02C60.3401 95.02 54.7201 91.73 53.5401 87.47C53.2801 86.54 53.8301 85.58 54.7601 85.32C55.6901 85.06 56.5801 85.63 56.9101 86.54C57.9901 89.53 62.5001 91.79 66.5001 91.51C66.7801 91.5 67.0601 91.46 67.3301 91.42C68.6101 91.21 70.0001 90.75 71.1401 89.71C72.4701 88.51 73.4401 86.53 73.4801 83.28V83C73.4901 82.03 74.2701 81.25 75.2301 81.25C76.1901 81.25 76.9901 82.04 76.9801 83.01Z" fill="black"/>
<path d="M96.92 87.47C95.74 91.73 90.12 95.02 84.53 95.02C84.32 95.02 84.12 95.02 83.91 95.01C80.1 94.88 77.03 93.12 75.23 90.15C75.14 90.01 75.06 89.86 74.98 89.71C74.01 87.94 73.48 85.77 73.48 83.28V83C73.49 82.03 74.27 81.25 75.23 81.25C76.19 81.25 76.99 82.04 76.98 83.01V83.28C77.02 86.53 77.99 88.51 79.32 89.71C80.46 90.75 81.85 91.21 83.13 91.42C83.39 91.46 83.65 91.49 83.91 91.51C87.93 91.81 92.46 89.54 93.55 86.54C93.88 85.63 94.77 85.06 95.7 85.32C96.63 85.58 97.18 86.54 96.92 87.47Z" fill="black"/>
<path d="M83.91 95.01V97.6C83.91 102.41 80.01 106.31 75.21 106.31C70.41 106.31 66.5 102.41 66.5 97.6V95.01C70.33 94.9 73.42 93.14 75.23 90.15C77.03 93.12 80.1 94.88 83.91 95.01Z" fill="#FF6E79"/>
</g>
<defs>
<clipPath id="clip0_494_4750">
<rect width="150.47" height="133.04" fill="white"/>
</clipPath>
</defs>
</svg>
