<svg width="204" height="177" viewBox="0 0 204 177" fill="none" xmlns="http://www.w3.org/2000/svg">
<g clip-path="url(#clip0_494_4752)">
<path d="M101.94 0C105.31 0 108.16 1.88 108.42 4.35L114.26 60H89.61L95.45 4.35C95.71 1.89 98.56 0 101.93 0L101.94 0Z" fill="#FF7F29"/>
<path d="M71.44 152.44L58.13 164.43C55.55 166.75 56.59 171.04 59.95 171.89C63.81 172.86 67.54 174.07 70.75 175.85C72.64 176.9 75.02 176.15 75.9 174.17C79.77 165.47 80.92 158.68 79.73 153.54L71.44 152.44Z" fill="#FF7F29"/>
<path d="M45.32 109.99L9.94997 100.83C3.08997 99.06 -2.13003 106.17 0.869969 113.26C4.30997 121.38 7.24997 129.56 8.61997 137.49C9.42997 142.17 13.63 145.53 17.78 144.68C36.03 140.94 47.91 134.68 54.26 126.22L45.33 109.99H45.32Z" fill="#FF7F29"/>
<path d="M132.5 152.44L145.81 164.43C148.39 166.75 147.35 171.04 143.99 171.89C140.13 172.86 136.4 174.07 133.19 175.85C131.3 176.9 128.92 176.15 128.04 174.17C124.17 165.47 123.02 158.68 124.21 153.54L132.5 152.44Z" fill="#FF7F29"/>
<path d="M158.62 109.99L193.99 100.83C200.85 99.06 206.07 106.17 203.07 113.26C199.63 121.38 196.69 129.56 195.32 137.49C194.51 142.17 190.31 145.53 186.16 144.68C167.91 140.94 156.03 134.68 149.68 126.22L158.61 109.99H158.62Z" fill="#FF7F29"/>
<path d="M176.81 125.01C169.88 123.98 162.32 122.59 154.45 118.94" stroke="#BC5E1E" stroke-width="3.5" stroke-miterlimit="10" stroke-linecap="round"/>
<path d="M27.13 125.01C34.06 123.98 41.62 122.59 49.49 118.94" stroke="#BC5E1E" stroke-width="3.5" stroke-miterlimit="10" stroke-linecap="round"/>
<path d="M101.94 162.21C135.784 162.21 163.22 134.774 163.22 100.93C163.22 67.086 135.784 39.65 101.94 39.65C68.0959 39.65 40.6599 67.086 40.6599 100.93C40.6599 134.774 68.0959 162.21 101.94 162.21Z" fill="#FFA15A"/>
<path d="M157.35 127.12C140.93 119.5 122.47 117.63 101.97 117.56C81.4499 117.63 62.9799 119.5 46.5499 127.14C56.3799 147.87 77.4799 162.21 101.95 162.21C126.42 162.21 147.54 147.86 157.36 127.12H157.35Z" fill="#FFDCC5"/>
<path d="M83.53 93.71C87.1 112.32 81.19 117.4 68.44 117.4C55.69 117.4 49.78 112.32 53.35 93.71C55.77 81.07 62.25 73.46 68.44 73.46C74.63 73.46 81.11 81.07 83.53 93.71Z" fill="white"/>
<path d="M75.4099 83.69C74.8399 84.92 73.5999 85.78 72.1599 85.78C70.1799 85.78 68.5699 84.18 68.5699 82.21C68.5699 81.05 69.1299 80.03 69.9899 79.38C69.4799 79.26 68.9599 79.19 68.4299 79.19C63.5899 79.19 59.6699 84.26 59.6699 90.51C59.6699 96.76 63.5899 101.83 68.4299 101.83C73.2699 101.83 77.1899 96.76 77.1899 90.51C77.1899 87.95 76.5199 85.59 75.4099 83.69Z" fill="black"/>
<path d="M120.41 93.71C116.84 112.32 122.75 117.4 135.5 117.4C148.25 117.4 154.16 112.32 150.59 93.71C148.17 81.07 141.69 73.46 135.5 73.46C129.31 73.46 122.83 81.07 120.41 93.71Z" fill="white"/>
<path d="M126.75 90.51C126.75 96.76 130.67 101.83 135.51 101.83C140.35 101.83 144.27 96.76 144.27 90.51C144.27 84.26 140.35 79.19 135.51 79.19C134.98 79.19 134.46 79.26 133.95 79.38C134.81 80.03 135.37 81.05 135.37 82.21C135.37 84.18 133.76 85.78 131.78 85.78C130.34 85.78 129.1 84.92 128.53 83.69C127.42 85.59 126.75 87.95 126.75 90.51Z" fill="black"/>
<path d="M112.27 120.45C111.41 120 110.36 120.33 109.91 121.18C108.32 124.19 105.27 126.1 101.97 126.27C98.67 126.1 95.62 124.2 94.03 121.18C93.58 120.33 92.53 120 91.67 120.45C90.82 120.9 90.49 121.96 90.94 122.81C93.12 126.97 97.35 129.6 101.95 129.77C101.95 129.77 101.96 129.77 101.97 129.77C101.97 129.77 101.98 129.77 101.99 129.77C106.58 129.6 110.82 126.97 113 122.81C113.45 121.96 113.12 120.9 112.27 120.45Z" fill="black"/>
</g>
<defs>
<clipPath id="clip0_494_4752">
<rect width="203.94" height="176.32" fill="white"/>
</clipPath>
</defs>
</svg>
