<svg width="166" height="219" viewBox="0 0 166 219" fill="none" xmlns="http://www.w3.org/2000/svg">
<g clip-path="url(#clip0_494_4753)">
<path d="M47.17 103.32L18.87 114.43C8.98004 88.27 3.16004 50.98 0.110042 21.68C-0.929958 11.75 5.62004 2.62 15.37 0.470002C26.28 -1.94 36.95 5.25 38.9 16.25C42.5 36.59 44.95 73.98 47.16 103.33L47.17 103.32Z" fill="#DFC19E"/>
<path d="M24.1999 115.97C14.8499 88.11 9.96991 50.95 7.82991 30.45C7.10991 23.55 11.6599 17.21 18.4199 15.72C19.3999 15.5 20.3899 15.39 21.3699 15.39C27.9599 15.39 33.5899 20.14 34.7499 26.68C37.8299 44.06 40.0799 74.47 42.0599 101.29C42.2499 103.81 42.4299 106.3 42.6099 108.75L24.1999 115.98V115.97Z" fill="#FFEEDC"/>
<path d="M110.32 49.55C116.84 40.05 129.83 37.69 139.29 44.26C144.13 47.62 148.93 51.11 153.68 54.72C154.96 55.7 156.24 56.68 157.52 57.67C165.39 63.8 167.44 74.85 162.25 83.37C158.55 89.45 152.1 92.76 145.51 92.76C141.75 92.76 137.94 91.68 134.57 89.43C133.41 88.65 132.23 87.84 131.02 87.01C122.6 97.8 113.17 109.34 103.49 121.09L75.3799 109.51C87.1399 87.28 98.8399 66.27 110.31 49.54L110.32 49.55Z" fill="#DFC19E"/>
<path d="M126.43 83.16L126.3 83.33C118.61 93.19 110.01 103.74 101.69 113.86L86.6101 109.35C91.5701 100.06 97.9001 90.33 104.07 80.6C107.08 75.86 113.39 74.51 118.07 77.62L126.43 83.16Z" fill="#FFEEDC"/>
<path d="M61.28 218.72C95.124 218.72 122.56 191.284 122.56 157.44C122.56 123.596 95.124 96.16 61.28 96.16C27.436 96.16 0 123.596 0 157.44C0 191.284 27.436 218.72 61.28 218.72Z" fill="#DFC19E"/>
<path d="M66.22 141.34C62.65 159.95 68.56 165.03 81.31 165.03C94.06 165.03 99.97 159.95 96.4 141.34C93.98 128.7 87.5 121.09 81.31 121.09C75.12 121.09 68.64 128.7 66.22 141.34Z" fill="white"/>
<path d="M56.39 141.34C59.96 159.95 54.05 165.03 41.3 165.03C28.55 165.03 22.64 159.95 26.21 141.34C28.63 128.7 35.11 121.09 41.3 121.09C47.49 121.09 53.97 128.7 56.39 141.34Z" fill="white"/>
<path d="M81.3 126.82C80.8 126.82 80.32 126.89 79.85 126.99C80.73 127.64 81.3 128.67 81.3 129.85C81.3 131.82 79.69 133.42 77.71 133.42C76.21 133.42 74.93 132.5 74.39 131.19C73.23 133.11 72.53 135.52 72.53 138.14C72.53 144.39 76.45 149.46 81.29 149.46C86.13 149.46 90.05 144.39 90.05 138.14C90.05 131.89 86.13 126.82 81.29 126.82H81.3Z" fill="black"/>
<path d="M48.28 131.33C47.71 132.56 46.47 133.42 45.03 133.42C43.05 133.42 41.44 131.82 41.44 129.85C41.44 128.69 42 127.67 42.86 127.02C42.35 126.9 41.83 126.83 41.3 126.83C36.46 126.83 32.54 131.9 32.54 138.15C32.54 144.4 36.46 149.47 41.3 149.47C46.14 149.47 50.06 144.4 50.06 138.15C50.06 135.59 49.39 133.23 48.28 131.33Z" fill="black"/>
<path d="M52.0099 180.7C46.4099 180.7 40.7899 177.41 39.6099 173.15C39.3499 172.22 39.8999 171.25 40.8299 171C41.7599 170.74 42.6499 171.31 42.9799 172.22C44.1399 175.42 49.2099 177.78 53.3999 177.11C56.2099 176.66 59.5799 174.94 59.5499 168.7C59.5499 167.73 60.3299 166.94 61.2999 166.94C62.2599 166.94 63.0499 167.72 63.0499 168.68C63.1699 176.08 58.6099 180.77 52.0099 180.7Z" fill="black"/>
<path d="M70.5999 180.7C76.1999 180.7 81.8199 177.41 82.9999 173.15C83.2599 172.22 82.7099 171.25 81.7799 171C80.8499 170.74 79.9599 171.31 79.6299 172.22C78.4699 175.42 73.3999 177.78 69.2099 177.11C66.3999 176.66 63.0299 174.94 63.0599 168.7C63.0599 167.73 62.2799 166.94 61.3099 166.94C60.3499 166.94 59.5599 167.72 59.5599 168.68C59.4399 176.08 63.9999 180.77 70.5999 180.7Z" fill="black"/>
<path d="M61.31 168.53C67.4403 168.53 72.41 163.56 72.41 157.43C72.41 151.3 67.4403 146.33 61.31 146.33C55.1796 146.33 50.21 151.3 50.21 157.43C50.21 163.56 55.1796 168.53 61.31 168.53Z" fill="#FF6E79"/>
</g>
<defs>
<clipPath id="clip0_494_4753">
<rect width="165.12" height="218.72" fill="white"/>
</clipPath>
</defs>
</svg>
