<svg width="59" height="98" viewBox="0 0 59 98" fill="none" xmlns="http://www.w3.org/2000/svg">
<g clip-path="url(#clip0_490_4656)">
<path d="M6.34429 0.242167C5.52767 0.242167 4.85047 0.884551 4.76084 1.71047C1.21551 37.6636 -1.42357 72.0566 1.15576 95.4883C1.25534 96.406 2.00225 97.0994 2.9085 97.13H24.8278C25.8834 97.1708 26.7399 96.2735 26.7001 95.2028C26.0029 74.8811 27.1084 54.9774 29.0105 23.5923C31.062 54.9672 32.3965 74.8811 31.799 95.213C31.7691 96.2939 32.6255 97.1708 33.6812 97.13H55.4312C56.3275 97.0994 57.0744 96.3958 57.174 95.4782C59.6437 72.026 56.925 37.531 53.2104 1.58811C53.1207 0.762192 52.4336 0.130005 51.6169 0.130005L6.34429 0.242167Z" fill="#36546B"/>
</g>
<defs>
<clipPath id="clip0_490_4656">
<rect width="58" height="97" fill="white" transform="translate(0.119995 0.130005)"/>
</clipPath>
</defs>
</svg>
