<svg width="60" height="14" viewBox="0 0 60 14" fill="none" xmlns="http://www.w3.org/2000/svg">
<path d="M36.9884 13.0107C36.2204 13.0107 35.4934 12.6911 34.9609 12.1342C34.4182 11.5773 34.1315 10.8451 34.1417 10.0717L34.2237 2.01771C34.2237 1.24428 34.8585 0.625549 35.6265 0.625549C37.398 1.32679 39.2513 1.67742 41.1354 1.67742C42.7328 1.67742 44.4121 1.4196 46.1119 0.924602C46.3474 0.852415 46.5829 0.821488 46.8184 0.821488C47.228 0.821488 47.6069 0.934921 47.9038 1.14117C47.996 1.20304 48.0882 1.27522 48.1701 1.35772L57.7851 8.29798C58.0616 8.50423 58.2971 8.76204 58.4609 9.07141L58.8705 9.84484C59.2596 10.5667 59.2391 11.4123 58.8295 12.1136C58.4097 12.8148 57.6827 13.2376 56.8738 13.2376L36.9884 13.0314V13.0107Z" fill="black"/>
<path d="M2.4265 12.9534C1.60733 12.9534 0.870079 12.5306 0.460493 11.819C0.0509066 11.1075 0.0304266 10.2619 0.429773 9.54001L0.8496 8.77689C1.01343 8.47783 1.24895 8.20972 1.53566 8.01378L11.2224 1.17665C11.3043 1.09415 11.3964 1.03227 11.4886 0.960084C11.7855 0.753836 12.1542 0.650724 12.5535 0.650724C12.7993 0.650724 13.045 0.691959 13.2908 0.764146C15.0418 1.30039 16.7723 1.57883 18.4208 1.57883C20.2537 1.57883 22.0457 1.24883 23.7659 0.588837C24.5339 0.588837 25.1688 1.2179 25.1688 2.00165V10.0659C25.1688 11.6644 23.8786 12.974 22.2812 12.974H2.41626L2.4265 12.9534Z" fill="black"/>
</svg>
