<svg width="102" height="74" viewBox="0 0 102 74" fill="none" xmlns="http://www.w3.org/2000/svg">
<g clip-path="url(#clip0_490_4655)">
<path d="M58.5 0H43.63V8.69H58.5V0Z" fill="#4B595B"/>
<path d="M81.04 73.73H96.71C97.5494 73.73 98.23 73.0495 98.23 72.21V61.48C98.23 60.6405 97.5494 59.96 96.71 59.96H81.04C80.2005 59.96 79.52 60.6405 79.52 61.48V72.21C79.52 73.0495 80.2005 73.73 81.04 73.73Z" fill="#6B7F84"/>
<path d="M20.2599 59.97H4.58995C3.75047 59.97 3.06995 60.6505 3.06995 61.49V72.22C3.06995 73.0595 3.75047 73.74 4.58995 73.74H20.2599C21.0994 73.74 21.7799 73.0595 21.7799 72.22V61.49C21.7799 60.6505 21.0994 59.97 20.2599 59.97Z" fill="#6B7F84"/>
<path d="M3.46995 67C1.96995 67 0.699954 65.84 0.459954 64.23L0.439954 64.08C-0.670046 56.65 0.339954 49.15 3.37995 42.37L17.13 11.68C22.84 1.14 31.04 0.240003 41.99 0.230003L30.4 32.46C27.58 41.56 25.73 50.96 24.87 60.51C24.77 61.6 24.64 62.72 24.49 63.84L24.44 64.21C24.21 65.83 22.94 67.01 21.42 67.01H3.46995V67Z" fill="#6B7F84"/>
<path d="M98.2999 66.84C99.7999 66.84 101.07 65.67 101.3 64.06L101.32 63.91C102.41 56.48 101.37 48.98 98.3099 42.21L84.4499 11.57C78.7199 1.05 70.5099 0.170002 59.5599 0.200002L71.2599 32.39C74.1099 41.48 75.9899 50.88 76.8799 60.42C76.9799 61.51 77.1099 62.63 77.2699 63.75L77.3199 64.11C77.5499 65.73 78.8299 66.91 80.3499 66.9L98.2899 66.84H98.2999Z" fill="#6B7F84"/>
<path d="M26.1199 68C25.4499 68 24.9099 67.46 24.9099 66.79V17.52C24.9099 7.86 32.7699 0 42.4299 0H44.7799C44.8599 0 44.9199 0.06 44.9199 0.14C44.9199 3.25 47.3199 5.82 50.3799 5.99C50.5599 5.99 50.7399 6 50.9199 6C54.5599 6 56.9199 4.04 56.9199 1V0H59.3999C69.0599 0 76.9199 7.86 76.9199 17.52V66.79C76.9199 67.46 76.3799 68 75.7099 68H26.1199Z" fill="#7A8E91"/>
</g>
<defs>
<clipPath id="clip0_490_4655">
<rect width="101.75" height="73.73" fill="white"/>
</clipPath>
</defs>
</svg>
