<svg width="91" height="90" viewBox="0 0 91 90" fill="none" xmlns="http://www.w3.org/2000/svg">
<g clip-path="url(#clip0_490_4657)">
<path d="M45.46 0H39.02V10.6H45.46H51.89V0H45.46Z" fill="#1B5375"/>
<path d="M34.17 0.470001L21.84 26.44L6.42001 30.84C5.69001 31.05 4.93001 30.6 4.75001 29.86L0.0400077 9.82C-0.129992 9.1 0.320008 8.38 1.04001 8.21L34.17 0.470001Z" fill="#2B6C9E"/>
<path d="M56.74 0.470001L69.07 26.44L84.49 30.84C85.22 31.05 85.98 30.6 86.16 29.86L90.88 9.81C91.05 9.09 90.6 8.37 89.88 8.2L56.74 0.470001Z" fill="#2B6C9E"/>
<path d="M71.65 23.33C70.66 6.4 63.12 -0.0500017 51.76 -1.68147e-06C51.69 -1.68147e-06 51.63 0.0899983 51.63 0.179998C51.63 4.25 49.25 8.04 46.19 8.26C46.01 8.27 45.83 8.28 45.65 8.28C45.58 8.28 45.51 8.28 45.45 8.28C45.39 8.28 45.32 8.29 45.25 8.29C45.07 8.29 44.89 8.28 44.71 8.27C41.65 8.05 39.27 4.26 39.27 0.189998C39.27 0.0999983 39.21 0.00999832 39.14 0.00999832C27.78 -0.0400017 20.24 6.41 19.25 23.34L16.25 87.74C16.25 88.61 16.79 89.32 17.46 89.32H73.44C74.11 89.32 74.65 88.61 74.65 87.74L71.65 23.34V23.33Z" fill="#337AB7"/>
</g>
<defs>
<clipPath id="clip0_490_4657">
<rect width="90.91" height="89.31" fill="white"/>
</clipPath>
</defs>
</svg>
