<?xml version="1.0" encoding="UTF-8"?>
<svg id="Layer_2" data-name="Layer 2" xmlns="http://www.w3.org/2000/svg" viewBox="0 0 179.63 150.86">
  <defs>
    <style>
      .cls-1 {
        fill: #c3c3c3;
      }

      .cls-2 {
        fill: #fff;
      }

      .cls-3 {
        fill: #ccf8ff;
      }
    </style>
  </defs>
  <g id="Baby_Diaper" data-name="Baby Diaper">
    <path class="cls-1" d="M179.63,5.72v55.32c0,7-.8,13.82-2.33,20.36-7.02,30.17-29.28,54.56-58.2,64.55-9.19,3.18-19.04,4.91-29.29,4.91s-20.1-1.73-29.28-4.91C31.61,135.96,9.35,111.58,2.33,81.41h0C.8,74.86,0,68.04,0,61.04V5.72C0,2.57,2.56,0,5.71,0h168.21c3.15,0,5.71,2.57,5.71,5.72Z"/>
    <path class="cls-2" d="M179.63,5.72v55.32c0,7-.8,13.82-2.33,20.36-30.97,6.6-54.78,32.52-58.2,64.55-9.19,3.18-19.04,4.91-29.29,4.91s-20.1-1.73-29.28-4.91c-3.42-32.03-27.23-57.95-58.2-64.54h0C.8,74.86,0,68.04,0,61.04V5.72C0,2.57,2.56,0,5.71,0h168.21c3.15,0,5.71,2.57,5.71,5.72Z"/>
    <path class="cls-3" d="M128.07,40.28c.95,8,7.74,13.88,15.6,13.88.62,0,1.24-.04,1.87-.11l34.09-4.03v-31.69s-37.79,4.47-37.79,4.47c-8.63,1.03-14.79,8.85-13.77,17.48Z"/>
    <path class="cls-3" d="M51.56,40.28c-.95,8-7.74,13.88-15.6,13.88-.62,0-1.24-.04-1.87-.11L0,50.02v-31.69s37.79,4.47,37.79,4.47c8.63,1.03,14.79,8.85,13.77,17.48Z"/>
  </g>
</svg>