<?xml version="1.0" encoding="UTF-8"?>
<svg id="Layer_2" data-name="Layer 2" xmlns="http://www.w3.org/2000/svg" viewBox="0 0 91.03 187">
  <defs>
    <style>
      .cls-1 {
        fill: #ffc51c;
      }

      .cls-2 {
        fill: #ff6e3c;
      }
    </style>
  </defs>
  <g id="Bottle_03">
    <path class="cls-1" d="M28.01,0h34.52c2.34,0,4.24,1.9,4.24,4.24v24.76H23.77V4.24c0-2.34,1.9-4.24,4.24-4.24Z"/>
    <path class="cls-2" d="M84.03,170.09c-1.48,4.61-4.77,8.45-9.13,10.57-5.95,2.9-15.72,6.26-29.14,6.33-.08.01-.16.01-.25.01s-.17,0-.25-.01c-13.42-.08-23.19-3.44-29.14-6.33-4.36-2.12-7.64-5.96-9.13-10.57C.2,148.9-1.86,122.84,1.77,102c3.86-22.17,12.22-37.63,17.43-71.61.4-2.63,2.23-4.83,4.76-5.64,3.94-1.26,10.9-2.75,21.81-2.75s17.37,1.41,21.23,2.66c2.56.82,4.43,3.01,4.84,5.67,5.21,34.02,13.58,49.49,17.44,71.68,3.62,20.84,1.57,46.9-5.23,68.09Z"/>
  </g>
</svg>