<?xml version="1.0" encoding="UTF-8"?>
<svg id="Layer_2" data-name="Layer 2" xmlns="http://www.w3.org/2000/svg" viewBox="0 0 94 219">
  <defs>
    <style>
      .cls-1 {
        fill: #008c8c;
      }

      .cls-2 {
        fill: #82dcff;
      }
    </style>
  </defs>
  <g id="Bottle_01">
    <g id="Right_Bottle_01">
      <path class="cls-1" d="M20,30.85c0-1.57,1.28-2.85,2.85-2.85h10.15V2.85c0-1.57,1.28-2.85,2.85-2.85h39.15c2.21,0,4,1.79,4,4s-1.79,4-4,4h-15v20h10.15c1.57,0,2.85,1.28,2.85,2.85v17.24c-5.37-2.71-11.16-4.09-17.23-4.09h-17.54c-6.37,0-12.68,1.6-18.23,4.62v-17.77Z"/>
      <path class="cls-2" d="M26.44,219c-14.58,0-26.44-11.86-26.44-26.44v-112.56c0-23.17,17.57-37,47-37s47,13.83,47,37v112.56c0,14.58-11.86,26.44-26.44,26.44H26.44Z"/>
    </g>
  </g>
</svg>