<?xml version="1.0" encoding="UTF-8"?>
<svg id="Layer_2" data-name="Layer 2" xmlns="http://www.w3.org/2000/svg" viewBox="0 0 91 170.5">
  <defs>
    <style>
      .cls-1 {
        fill: #f1b0ff;
      }

      .cls-2 {
        fill: #ff6e78;
      }
    </style>
  </defs>
  <g id="Bottle_02">
    <path class="cls-2" d="M78.5,2.97v7.06c0,1.64-1.33,2.97-2.97,2.97h-3.03v7.02c0,1.1-.89,1.98-1.98,1.98H20.48c-1.1,0-1.98-.89-1.98-1.98v-7.02h-5.03c-1.64,0-2.97-1.33-2.97-2.97V2.97c0-1.64,1.33-2.97,2.97-2.97h62.06c1.64,0,2.97,1.33,2.97,2.97Z"/>
    <path class="cls-1" d="M0,155.4V48.68c0-6.56,3.58-12.61,9.33-15.78,7.62-4.19,11.33-6.19,12.17-10.91,0,0,6-4,24-4s24,4,24,4c1.41,4.6,5.34,6.51,12.44,10.67,5.61,3.28,9.06,9.29,9.06,15.78v106.96c0,8.34-6.76,15.1-15.1,15.1H15.1C6.76,170.5,0,163.74,0,155.4Z"/>
  </g>
</svg>