<?xml version="1.0" encoding="UTF-8"?>
<svg id="Layer_2" data-name="Layer 2" xmlns="http://www.w3.org/2000/svg" viewBox="0 0 91 170.5">
  <defs>
    <style>
      .cls-1 {
        fill: #f1b0ff;
      }

      .cls-2, .cls-3 {
        fill: #fff;
      }

      .cls-4 {
        fill: #ff6e78;
      }

      .cls-3 {
        stroke: #9b9b9b;
        stroke-linecap: round;
        stroke-miterlimit: 10;
        stroke-width: 2.25px;
      }
    </style>
  </defs>
  <g id="Bottle_02">
    <path class="cls-4" d="M78.5,2.97v7.06c0,1.64-1.33,2.97-2.97,2.97h-3.03v7.02c0,1.1-.89,1.98-1.98,1.98H20.48c-1.1,0-1.98-.89-1.98-1.98v-7.02h-5.03c-1.64,0-2.97-1.33-2.97-2.97V2.97c0-1.64,1.33-2.97,2.97-2.97h62.06c1.64,0,2.97,1.33,2.97,2.97Z"/>
    <path class="cls-1" d="M0,155.4V48.68c0-6.56,3.58-12.61,9.33-15.78,7.62-4.19,11.33-6.19,12.17-10.91,0,0,6-4,24-4s24,4,24,4c1.41,4.6,5.34,6.51,12.44,10.67,5.61,3.28,9.06,9.29,9.06,15.78v106.96c0,8.34-6.76,15.1-15.1,15.1H15.1C6.76,170.5,0,163.74,0,155.4Z"/>
    <g id="Bottle_Sticker">
      <rect class="cls-2" x="13" y="47.5" width="65" height="95" rx="4.04" ry="4.04"/>
      <g>
        <line class="cls-3" x1="19" y1="66.5" x2="71.02" y2="66.5"/>
        <line class="cls-3" x1="19" y1="77.5" x2="71.02" y2="77.5"/>
        <line class="cls-3" x1="19" y1="88.5" x2="71.02" y2="88.5"/>
      </g>
    </g>
  </g>
</svg>