<?xml version="1.0" encoding="UTF-8"?>
<svg id="Layer_2" data-name="Layer 2" xmlns="http://www.w3.org/2000/svg" viewBox="0 0 99.97 236.62">
  <defs>
    <style>
      .cls-1 {
        fill: #fcffee;
      }

      .cls-2 {
        fill: #b5dce2;
      }

      .cls-3 {
        fill: #3d2816;
      }

      .cls-4 {
        fill: #307023;
      }

      .cls-5 {
        fill: #fff;
      }

      .cls-6 {
        fill: #a6dd87;
      }

      .cls-7 {
        fill: #e2e2e2;
      }

      .cls-8 {
        fill: #b2855f;
      }

      .cls-9 {
        fill: #c2e0bd;
      }

      .cls-10 {
        fill: #9fd8e2;
      }

      .cls-11 {
        fill: #a37654;
      }

      .cls-12 {
        fill: #d2f7ff;
      }
    </style>
  </defs>
  <g id="Character_with_Face_Mask" data-name="Character with Face Mask">
    <path class="cls-8" d="M44.16,217.63v16.17c0,1.56-1.26,2.82-2.82,2.82h-20.39c-1.83,0-2.63-2.3-1.21-3.44l12.42-8.37v-7.18c0-4.14,2.69-7.51,6-7.51s6,3.37,6,7.51Z"/>
    <path class="cls-8" d="M55.81,217.63v16.17c0,1.56,1.26,2.82,2.82,2.82h20.39c1.83,0,2.63-2.3,1.21-3.44l-12.42-8.37v-7.18c0-4.14-2.69-7.51-6-7.51s-6,3.37-6,7.51Z"/>
    <g id="Mains_2" data-name="Mains 2">
      <path class="cls-8" d="M18.65,133.75v.04s0-.03,0-.04l4.02,5.06c.51.64.4,1.58-.24,2.09-.64.51-1.58.4-2.09-.24l-2.17-2.73-.52,4.54h0s-1.02,8.92-1.02,8.92c-.09.78-.76,1.34-1.5,1.26-.74-.09-1.27-.79-1.18-1.57l1.02-8.92-.63-.07-1.02,8.87c-.09.78-.76,1.34-1.5,1.26-.74-.09-1.27-.79-1.18-1.57l1.02-8.87-.63-.07-1.01,8.8c-.09.78-.76,1.34-1.5,1.26-.74-.09-1.27-.79-1.18-1.57l1.01-8.81-.63-.07-1.01,8.85c-.09.78-.76,1.34-1.51,1.26-.74-.09-1.27-.79-1.18-1.57l1.01-8.85h0s.74-6.5.74-6.5c1.19-10.4,5.63-38.95,8.01-49.01l11.87,6.46c-3.59,21.64-6.82,37.98-6.98,41.78Z"/>
      <path class="cls-8" d="M81.14,133.75v.04s0-.03,0-.04l-4.02,5.06c-.51.64-.4,1.58.24,2.09.64.51,1.58.4,2.09-.24l2.17-2.73.52,4.54h0s1.02,8.92,1.02,8.92c.09.78.76,1.34,1.5,1.26.74-.09,1.27-.79,1.18-1.57l-1.02-8.92.63-.07,1.02,8.87c.09.78.76,1.34,1.5,1.26.74-.09,1.27-.79,1.18-1.57l-1.02-8.87.63-.07,1.01,8.8c.09.78.76,1.34,1.5,1.26.74-.09,1.27-.79,1.18-1.57l-1.01-8.81.63-.07,1.01,8.85c.09.78.76,1.34,1.51,1.26.74-.09,1.27-.79,1.18-1.57l-1.01-8.85h0s-.74-6.5-.74-6.5c-1.19-10.4-5.63-38.95-8.01-49.01l-11.87,6.46c3.59,21.64,6.82,37.98,6.98,41.78Z"/>
    </g>
    <path class="cls-8" d="M33.24,41.36c-.35.28-.74.5-1.17.64-.36.11-.74.18-1.13.18-2.05,0-4.03-1.67-4.81-4.07-.45-1.36-.44-2.73-.07-3.89.42-1.32,1.31-2.35,2.55-2.76.36-.12.75-.18,1.13-.18.66,0,1.31.17,1.91.49.48.24.94.58,1.34.99-.22,1.2-.33,2.43-.33,3.7,0,1.69.2,3.34.58,4.9Z"/>
    <path class="cls-8" d="M74.45,37.87c-.76,2.42-2.74,4.11-4.81,4.11-.37,0-.74-.05-1.09-.17-.53-.17-1-.45-1.39-.82.33-1.45.5-2.97.5-4.53,0-1.25-.11-2.48-.33-3.66.35-.39.74-.73,1.16-1.01.72-.46,1.51-.72,2.32-.72.37,0,.74.06,1.1.17.24.08.47.18.69.31.8.45,1.42,1.21,1.8,2.19.49,1.25.5,2.72.05,4.13Z"/>
    <path class="cls-12" d="M26.95,134.04H2.69s3.2-50.2,11.55-61.27,19.8-10.98,19.8-10.98l-7.1,72.25Z"/>
    <path class="cls-12" d="M73.02,134.04h24.25s-3.2-50.2-11.55-61.27c-8.35-11.07-19.8-10.98-19.8-10.98l7.1,72.25Z"/>
    <path class="cls-10" d="M77.86,128.35h22.11v12.76h-22.11c-1.29,0-2.34-1.05-2.34-2.34v-8.08c0-1.29,1.05-2.34,2.34-2.34Z" transform="translate(175.48 269.46) rotate(-180)"/>
    <path class="cls-10" d="M2.34,128.35h22.11v12.76H2.34c-1.29,0-2.34-1.05-2.34-2.34v-8.08c0-1.29,1.05-2.34,2.34-2.34Z"/>
    <path class="cls-2" d="M20.83,85.52h0c-.41,0-.75.34-.75.75v46.88h1.5v-46.88c0-.41-.34-.75-.75-.75Z"/>
    <rect class="cls-2" x="79.6" y="85.52" width="1.5" height="47.63" rx=".75" ry=".75"/>
    <path class="cls-12" d="M31.87,63.04c-6.22,2.46-10.29,8.69-10.29,15.57v55.42h58.02v-55.55c0-6.87-4.06-13.08-10.26-15.56l-12.75-3.33-12,.06-12.72,3.38Z"/>
    <path class="cls-10" d="M69.15,66.19c-1.73,11.21-10.12,18.52-15.9,27.93-6.11,9.94-8.73,22.5-14.73,33h-13.08c5.69-10.55,7.57-19.12,15.81-35.88.86-1.75,1.83-3.44,2.86-5.07-5.09-3.11-11.5-11.85-12.53-16.33-2.45-13.4,12.58-16.51,12.58-16.51l12-.05c5.11.15,13.94,2.59,12.99,12.91Z"/>
    <path class="cls-11" d="M57.63,66.19c-.46.87-.95,1.73-1.47,2.57-.27.46-.55.91-.84,1.36-1.49,2.33-3.13,4.6-4.8,6.88-2.36-2.35-4.24-4.75-5.51-6.88-.33-.53-.61-1.05-.85-1.54-.43-.87-.74-1.68-.91-2.39h.91v-12.07h12v12.07h1.47Z"/>
    <path class="cls-8" d="M50.16,57.12c-10.48,0-19-9.87-19-22s8.52-22,19-22,19,9.87,19,22-8.52,22-19,22Z"/>
    <path class="cls-9" d="M67.33,32.8c-3.34-9.2-9.86-16.58-17.17-15.51-8.07,1.18-15.18,7.52-17.17,15.47-.3,1.18-.33,2.43-.33,3.7,0,1.69.2,3.34.58,4.9,1.98,8.2,8.82,14.26,16.92,14.26s15.14-6.25,17-14.63c.33-1.45.5-2.97.5-4.53,0-1.25.08-2.53-.33-3.66ZM55.13,46.85c-.85.93-1.95,1.59-3.26,1.95-.56.16-1.13.24-1.71.24s-1.16-.08-1.71-.24c-1.31-.36-2.41-1.02-3.27-1.96-.84-.92-.79-2.36.13-3.28.46-.46,1.06-.71,1.71-.71.61,0,1.2.23,1.65.66.38.37.86.57,1.47.61.64-.04,1.11-.23,1.51-.61.44-.43,1.03-.66,1.65-.66s1.25.25,1.71.71c.92.92.97,2.36.12,3.29Z"/>
    <g>
      <path class="cls-3" d="M47.47,14.82s.75-3.52,1.27-7.67c.15-1.23.59-2.43,1.91-3.23s3.73-.81,5.58-.81c10.27,0,16.92,10.3,17.68,23.7,0,.1-.15,2.59-.21,2.75-.4,1.21-4.77,2.11-5.71.59-2.92-4.75-8.25-15.74-20.52-15.32Z"/>
      <path class="cls-3" d="M27.43,29.86c-1.09-2.11-1.42-3.04-.43-6.99,1.36-5.45,7.86-16.05,13.77-18.12s6.58-.77,9.22,1.32l-1.2,8.91c-1.01,1.32-3.65.7-8.62,4.33s-10.54,13.59-12.73,10.54Z"/>
    </g>
    <path d="M50.16,47.54c-.44,0-.88-.06-1.3-.18-1.04-.29-1.9-.8-2.56-1.53-.3-.33-.26-.87.08-1.21.17-.17.4-.27.65-.27.23,0,.45.09.62.25.66.63,1.5.98,2.5,1.03,1.04-.05,1.88-.39,2.55-1.03.17-.16.38-.25.62-.25.25,0,.48.1.65.27.34.34.38.89.08,1.21-.66.73-1.53,1.24-2.56,1.53-.42.12-.86.18-1.3.18Z"/>
    <path class="cls-5" d="M73.7,29.56c-.42.81-.78,1.46-1.1,1.99-.22-.13-.45-.23-.69-.31-.36-.11-.73-.17-1.1-.17-.81,0-1.6.26-2.32.72-4.39-9.13-8.75-15.01-13.85-17.45-.48-.23-.97-.43-1.47-.6-.21-.07-.41-.14-.62-.19-.18-.06-.36-.11-.54-.14-.18-.05-.36-.09-.54-.12-.36-.07-.73-.13-1.1-.17-1.08-2.53-1.86-5.11-1.78-7.26,0-.09,0-.18.01-.27.02-.3.06-.59.12-.87.03-.15.07-.29.11-.43.01-.03.02-.07.03-.1.03-.11.07-.22.11-.32.04-.11.09-.22.14-.33.03-.05.06-.11.09-.16.05-.09.1-.19.16-.28.02-.04.05-.07.07-.11.06-.09.13-.18.2-.27.09-.11.18-.22.29-.33.11-.11.23-.22.35-.32.35-.3.77-.55,1.25-.76h.01c.17-.08.35-.15.55-.21.18-.06.38-.11.58-.17,0,0,.01,0,.02-.01.19-.04.39-.08.6-.12,1.04-.19,2.29-.25,3.77-.15,10.23.68,20.42,20.71,16.65,28.91Z"/>
    <path class="cls-7" d="M54.63,14.35c1.14-1.37,1.79-3.43,1.75-5.82-.04-2.49-.91-5.68-3.1-7.73-6.18,1.12-5.25,6.84-2.9,12.33,1.48.15,2.89.57,4.26,1.22Z"/>
    <path class="cls-5" d="M53.17,13.74h0c-.25.24-.52.44-.83.59-4.09,1.98-14.22,1.95-20.69,17.44-.6-.32-1.25-.49-1.91-.49-.38,0-.77.06-1.13.18-1.24.41-2.13,1.44-2.55,2.76-2.35-5.71-2.24-15.99-1.26-18.81C29.99.5,45.45-1.5,50.63.8c.32.14.61.31.89.51t.01,0c3.92,2.68,4.31,9.9,1.64,12.43Z"/>
    <path class="cls-12" d="M78.74,220.29H21.58c-3.94,0-7.04-3.35-6.74-7.28l6.31-81.58h58.02l6.31,81.58c.3,3.93-2.8,7.28-6.74,7.28Z"/>
    <rect class="cls-10" x="18.37" y="124.13" width="63.23" height="10.6" rx="2.09" ry="2.09"/>
    <g>
      <circle class="cls-4" cx="42.41" cy="33.46" r="6.1"/>
      <circle class="cls-6" cx="42.41" cy="33.46" r="5.31"/>
      <path class="cls-1" d="M42.41,36.97c-.87,0-.19-2.02,0-2.02.17,0,.87,2.02,0,2.02Z"/>
      <path class="cls-1" d="M42.41,29.95c-.87,0-.19,2.02,0,2.02.17,0,.87-2.02,0-2.02Z"/>
      <path class="cls-1" d="M44.89,35.94c-.61.61-1.56-1.29-1.43-1.42.12-.12,2.04.81,1.43,1.42Z"/>
      <path class="cls-1" d="M39.93,30.98c-.61.61,1.29,1.56,1.42,1.43.12-.12-.81-2.04-1.42-1.43Z"/>
      <path class="cls-1" d="M45.92,33.46c0,.87-2.02.19-2.02,0,0-.17,2.02-.87,2.02,0Z"/>
      <path class="cls-1" d="M38.9,33.46c0,.87,2.02.19,2.02,0,0-.17-2.02-.87-2.02,0Z"/>
      <path class="cls-1" d="M44.89,30.98c.61.61-1.29,1.56-1.42,1.43-.12-.12.81-2.04,1.42-1.43Z"/>
      <path class="cls-1" d="M39.93,35.94c.61.61,1.56-1.29,1.43-1.42-.12-.12-2.04.81-1.43,1.42Z"/>
    </g>
    <g>
      <circle class="cls-4" cx="57.56" cy="33.46" r="6.1"/>
      <circle class="cls-6" cx="57.56" cy="33.46" r="5.31"/>
      <path class="cls-1" d="M57.55,36.97c.87,0,.19-2.02,0-2.02-.17,0-.87,2.02,0,2.02Z"/>
      <path class="cls-1" d="M57.55,29.95c.87,0,.19,2.02,0,2.02-.17,0-.87-2.02,0-2.02Z"/>
      <path class="cls-1" d="M55.07,35.94c.61.61,1.56-1.29,1.43-1.42-.12-.12-2.04.81-1.43,1.42Z"/>
      <path class="cls-1" d="M60.04,30.98c.61.61-1.29,1.56-1.42,1.43-.12-.12.81-2.04,1.42-1.43Z"/>
      <path class="cls-1" d="M54.05,33.46c0,.87,2.02.19,2.02,0,0-.17-2.02-.87-2.02,0Z"/>
      <path class="cls-1" d="M61.06,33.46c0,.87-2.02.19-2.02,0,0-.17,2.02-.87,2.02,0Z"/>
      <path class="cls-1" d="M55.08,30.98c-.61.61,1.29,1.56,1.42,1.43.12-.12-.81-2.04-1.42-1.43Z"/>
      <path class="cls-1" d="M60.04,35.94c-.61.61-1.56-1.29-1.43-1.42.12-.12,2.04.81,1.43,1.42Z"/>
    </g>
    <path class="cls-10" d="M25.63,125.28h12.57v78.63c0,1.31-1.07,2.38-2.38,2.38h-7.81c-1.31,0-2.38-1.07-2.38-2.38v-78.63h0Z"/>
    <path class="cls-10" d="M30.93,128.64h12.57v58.76c0,1.31-1.07,2.38-2.38,2.38h-7.81c-1.31,0-2.38-1.07-2.38-2.38v-58.76h0Z"/>
  </g>
</svg>