<?xml version="1.0" encoding="UTF-8"?>
<svg id="Layer_2" data-name="Layer 2" xmlns="http://www.w3.org/2000/svg" viewBox="0 0 54 142.43">
  <defs>
    <style>
      .cls-1 {
        fill: #fff;
      }

      .cls-2 {
        fill: #9b9b9b;
      }

      .cls-3 {
        fill: #0078db;
      }

      .cls-4 {
        fill: #82dcff;
      }
    </style>
  </defs>
  <g id="Deodorant_Ball" data-name="Deodorant Ball">
    <circle class="cls-1" cx="26.9" cy="56.74" r="20.65"/>
    <path class="cls-3" d="M5.74,57.73h42.32c1.23,0,2.22,1,2.22,2.22v7.94H3.52v-7.94c0-1.23,1-2.22,2.22-2.22Z"/>
    <path class="cls-4" d="M4.93,64.97h44.14c2.72,0,4.93,2.21,4.93,4.93v65.54c0,3.86-3.13,6.99-6.99,6.99H6.99c-3.86,0-6.99-3.13-6.99-6.99v-65.54c0-2.72,2.21-4.93,4.93-4.93Z"/>
    <path class="cls-3" d="M50.31,25.76H5.12c-2.29,0-4-2.07-3.62-4.32C3.55,9.27,14.14,0,26.89,0c13.41,0,24.44,10.26,25.66,23.34.12,1.3-.94,2.42-2.24,2.42Z"/>
    <rect class="cls-1" x="7.27" y="81.37" width="39.46" height="22.86" rx="1.35" ry="1.35"/>
    <g>
      <path class="cls-2" d="M44.28,96.12H10.78c-.55,0-1-.45-1-1s.45-1,1-1h33.49c.55,0,1,.45,1,1s-.45,1-1,1Z"/>
      <path class="cls-2" d="M44.28,89.72H10.78c-.55,0-1-.45-1-1s.45-1,1-1h33.49c.55,0,1,.45,1,1s-.45,1-1,1Z"/>
    </g>
  </g>
</svg>