<?xml version="1.0" encoding="UTF-8"?>
<svg id="Layer_2" data-name="Layer 2" xmlns="http://www.w3.org/2000/svg" viewBox="0 0 51.79 108.19">
  <defs>
    <style>
      .cls-1 {
        fill: #646464;
      }

      .cls-2 {
        fill: #ff6e78;
      }

      .cls-3 {
        fill: #e06370;
      }

      .cls-4 {
        fill: #82dcff;
      }
    </style>
  </defs>
  <g id="Nail_Polish" data-name="Nail Polish">
    <g id="Nail_Polish_Bottle_Opened" data-name="Nail Polish Bottle Opened">
      <path class="cls-4" d="M45.53,108.19H6.26c-3.73,0-6.63-3.25-6.22-6.95l5.9-52.63c.35-3.17,3.03-5.56,6.22-5.56h27.48c3.19,0,5.86,2.39,6.22,5.56l5.9,52.63c.42,3.71-2.49,6.95-6.22,6.95Z"/>
      <rect class="cls-3" x="23.58" y="26.36" width="4.63" height="43.05"/>
      <path class="cls-2" d="M6.26,101.08c-.88,0-1.43-.43-1.68-.69-.25-.26-.66-.81-.56-1.6l5.9-48.13c.13-1.04,1.09-1.83,2.24-1.83h27.48c1.15,0,2.11.79,2.24,1.83l5.9,48.13c.1.8-.31,1.35-.56,1.61-.25.26-.8.69-1.68.69H6.26Z"/>
      <path class="cls-1" d="M35.57,43.05h-19.36c-.99,0-1.78-.82-1.74-1.81L16.08,1.67c.04-.93.81-1.67,1.74-1.67h16.15c.93,0,1.7.74,1.74,1.67l1.6,39.57c.04.99-.75,1.81-1.74,1.81Z"/>
    </g>
  </g>
</svg>