<?xml version="1.0" encoding="UTF-8"?>
<svg id="Layer_2" data-name="Layer 2" xmlns="http://www.w3.org/2000/svg" viewBox="0 0 51.79 78.98">
  <defs>
    <style>
      .cls-1 {
        fill: #ff6e78;
      }

      .cls-2 {
        fill: #82dcff;
      }
    </style>
  </defs>
  <g id="Nail_Polish" data-name="Nail Polish">
    <g id="Nail_Polish-2" data-name="Nail Polish">
      <path class="cls-2" d="M17.9,0h16c.96,0,1.75.78,1.75,1.75v14.63h-19.49V1.75c0-.96.78-1.75,1.75-1.75Z"/>
      <path class="cls-2" d="M45.53,78.98H6.26c-3.73,0-6.63-3.25-6.22-6.95L5.94,19.4c.35-3.17,3.03-5.56,6.22-5.56h27.48c3.19,0,5.86,2.39,6.22,5.56l5.9,52.63c.42,3.71-2.49,6.95-6.22,6.95Z"/>
      <path class="cls-1" d="M6.26,71.87c-.88,0-1.43-.43-1.68-.69-.25-.26-.66-.81-.56-1.6l5.9-48.13c.13-1.04,1.09-1.83,2.24-1.83h27.48c1.15,0,2.11.79,2.24,1.83l5.9,48.13c.1.8-.31,1.35-.56,1.61-.25.26-.8.69-1.68.69H6.26Z"/>
    </g>
  </g>
</svg>