<?xml version="1.0" encoding="UTF-8"?>
<svg id="Layer_2" data-name="Layer 2" xmlns="http://www.w3.org/2000/svg" viewBox="0 0 117.49 98.57">
  <defs>
    <style>
      .cls-1 {
        fill: #d3ae6c;
      }

      .cls-2 {
        fill: #eccd90;
      }

      .cls-3 {
        fill: #fff;
      }

      .cls-4 {
        fill: #79e7ff;
      }

      .cls-5 {
        fill: #65cee0;
      }
    </style>
  </defs>
  <g id="Soap_With_Bubbles" data-name="Soap With Bubbles">
    <g id="Bubble">
      <circle class="cls-5" cx="108.94" cy="34.97" r="8.55"/>
      <path class="cls-3" d="M111.65,28.74l-.05.11c-.12.28-.44.42-.73.33,0,0,0,0-.01,0-.29-.1-.47-.4-.4-.7l.03-.12c.08-.34.44-.55.77-.44.01,0,.02,0,.03.01.33.11.5.48.36.81Z"/>
      <path class="cls-3" d="M114.55,31.14l-.08.05c-.26.17-.61.14-.81-.1-.34-.41-.74-.78-1.18-1.09-.25-.18-.31-.53-.15-.8l.05-.08c.18-.31.58-.39.87-.18.53.38,1,.82,1.42,1.32.23.27.18.68-.12.88Z"/>
    </g>
    <g id="Bubble-2" data-name="Bubble">
      <circle class="cls-5" cx="86.57" cy="25.95" r="16.69"/>
      <path class="cls-3" d="M91.85,13.79l-.09.22c-.24.55-.86.83-1.43.64,0,0-.01,0-.02,0-.57-.19-.91-.77-.77-1.36l.05-.23c.15-.67.85-1.07,1.51-.85.02,0,.04.01.06.02.65.22.97.95.7,1.57Z"/>
      <path class="cls-3" d="M97.5,18.48l-.15.1c-.5.34-1.2.28-1.58-.19-.67-.81-1.44-1.53-2.29-2.14-.49-.35-.61-1.04-.3-1.57l.1-.16c.35-.6,1.14-.76,1.7-.35,1.03.73,1.96,1.6,2.76,2.58.44.54.34,1.33-.23,1.73Z"/>
    </g>
    <g id="Bubble-3" data-name="Bubble">
      <circle class="cls-5" cx="11.29" cy="28.73" r="4.84"/>
      <path class="cls-3" d="M12.82,25.21l-.03.06c-.07.16-.25.24-.41.19,0,0,0,0,0,0-.17-.05-.26-.22-.22-.39l.02-.07c.04-.19.25-.31.44-.25,0,0,.01,0,.02,0,.19.06.28.27.2.46Z"/>
      <path class="cls-3" d="M14.46,26.56l-.04.03c-.14.1-.35.08-.46-.05-.19-.23-.42-.44-.67-.62-.14-.1-.18-.3-.09-.45l.03-.05c.1-.17.33-.22.49-.1.3.21.57.46.8.75.13.16.1.39-.07.5Z"/>
    </g>
    <rect class="cls-2" y="30.76" width="110.22" height="67.81" rx="9.46" ry="9.46"/>
    <rect class="cls-1" x="33.71" y="22.05" width="42.81" height="85.22" rx="6.25" ry="6.25" transform="translate(119.78 9.56) rotate(90)"/>
    <rect class="cls-2" x="36.21" y="24.55" width="37.81" height="80.22" rx="3.75" ry="3.75" transform="translate(119.78 9.56) rotate(90)"/>
    <g id="Bubble-4" data-name="Bubble">
      <circle class="cls-4" cx="80.06" cy="12.14" r="12.14"/>
      <path class="cls-3" d="M83.9,3.29l-.07.16c-.17.4-.62.6-1.04.46,0,0,0,0-.01,0-.42-.14-.66-.56-.56-.99l.04-.17c.11-.49.62-.78,1.1-.62.01,0,.03,0,.04.01.47.16.71.69.51,1.14Z"/>
      <path class="cls-3" d="M88.02,6.7l-.11.08c-.36.25-.87.2-1.15-.14-.49-.59-1.05-1.11-1.67-1.55-.36-.26-.44-.76-.22-1.14l.07-.12c.25-.44.83-.55,1.24-.26.75.53,1.42,1.17,2.01,1.87.32.39.25.97-.17,1.26Z"/>
    </g>
    <g id="Bubble-5" data-name="Bubble">
      <circle class="cls-4" cx="31.48" cy="26.88" r="10.22"/>
      <path class="cls-3" d="M34.71,19.44l-.06.13c-.15.34-.53.51-.88.39,0,0,0,0-.01,0-.35-.11-.56-.47-.47-.83l.03-.14c.09-.41.52-.65.92-.52.01,0,.03,0,.04.01.4.13.59.58.43.96Z"/>
      <path class="cls-3" d="M38.18,22.31l-.09.06c-.31.21-.73.17-.97-.12-.41-.49-.88-.93-1.41-1.31-.3-.22-.37-.64-.18-.96l.06-.1c.21-.37.7-.46,1.04-.22.63.45,1.2.98,1.69,1.58.27.33.21.82-.14,1.06Z"/>
    </g>
    <g id="Bubble-6" data-name="Bubble">
      <circle class="cls-4" cx="97.72" cy="53.57" r="7.05"/>
      <path class="cls-3" d="M99.95,48.43l-.04.09c-.1.23-.36.35-.6.27,0,0,0,0,0,0-.24-.08-.38-.33-.33-.58l.02-.1c.06-.28.36-.45.64-.36,0,0,.02,0,.03,0,.27.09.41.4.3.66Z"/>
      <path class="cls-3" d="M102.34,50.41l-.06.04c-.21.14-.51.12-.67-.08-.28-.34-.61-.64-.97-.9-.21-.15-.26-.44-.13-.66l.04-.07c.15-.25.48-.32.72-.15.43.31.83.68,1.17,1.09.19.23.14.56-.1.73Z"/>
    </g>
    <g id="Bubble-7" data-name="Bubble">
      <circle class="cls-4" cx="91.94" cy="32.3" r="7.05"/>
      <path class="cls-3" d="M94.17,27.16l-.04.09c-.1.23-.36.35-.6.27,0,0,0,0,0,0-.24-.08-.38-.33-.33-.58l.02-.1c.06-.28.36-.45.64-.36,0,0,.02,0,.03,0,.27.09.41.4.3.66Z"/>
      <path class="cls-3" d="M96.56,29.14l-.06.04c-.21.14-.51.12-.67-.08-.28-.34-.61-.64-.97-.9-.21-.15-.26-.44-.13-.66l.04-.07c.15-.25.48-.32.72-.15.43.31.83.68,1.17,1.09.19.23.14.56-.1.73Z"/>
    </g>
    <g id="Bubble-8" data-name="Bubble">
      <circle class="cls-4" cx="62.16" cy="24.73" r="4.84"/>
      <path class="cls-3" d="M63.69,21.2l-.03.06c-.07.16-.25.24-.41.19,0,0,0,0,0,0-.17-.05-.26-.22-.22-.39l.02-.07c.04-.19.25-.31.44-.25,0,0,.01,0,.02,0,.19.06.28.27.2.46Z"/>
      <path class="cls-3" d="M65.33,22.56l-.04.03c-.14.1-.35.08-.46-.05-.19-.23-.42-.44-.67-.62-.14-.1-.18-.3-.09-.45l.03-.05c.1-.17.33-.22.49-.1.3.21.57.46.8.75.13.16.1.39-.07.5Z"/>
    </g>
  </g>
</svg>