<?xml version="1.0" encoding="UTF-8"?>
<svg id="Layer_2" data-name="Layer 2" xmlns="http://www.w3.org/2000/svg" viewBox="0 0 91.03 187">
  <defs>
    <style>
      .cls-1 {
        fill: #ffbe00;
      }

      .cls-2 {
        fill: #ffc51c;
      }

      .cls-3 {
        fill: #ff6e3c;
      }
    </style>
  </defs>
  <g id="Bottle_03">
    <path class="cls-2" d="M28.01,0h34.52c2.34,0,4.24,1.9,4.24,4.24v24.76H23.77V4.24c0-2.34,1.9-4.24,4.24-4.24Z"/>
    <path class="cls-3" d="M84.03,170.09c-1.48,4.61-4.77,8.45-9.13,10.57-5.95,2.9-15.72,6.26-29.14,6.33-.08.01-.16.01-.25.01s-.17,0-.25-.01c-13.42-.08-23.19-3.44-29.14-6.33-4.36-2.12-7.64-5.96-9.13-10.57C.2,148.9-1.86,122.84,1.77,102c3.86-22.17,12.22-37.63,17.43-71.61.4-2.63,2.23-4.83,4.76-5.64,3.94-1.26,10.9-2.75,21.81-2.75s17.37,1.41,21.23,2.66c2.56.82,4.43,3.01,4.84,5.67,5.21,34.02,13.58,49.49,17.44,71.68,3.62,20.84,1.57,46.9-5.23,68.09Z"/>
    <path class="cls-1" d="M53.61,120.19c-.88,0-1.81.5-2.21,1.2l-4.14,7.17c-.51.88-1.27,1.39-2.09,1.39s-1.59-.5-2.09-1.39l-4.14-7.17c-.4-.69-1.33-1.2-2.21-1.2-.18,0-.36.02-.52.07l-8,2.14c-.3.08-.58.12-.86.12-.74,0-1.37-.29-1.77-.82-.45-.58-.56-1.39-.33-2.26l2.14-8c.26-.96-.27-2.24-1.13-2.73l-7.17-4.14c-.88-.51-1.39-1.27-1.39-2.09s.51-1.59,1.39-2.09l7.17-4.14c.86-.5,1.39-1.77,1.13-2.73l-2.14-8c-.23-.88-.12-1.68.33-2.26.4-.53,1.03-.82,1.78-.82.27,0,.56.04.86.12l8,2.14c.16.04.34.07.52.07.88,0,1.81-.5,2.21-1.2l4.14-7.17c.51-.88,1.27-1.39,2.09-1.39s1.59.51,2.09,1.39l4.14,7.17c.4.69,1.33,1.2,2.21,1.2.18,0,.36-.02.52-.07l8-2.14c.3-.08.58-.12.86-.12.74,0,1.37.29,1.78.82.45.58.56,1.39.33,2.26l-2.14,8c-.26.96.27,2.23,1.13,2.73l7.17,4.14c.88.51,1.39,1.27,1.39,2.09s-.5,1.59-1.39,2.09l-7.17,4.14c-.86.5-1.39,1.77-1.13,2.73l2.14,8c.23.88.12,1.68-.33,2.26-.4.53-1.03.82-1.78.82-.27,0-.56-.04-.86-.12l-8-2.14c-.16-.04-.34-.06-.52-.06h0Z"/>
  </g>
</svg>