<?xml version="1.0" encoding="UTF-8"?>
<svg id="Layer_2" data-name="Layer 2" xmlns="http://www.w3.org/2000/svg" viewBox="0 0 78.49 214">
  <defs>
    <style>
      .cls-1 {
        fill: #f03214;
      }

      .cls-2 {
        fill: #fff;
      }

      .cls-3 {
        fill: #ffdcff;
        stroke: #ffdcff;
        stroke-miterlimit: 10;
        stroke-width: .25px;
      }
    </style>
  </defs>
  <g id="Toothbrush_01">
    <path class="cls-2" d="M78.46,3.18l-1.78,10.93c-.81-.69-1.85-1.11-3-1.11H4.82c-1.15,0-2.19.42-3,1.11L.04,3.18C-.23,1.51,1.02,0,2.67,0h73.16c1.65,0,2.9,1.51,2.63,3.18Z"/>
    <path class="cls-2" d="M56.63,183l-1.78,28.58c-.09,1.36-1.21,2.42-2.58,2.42h-25.54c-1.37,0-2.49-1.06-2.58-2.42l-1.78-28.58h34.26Z"/>
    <path class="cls-1" d="M78.28,18.04l-7.54,80.03-2.72,28.96-4.88,51.79c-.22,2.37-2.21,4.18-4.59,4.18H19.95c-2.38,0-4.37-1.81-4.59-4.18L6.75,87.36,2.62,43.48.22,18.04c-.14-1.56.5-2.99,1.6-3.93.81-.69,1.85-1.11,3-1.11h68.86c1.15,0,2.19.42,3,1.11,1.1.94,1.74,2.37,1.6,3.93Z"/>
    <path class="cls-3" d="M70.74,98.07l-2.72,28.96c-16.65-3.58-52.14-26.47-61.27-39.67L2.62,43.48c7.72,16.37,39.33,44.2,68.12,54.59Z"/>
  </g>
</svg>