<?xml version="1.0" encoding="UTF-8"?>
<svg id="Layer_2" data-name="Layer 2" xmlns="http://www.w3.org/2000/svg" viewBox="0 0 39 228">
  <defs>
    <style>
      .cls-1 {
        fill: #fff;
      }

      .cls-2 {
        fill: none;
        stroke: #bebebe;
        stroke-linecap: round;
        stroke-miterlimit: 10;
        stroke-width: 2.25px;
      }

      .cls-3 {
        fill: #0078db;
      }
    </style>
  </defs>
  <g id="Toothbrush_01">
    <g>
      <path class="cls-1" d="M39,11.02v40.96c0,1.39-1.13,2.52-2.52,2.52H15V8.5h21.48c1.39,0,2.52,1.13,2.52,2.52Z"/>
      <g>
        <line class="cls-2" x1="12.67" y1="20.5" x2="36.67" y2="20.5"/>
        <line class="cls-2" x1="12.67" y1="32.25" x2="36.67" y2="32.25"/>
        <line class="cls-2" x1="12.67" y1="44" x2="36.67" y2="44"/>
      </g>
    </g>
    <path class="cls-3" d="M15,7.5v213c0,4.14-3.36,7.5-7.5,7.5s-7.5-3.36-7.5-7.5V7.5C0,3.36,3.36,0,7.5,0c2.07,0,3.94.84,5.3,2.2,1.36,1.36,2.2,3.23,2.2,5.3Z"/>
  </g>
</svg>