<svg width="229" height="109" viewBox="0 0 229 109" fill="none" xmlns="http://www.w3.org/2000/svg">
<g clip-path="url(#clip0_247_80)">
<path d="M221.39 0H7.56C3.38473 0 0 3.38473 0 7.56V101.34C0 105.515 3.38473 108.9 7.56 108.9H221.39C225.565 108.9 228.95 105.515 228.95 101.34V7.56C228.95 3.38473 225.565 0 221.39 0Z" fill="#038142"/>
<path d="M217.09 33.97V74.93C207.3 78.35 199.44 85.88 195.58 95.45H33.38C29.51 85.88 21.65 78.35 11.86 74.93V33.97C21.65 30.55 29.51 23.02 33.37 13.45H195.59C199.44 23.02 207.3 30.55 217.09 33.97Z" fill="#00A05A"/>
<path d="M114.48 89.92C134.07 89.92 149.95 74.0395 149.95 54.45C149.95 34.8605 134.07 18.98 114.48 18.98C94.8905 18.98 79.01 34.8605 79.01 54.45C79.01 74.0395 94.8905 89.92 114.48 89.92Z" fill="#038142"/>
<path d="M48.27 66.44C54.8919 66.44 60.26 61.0719 60.26 54.45C60.26 47.8281 54.8919 42.46 48.27 42.46C41.6481 42.46 36.28 47.8281 36.28 54.45C36.28 61.0719 41.6481 66.44 48.27 66.44Z" fill="#038142"/>
<path d="M180.68 66.44C187.302 66.44 192.67 61.0719 192.67 54.45C192.67 47.8281 187.302 42.46 180.68 42.46C174.058 42.46 168.69 47.8281 168.69 54.45C168.69 61.0719 174.058 66.44 180.68 66.44Z" fill="#038142"/>
<path d="M111.78 74.55V71.6C109.08 71.51 106.33 70.93 104.17 70.08C102.84 69.56 102.14 68.11 102.56 66.75L102.62 66.56C103.08 65.05 104.72 64.24 106.19 64.82C108.21 65.62 110.59 66.19 113.1 66.19C116.77 66.19 119.4 64.58 119.4 61.96C119.4 59.48 117.32 58.02 112.87 56.64C106.48 54.65 102.37 51.92 102.37 46.64C102.37 41.76 105.93 37.99 112.03 37.05V34.09C112.03 32.79 113.09 31.73 114.39 31.73C115.69 31.73 116.75 32.79 116.75 34.09V36.83C119.18 36.92 121.08 37.3 122.63 37.81C124.03 38.27 124.78 39.78 124.35 41.18C123.9 42.64 122.33 43.46 120.89 42.95C119.45 42.44 117.5 41.98 115.09 41.98C110.88 41.98 109.58 44.01 109.58 45.77C109.58 47.95 111.83 49.31 116.89 51.04C123.59 53.22 126.64 56.09 126.64 61.35C126.64 65.89 123.26 70.26 116.54 71.3V74.53C116.54 75.83 115.48 76.89 114.18 76.89C112.88 76.89 111.82 75.83 111.82 74.53L111.78 74.55Z" fill="white"/>
<path d="M111.78 76.91V71.61C108 71.48 104.11 70.39 101.89 68.96L103.54 63.55C105.91 64.94 109.37 66.21 113.09 66.21C116.81 66.21 119.39 64.6 119.39 61.98C119.39 59.5 117.31 58.04 112.86 56.66C106.47 54.67 102.36 51.94 102.36 46.66C102.36 41.78 105.92 38.01 112.02 37.07V31.75H116.74V36.85C120.63 36.99 123.16 37.89 125.06 38.84L123.44 44.09C122.08 43.44 119.33 42 115.06 42C110.79 42 109.55 44.03 109.55 45.79C109.55 47.97 111.8 49.33 116.86 51.06C123.56 53.24 126.61 56.11 126.61 61.37C126.61 65.91 123.23 70.28 116.51 71.32V76.91H111.79H111.78Z" fill="white"/>
</g>
<defs>
<clipPath id="clip0_247_80">
<rect width="228.95" height="108.9" fill="white"/>
</clipPath>
</defs>
</svg>
