<svg width="591" height="606" viewBox="0 0 591 606" fill="none" xmlns="http://www.w3.org/2000/svg">
<rect y="24" width="591" height="582" rx="91" fill="#D7EDF3" fill-opacity="0.97"/>
<path d="M457.844 205.46C463.838 197.761 480.701 206.25 473.947 188.949C467.194 171.647 490.589 169.895 497.795 173.205C499.928 174.186 502.021 175.71 504.003 177.62C504.231 175.725 504.349 173.792 504.349 171.835C504.349 168.955 504.095 166.137 503.609 163.397C489.082 158.893 486.326 147.183 478.77 151.907C471.044 156.737 460.489 146.841 461.388 139.788C462.07 134.436 465.345 127.446 463.735 124.221C461.208 123.813 458.614 123.6 455.972 123.6C449.695 123.6 443.697 124.794 438.193 126.961C441.361 136.725 443.944 141.783 436.034 147.73C426.3 155.047 418.574 150.151 418.574 161.263C418.574 172.375 425.913 176.999 418.574 183.931C416.496 185.896 413.516 187.086 410.27 187.689C411.795 192.053 413.925 196.134 416.57 199.829C427.181 191.649 439.578 203.767 442.956 209.846C444.423 212.487 444.135 215.444 443.115 218.343C447.208 219.463 451.518 220.065 455.969 220.065C456.963 220.065 457.947 220.032 458.927 219.974C456.083 214.1 455.225 208.818 457.837 205.457L457.844 205.46ZM447.805 198.463C442.194 199.667 440.978 184.133 437.555 177.179C434.133 170.226 429.413 165.134 433.447 160.855C437.482 156.576 441.575 160.855 448.464 155.415C455.829 149.596 462.35 155.617 463.569 161.16C464.789 166.703 460.132 172.716 459.119 175.673C458.446 177.642 458.331 180.867 458.776 185.349C459.443 192.067 453.416 197.265 447.805 198.47V198.463Z" fill="#78E6FF"/>
<path d="M461.396 139.788C460.497 146.841 471.052 156.733 478.778 151.906C486.334 147.182 489.086 158.893 503.617 163.396C500.058 143.289 484.006 127.482 463.743 124.22C465.356 127.445 462.078 134.436 461.396 139.788Z" fill="#009664"/>
<path d="M458.781 185.342C458.337 180.863 458.451 177.638 459.124 175.666C460.134 172.713 464.794 166.696 463.575 161.153C462.355 155.61 455.834 149.589 448.469 155.408C441.584 160.848 437.487 156.569 433.453 160.848C429.419 165.128 434.138 170.219 437.561 177.172C440.983 184.126 442.199 199.661 447.81 198.456C453.421 197.251 459.448 192.053 458.781 185.335V185.342Z" fill="#009664"/>
<path d="M442.963 209.846C439.585 203.767 427.187 191.649 416.577 199.829C422.947 208.726 432.272 215.371 443.122 218.343C444.142 215.445 444.429 212.484 442.963 209.846Z" fill="#009664"/>
<path d="M418.583 161.266C418.583 150.151 426.308 155.051 436.042 147.734C443.952 141.786 441.369 136.728 438.201 126.965C420.277 134.028 407.6 151.458 407.6 171.838C407.6 177.392 408.547 182.729 410.278 187.696C413.524 187.093 416.505 185.903 418.583 183.938C425.921 177.006 418.583 172.385 418.583 161.27V161.266Z" fill="#009664"/>
<path d="M473.952 188.949C480.701 206.247 463.839 197.761 457.848 205.461C455.233 208.818 456.095 214.104 458.939 219.978C482.345 218.571 501.259 200.572 504.011 177.621C502.025 175.714 499.933 174.186 497.803 173.205C490.597 169.896 467.206 171.651 473.956 188.949H473.952Z" fill="#009664"/>
<path d="M168.119 145.285C162.451 141.999 155.821 141.099 149.449 142.761C143.077 144.424 137.732 148.446 134.391 154.083L132.584 157.132L129.518 155.355C123.849 152.068 117.212 151.17 110.848 152.83C104.484 154.491 99.1303 158.516 95.7896 164.152C92.4489 169.789 91.5132 176.376 93.1576 182.68C94.8019 188.983 98.8357 194.274 104.504 197.561L148.671 223.171C149.045 223.387 149.467 223.43 149.859 223.327C150.252 223.225 150.6 222.982 150.819 222.611L176.85 178.689C180.19 173.053 181.126 166.466 179.482 160.162C177.837 153.858 173.803 148.568 168.135 145.281L168.119 145.285Z" fill="#FF6E78"/>
<g clip-path="url(#clip0_510_4724)">
<path d="M271.88 217.84L263.21 238.54L274.62 243.32L283.36 222.44C287.26 223.44 291.34 223.98 295.55 223.98C322.46 223.98 344.36 202.08 344.36 175.17H331.99C331.99 195.26 315.65 211.61 295.55 211.61C275.45 211.61 259.11 195.27 259.11 175.17H246.74C246.74 193.5 256.9 209.49 271.87 217.83L271.88 217.84Z" fill="black"/>
<path d="M277.05 106H314.04C315.9 106 317.12 107.93 316.33 109.61L308.25 126.76C307.83 127.65 306.94 128.21 305.96 128.21H285.12C284.14 128.21 283.25 127.64 282.83 126.76L274.75 109.61C273.96 107.93 275.18 106 277.04 106H277.05Z" fill="#FFC88C"/>
<path d="M285.72 114.74L290.65 128.22" stroke="#DAA16D" stroke-width="5" stroke-miterlimit="10" stroke-linecap="round"/>
<path d="M305.72 114.04L300.78 127.52" stroke="#DAA16D" stroke-width="5" stroke-miterlimit="10" stroke-linecap="round"/>
<path d="M313.08 132.07C313.08 131.66 278.01 131.66 278.01 132.07V126.72C278.01 120.43 313.08 120.43 313.08 126.72V132.07Z" fill="#784600"/>
<path d="M246.74 175.18C246.74 148.22 268.59 126.37 295.55 126.37C322.51 126.37 344.36 148.22 344.36 175.18H246.74Z" fill="#FFC88C"/>
<path d="M331.98 175.17C331.98 195.29 315.67 211.61 295.54 211.61C275.41 211.61 259.1 195.3 259.1 175.17H331.97H331.98Z" fill="white"/>
<path d="M306.66 166.62C306.94 167.73 306.37 168.87 305.32 169.31C303.64 170 301.48 170.51 299.06 170.51C294.14 170.51 289.85 168.54 287.14 165.07C285.64 163.33 284.62 161.1 284.17 158.57H282.43C281.61 158.57 280.94 157.9 280.94 157.08C280.94 156.26 281.61 155.59 282.43 155.59H283.75C283.75 155.59 283.77 155.57 283.78 155.56C283.71 154.74 283.78 153.9 283.84 153.1H282.43C281.61 153.1 280.94 152.43 280.94 151.61C280.94 150.79 281.61 150.12 282.43 150.12H284.34C284.96 147.39 286.27 144.97 288.11 143.09C290.87 140.21 294.67 138.46 299.2 138.46C301.29 138.46 303.18 138.79 304.73 139.26C305.93 139.62 306.62 140.87 306.28 142.08L306.26 142.14C305.92 143.35 304.66 144.08 303.45 143.73C302.3 143.4 300.97 143.17 299.57 143.17C296.87 143.17 294.5 144.13 292.78 145.99C291.72 147.03 291.01 148.54 290.6 150.11H303.21C304.03 150.11 304.7 150.78 304.7 151.6C304.7 152.42 304.03 153.09 303.21 153.09H289.91C289.84 153.63 289.82 154.21 289.82 154.78V155.59H303.21C304.03 155.59 304.7 156.26 304.7 157.08C304.7 157.9 304.03 158.57 303.21 158.57H290.45C290.82 160.38 291.59 161.85 292.64 162.9C294.44 164.73 296.96 165.62 299.77 165.62C301.23 165.62 302.62 165.35 303.77 164.99C305.02 164.61 306.33 165.35 306.65 166.61L306.66 166.62Z" fill="#784600"/>
<path d="M228.6 259.41C224.75 257.22 220.42 256.12 215.63 256.12C210.84 256.12 206.59 257.22 202.74 259.41C198.89 261.6 195.81 264.6 193.5 268.39C191.19 272.18 190.03 276.51 190.03 281.36C190.03 286.21 191.19 290.54 193.5 294.33C195.81 298.12 198.91 301.11 202.79 303.31C206.67 305.5 210.95 306.6 215.63 306.6C220.31 306.6 224.66 305.5 228.52 303.31C232.37 301.12 235.45 298.13 237.76 294.33C240.07 290.54 241.23 286.21 241.23 281.36C241.23 276.51 240.09 272.1 237.81 268.34C235.53 264.58 232.46 261.6 228.61 259.41H228.6ZM227.31 288.87C226.15 291.09 224.58 292.82 222.6 294.07C220.61 295.31 218.29 295.94 215.62 295.94C212.95 295.94 210.7 295.32 208.69 294.07C206.67 292.83 205.09 291.09 203.94 288.87C202.78 286.65 202.21 284.15 202.21 281.36C202.21 278.57 202.79 276.09 203.94 273.89C205.1 271.7 206.68 269.98 208.69 268.74C210.7 267.5 213.01 266.87 215.62 266.87C218.23 266.87 220.61 267.49 222.6 268.74C224.58 269.98 226.15 271.7 227.31 273.89C228.47 276.08 229.04 278.57 229.04 281.36C229.04 284.15 228.46 286.65 227.31 288.87Z" fill="black"/>
<path d="M286.42 259.5C282.75 257.25 278.63 256.12 274.07 256.12C270.34 256.12 267.05 256.85 264.21 258.3C261.93 259.46 260.04 261 258.52 262.91V257.19H247.5V323.31H259.23V300.89C260.66 302.41 262.36 303.63 264.34 304.56C267.27 305.92 270.49 306.6 273.98 306.6C278.66 306.6 282.84 305.49 286.51 303.27C290.18 301.05 293.09 298.01 295.22 294.16C297.35 290.31 298.42 286.04 298.42 281.36C298.42 276.68 297.34 272.35 295.18 268.56C293.02 264.77 290.1 261.75 286.43 259.5H286.42ZM284.55 288.92C283.36 291.11 281.75 292.83 279.71 294.07C277.67 295.31 275.31 295.94 272.64 295.94C269.97 295.94 267.8 295.32 265.75 294.07C263.71 292.83 262.11 291.11 260.95 288.92C259.79 286.73 259.22 284.21 259.22 281.37C259.22 278.53 259.8 276.1 260.95 273.9C262.11 271.71 263.7 269.99 265.75 268.75C267.79 267.51 270.09 266.88 272.64 266.88C275.19 266.88 277.66 267.5 279.71 268.75C281.75 269.99 283.37 271.71 284.55 273.9C285.73 276.09 286.33 278.58 286.33 281.37C286.33 284.16 285.74 286.73 284.55 288.92Z" fill="black"/>
<path d="M344.01 263.14C342 260.95 339.55 259.23 336.68 257.99C333.81 256.75 330.47 256.12 326.68 256.12C322.12 256.12 318.03 257.22 314.42 259.41C310.81 261.6 307.93 264.58 305.8 268.34C303.67 272.1 302.6 276.41 302.6 281.27C302.6 286.13 303.64 290.22 305.71 294.07C307.78 297.92 310.7 300.97 314.46 303.22C318.22 305.47 322.59 306.6 327.57 306.6C330.83 306.6 333.85 306.1 336.63 305.09C339.41 304.08 341.81 302.69 343.83 300.91C345.84 299.13 347.33 297.09 348.27 294.78L338.85 290.16C337.78 292.06 336.32 293.57 334.45 294.69C332.58 295.82 330.32 296.38 327.65 296.38C324.98 296.38 322.63 295.76 320.58 294.51C318.54 293.27 316.99 291.5 315.96 289.22C315.34 287.85 314.95 286.35 314.78 284.73H349.59C349.83 284.02 349.99 283.23 350.08 282.38C350.17 281.52 350.21 280.65 350.21 279.76C350.21 276.5 349.68 273.47 348.61 270.65C347.54 267.84 346 265.33 343.99 263.14H344.01ZM315.03 275.76C315.23 274.74 315.51 273.79 315.88 272.92C316.86 270.61 318.29 268.83 320.19 267.59C322.09 266.35 324.25 265.72 326.68 265.72C329.11 265.72 331.4 266.34 333.21 267.59C335.02 268.83 336.32 270.52 337.12 272.66C337.49 273.63 337.7 274.67 337.77 275.77H315.03V275.76Z" fill="black"/>
<path d="M390.83 258.43C388.07 256.89 384.92 256.12 381.37 256.12C377.82 256.12 374.93 256.88 372.35 258.39C370.36 259.56 368.81 261.14 367.68 263.14V257.19H356.66V305.54H368.39V277.19C368.39 275.06 368.8 273.22 369.63 271.68C370.46 270.14 371.61 268.96 373.1 268.13C374.58 267.3 376.27 266.89 378.17 266.89C380.07 266.89 381.75 267.31 383.24 268.13C384.72 268.96 385.88 270.14 386.71 271.68C387.54 273.22 387.95 275.06 387.95 277.19V305.54H399.59V274.44C399.59 270.83 398.82 267.64 397.28 264.89C395.74 262.14 393.59 259.99 390.84 258.45V258.43H390.83Z" fill="black"/>
<path d="M423.76 313.5L159.589 336.612C150.797 337.381 144.294 345.132 145.063 353.924L150.036 410.767C150.805 419.558 158.556 426.062 167.348 425.293L431.519 402.181C440.311 401.412 446.814 393.661 446.045 384.869L441.072 328.026C440.303 319.234 432.552 312.731 423.76 313.5Z" fill="#00A05A"/>
<path d="M167.03 408.94L162.14 353.02L183.6 351.14C187.45 350.8 190.93 351.18 194.02 352.27C197.11 353.36 199.63 355.16 201.56 357.66C203.49 360.16 204.63 363.37 204.97 367.27C205.3 371.07 204.72 374.37 203.23 377.18C201.74 379.98 199.56 382.2 196.7 383.84C193.84 385.48 190.51 386.46 186.71 386.79L176.88 387.65L178.65 407.91L167.02 408.93L167.03 408.94ZM176.01 377.52L185.92 376.65C187.57 376.51 188.97 376.06 190.11 375.3C191.25 374.55 192.11 373.56 192.69 372.35C193.27 371.14 193.49 369.78 193.36 368.28C193.22 366.73 192.77 365.41 191.99 364.32C191.21 363.23 190.2 362.41 188.94 361.86C187.68 361.32 186.23 361.11 184.58 361.26L174.67 362.13L176.02 377.52H176.01Z" fill="white"/>
<path d="M233.86 382.67L225.6 383.39L227.37 403.65L215.74 404.67L210.85 348.75L232.24 346.88C236.09 346.54 239.57 346.92 242.66 348.01C245.75 349.1 248.27 350.9 250.2 353.4C252.13 355.9 253.27 359.11 253.61 363.01C253.94 366.81 253.35 370.13 251.83 372.96C250.31 375.79 248.14 378.01 245.3 379.62L260.01 400.79L246.95 401.93L233.84 382.66L233.86 382.67ZM224.72 373.26L234.55 372.4C236.2 372.26 237.6 371.81 238.74 371.05C239.88 370.3 240.74 369.31 241.32 368.1C241.9 366.89 242.12 365.53 241.99 364.03C241.85 362.48 241.4 361.16 240.62 360.07C239.84 358.98 238.83 358.16 237.57 357.61C236.31 357.07 234.86 356.86 233.21 357.01L223.38 357.87L224.73 373.26H224.72Z" fill="white"/>
<path d="M265.8 400.3L260.91 344.39L272.54 343.37L277.43 399.29L265.8 400.31V400.3Z" fill="white"/>
<path d="M313.99 396.99C309.99 397.34 306.21 396.94 302.65 395.79C299.09 394.64 295.93 392.87 293.15 390.5C290.37 388.13 288.11 385.24 286.38 381.86C284.65 378.48 283.6 374.72 283.24 370.57C282.88 366.42 283.24 362.52 284.33 358.86C285.42 355.21 287.13 351.99 289.46 349.18C291.79 346.38 294.6 344.12 297.9 342.39C301.2 340.66 304.88 339.62 308.93 339.27C312.98 338.91 316.68 339.27 320.03 340.34C323.38 341.41 326.27 342.97 328.72 345.02C331.17 347.07 332.99 349.44 334.18 352.11L324.33 357.96C323.14 355.34 321.28 353.25 318.75 351.68C316.22 350.11 313.25 349.48 309.85 349.78C306.55 350.07 303.71 351.1 301.35 352.87C298.98 354.64 297.23 356.95 296.09 359.8C294.95 362.65 294.54 365.9 294.86 369.55C295.18 373.2 296.15 376.34 297.76 378.98C299.38 381.61 301.5 383.59 304.14 384.92C306.78 386.25 309.75 386.77 313.05 386.49C316.45 386.19 319.26 385.05 321.49 383.07C323.71 381.09 325.18 378.7 325.89 375.92L336.61 379.97C335.9 382.8 334.52 385.45 332.46 387.89C330.41 390.34 327.82 392.38 324.71 394.01C321.6 395.64 318.02 396.64 313.97 396.99H313.99Z" fill="white"/>
<path d="M345.28 393.34L340.39 337.42L377.99 334.13L378.88 344.26L352.91 346.53L354.02 359.21L378.49 357.07L379.38 367.2L354.91 369.34L356.03 382.17L382 379.9L382.89 390.03L345.29 393.32L345.28 393.34Z" fill="white"/>
<path d="M409.91 388.6C406.41 388.91 403.06 388.56 399.87 387.55C396.68 386.54 393.87 384.96 391.44 382.8C389.01 380.64 387.1 378.01 385.72 374.91L394.88 369.8C396.55 372.73 398.7 374.96 401.33 376.5C403.96 378.04 406.78 378.67 409.78 378.41C411.38 378.27 412.74 377.9 413.84 377.3C414.95 376.7 415.79 375.93 416.36 375C416.93 374.07 417.17 373 417.06 371.8C416.95 370.5 416.45 369.42 415.57 368.57C414.69 367.71 413.37 367.09 411.62 366.68L400.35 364.04C395.77 362.98 392.24 361.21 389.75 358.73C387.26 356.25 385.86 353.13 385.53 349.38C385.24 346.08 385.8 343.1 387.21 340.46C388.62 337.82 390.72 335.67 393.53 334.01C396.33 332.35 399.64 331.36 403.44 331.02C406.79 330.73 409.95 331.03 412.9 331.93C415.85 332.83 418.46 334.24 420.72 336.16C422.98 338.08 424.76 340.47 426.07 343.33L416.99 348.43C415.71 345.92 413.96 344.02 411.73 342.73C409.5 341.44 407.03 340.91 404.33 341.15C402.78 341.29 401.42 341.66 400.27 342.26C399.11 342.87 398.25 343.66 397.68 344.64C397.11 345.62 396.88 346.71 396.98 347.92C397.09 349.22 397.62 350.32 398.55 351.22C399.49 352.12 400.83 352.77 402.58 353.17L413.62 355.68C418.25 356.74 421.79 358.47 424.25 360.88C426.7 363.29 428.1 366.37 428.42 370.12C428.71 373.37 428.11 376.34 426.63 379.01C425.15 381.69 422.98 383.87 420.13 385.55C417.28 387.24 413.87 388.25 409.92 388.6H409.91Z" fill="white"/>
</g>
<g clip-path="url(#clip1_510_4724)">
<path d="M503.651 515.549C484.153 535.046 453.302 535.812 434.745 517.259C416.188 498.706 416.954 467.851 436.451 448.353C455.953 428.851 508.14 406.75 526.697 425.303C545.254 443.856 523.149 496.047 503.651 515.549Z" fill="#FFF56E"/>
<path d="M506.029 418.316V426.289C512.914 426.289 517.973 427.856 521.062 430.945C526.97 436.853 527.261 450.578 521.848 467.668C516.737 483.797 507.158 500.772 498.017 509.917C493.843 514.09 489.015 517.324 483.657 519.528C478.507 521.649 473.113 522.721 467.632 522.721C457.219 522.721 447.54 518.779 440.384 511.623C424.969 496.203 425.734 470.351 442.095 453.995C448.549 447.541 459.408 440.528 471.144 435.238C483.94 429.47 496.33 426.293 506.025 426.293V418.316M506.025 418.316C482.717 418.316 450.773 434.039 436.458 448.354C416.96 467.852 416.195 498.703 434.748 517.26C443.725 526.237 455.577 530.69 467.632 530.69C480.496 530.69 493.588 525.615 503.653 515.55C523.151 496.052 545.256 443.861 526.699 425.304C521.768 420.373 514.465 418.312 506.025 418.316Z" fill="#A0CD5A"/>
<path d="M485.29 499.154C495.582 488.862 496.662 473.256 487.703 464.296C478.743 455.337 463.137 456.417 452.845 466.709C442.553 477.001 441.472 492.608 450.432 501.567C459.391 510.526 474.998 509.446 485.29 499.154Z" fill="#784614"/>
<path d="M460.53 470.793C460.027 470.793 459.533 470.557 459.222 470.115C458.716 469.393 458.891 468.401 459.613 467.894C462.75 465.694 466.33 464.382 469.966 464.095C470.843 464.024 471.612 464.681 471.68 465.558C471.748 466.435 471.094 467.205 470.217 467.273C467.147 467.516 464.113 468.632 461.443 470.506C461.164 470.701 460.845 470.797 460.53 470.797V470.793Z" fill="white"/>
<path d="M481.096 470.541C480.741 470.541 480.382 470.422 480.083 470.179C479.346 469.573 478.536 469.051 477.675 468.624C476.886 468.233 476.563 467.277 476.954 466.487C477.345 465.698 478.301 465.375 479.091 465.766C480.171 466.3 481.183 466.954 482.108 467.715C482.79 468.273 482.886 469.278 482.328 469.959C482.013 470.342 481.554 470.541 481.096 470.541Z" fill="white"/>
</g>
<g clip-path="url(#clip2_510_4724)">
<path d="M456.889 268.962L425.198 265.315C423.479 265.117 421.917 266.357 421.719 268.076C421.522 269.794 422.761 271.356 424.48 271.554L456.171 275.2L456.89 268.952L456.889 268.962Z" fill="#B5B5B5"/>
<path d="M471.184 264.657L453.59 262.633C452.021 262.452 450.603 263.578 450.422 265.147L449.007 277.446C448.826 279.016 449.952 280.434 451.521 280.614L469.115 282.639L471.184 264.657Z" fill="#B5B5B5"/>
<path d="M488.894 259.025L471.151 256.983C468.856 256.719 466.774 258.372 466.51 260.667L463.658 285.453C463.394 287.748 465.047 289.831 467.341 290.095L485.084 292.136L488.894 259.025Z" fill="#646464"/>
<path d="M489.26 368.615L537.642 374.695L539.514 358.422L537.45 355.366C535.894 353.053 535.209 350.257 535.53 347.475L541.015 299.8L491.243 294.073L503.05 337.296C504.317 341.941 502.261 346.868 498.054 349.223L491.48 352.906L489.249 368.624L489.26 368.615Z" fill="#FFC51C"/>
<path d="M489.874 250.511L548.159 257.217C554.743 257.975 559.466 263.926 558.709 270.51L555.682 296.817C554.925 303.401 548.973 308.124 542.389 307.366L484.104 300.66C477.52 299.903 472.796 293.951 473.554 287.367L476.581 261.061C477.338 254.477 483.29 249.753 489.874 250.511Z" fill="#FFC51C"/>
<path d="M489.909 315.38L497.082 316.205L496.632 302.092L483.827 300.618L487.614 313.455C487.927 314.498 488.826 315.256 489.899 315.379L489.909 315.38Z" fill="#646464"/>
<path d="M539.188 358.375L477.962 351.33C475.836 351.086 473.918 352.616 473.675 354.732L471.57 373.022C471.326 375.148 472.856 377.065 474.972 377.309L536.656 384.406C538.782 384.65 540.699 383.12 540.943 381.004L542.994 363.171C543.267 360.797 541.562 358.648 539.188 358.375Z" fill="#646464"/>
<path d="M523.75 266.136L547.96 268.921C549.321 269.078 550.297 270.305 550.141 271.663C549.985 273.021 548.755 273.995 547.394 273.839L523.184 271.053C521.823 270.897 520.847 269.669 521.003 268.311C521.159 266.953 522.389 265.979 523.75 266.136Z" fill="#646464"/>
<path d="M522.371 278.117L546.582 280.902C547.942 281.059 548.919 282.286 548.762 283.644C548.606 285.002 547.376 285.976 546.016 285.82L521.805 283.034C520.445 282.878 519.468 281.65 519.625 280.292C519.781 278.934 521.011 277.96 522.371 278.117Z" fill="#646464"/>
</g>
<path d="M128.118 262.276L132.158 352.014C132.263 354.338 130.471 356.301 128.15 356.405L46.6362 360.075C44.322 360.179 42.354 358.386 42.2494 356.061L38.2095 266.324C38.0934 263.743 38.6581 261.177 39.8572 258.889L50.5837 238.315L113.278 235.493L125.809 255.019C127.202 257.19 128.002 259.696 128.118 262.276Z" fill="#F9BB5A"/>
<path d="M52.2206 228.691L110.79 226.054C111.929 226.003 112.898 226.89 112.949 228.03L113.285 235.5L50.584 238.323L50.2477 230.853C50.1964 229.712 51.0817 228.742 52.2206 228.691Z" fill="#D69238"/>
<path d="M86.2302 332.409C105.353 331.548 120.156 315.328 119.294 296.182C118.432 277.035 102.231 262.211 83.1087 263.072C63.986 263.933 49.1827 280.152 50.0447 299.299C50.9067 318.446 67.1075 333.27 86.2302 332.409Z" fill="white"/>
<path d="M95.4104 314.696C88.8393 317.409 82.1596 317.709 75.3787 315.598C72.7377 314.779 70.9027 312.364 70.7783 309.601C70.6144 305.961 73.4238 302.883 77.0592 302.719C76.5591 291.609 92.0582 290.442 92.5794 302.021C96.2149 301.857 99.2895 304.67 99.4534 308.31C99.5777 311.073 97.9671 313.643 95.4104 314.696Z" fill="#5E5953"/>
<path d="M69.8427 299.833C71.8257 298.059 71.532 294.49 69.1867 291.863C66.8414 289.235 63.3327 288.544 61.3497 290.318C59.3667 292.093 59.6604 295.661 62.0057 298.288C64.351 300.916 67.8598 301.607 69.8427 299.833Z" fill="#5E5953"/>
<path d="M78.0052 290.384C80.5255 289.534 81.6571 286.137 80.5328 282.798C79.4085 279.459 76.454 277.442 73.9337 278.292C71.4135 279.142 70.2818 282.539 71.4061 285.878C72.5304 289.217 75.4849 291.235 78.0052 290.384Z" fill="#5E5953"/>
<path d="M107.287 296.237C109.387 293.409 109.359 289.829 107.225 288.24C105.09 286.651 101.658 287.655 99.5582 290.482C97.4584 293.31 97.4866 296.89 99.621 298.479C101.755 300.068 105.188 299.064 107.287 296.237Z" fill="#5E5953"/>
<path d="M96.8146 284.738C97.6343 281.312 96.202 278.031 93.6156 277.41C91.0291 276.79 88.2678 279.065 87.4481 282.491C86.6284 285.918 88.0606 289.199 90.6471 289.819C93.2336 290.44 95.9949 288.165 96.8146 284.738Z" fill="#5E5953"/>
<path d="M112.421 338.986L60.6119 341.318C60.0112 341.346 59.5461 341.853 59.5731 342.453C59.6001 343.052 60.1089 343.516 60.7097 343.489L112.519 341.157C113.12 341.13 113.585 340.622 113.558 340.023C113.531 339.423 113.022 338.959 112.421 338.986Z" fill="white"/>
<path d="M112.717 345.565L60.9081 347.897C60.3073 347.924 59.8422 348.432 59.8692 349.031C59.8962 349.631 60.4051 350.095 61.0058 350.068L112.815 347.735C113.416 347.708 113.881 347.201 113.854 346.601C113.827 346.002 113.318 345.538 112.717 345.565Z" fill="white"/>
<g clip-path="url(#clip3_510_4724)">
<path d="M127.127 444.401L93.8611 458.601C91.8724 459.45 90.9425 461.736 91.7841 463.708L118.793 526.982C119.634 528.954 121.929 529.864 123.917 529.015L157.183 514.816C159.172 513.967 160.102 511.681 159.26 509.709L132.252 446.434C131.41 444.463 129.116 443.552 127.127 444.401Z" fill="#646464"/>
<path d="M114.903 420.658L125.36 445.156L95.6285 457.846L85.1717 433.349C84.5775 431.957 85.2349 430.34 86.6389 429.741L111.283 419.222C112.687 418.623 114.309 419.266 114.903 420.658Z" fill="#FFC006"/>
<path d="M98.9958 394.828L109.697 419.899L88.2246 429.064L73.9374 395.593C72.833 393.006 74.9737 390.175 77.7888 390.503L96.0468 392.631C97.3625 392.786 98.482 393.624 98.9958 394.828Z" fill="#F03214"/>
</g>
<defs>
<clipPath id="clip0_510_4724">
<rect width="301.1" height="319.37" fill="white" transform="translate(145 106)"/>
</clipPath>
<clipPath id="clip1_510_4724">
<rect width="113" height="113" fill="white" transform="translate(421 418)"/>
</clipPath>
<clipPath id="clip2_510_4724">
<rect width="136.38" height="127.68" fill="white" transform="matrix(-0.993446 -0.114304 -0.114304 0.993446 560.081 258.589)"/>
</clipPath>
<clipPath id="clip3_510_4724">
<rect width="44" height="146" fill="white" transform="translate(63 396.273) rotate(-23.1151)"/>
</clipPath>
</defs>
</svg>
