<?xml version="1.0" encoding="UTF-8"?>
<svg id="Layer_2" data-name="Layer 2" xmlns="http://www.w3.org/2000/svg" viewBox="0 0 121.55 226.47">
  <defs>
    <style>
      .cls-1 {
        fill: #fff;
      }

      .cls-2 {
        fill: #ccf8ff;
      }

      .cls-3 {
        fill: #ededed;
      }
    </style>
  </defs>
  <g id="Menstrual_Pad" data-name="Menstrual Pad">
    <path class="cls-3" d="M10.29,78.83l19.56-3.98v76.77l-19.56-3.98c-5.99-1.22-10.29-6.48-10.29-12.59v-43.63c0-6.11,4.3-11.38,10.29-12.59Z"/>
    <path class="cls-3" d="M111.26,78.83l-19.56-3.98v76.77s19.56-3.98,19.56-3.98c5.99-1.22,10.29-6.48,10.29-12.59v-43.63c0-6.11-4.3-11.38-10.29-12.59Z"/>
    <path class="cls-1" d="M108.03,198.45c-6.01-28.3-9.2-56.75-9.58-85.36.15-28.61,3.11-57.09,8.89-85.43,2.31-11.3-4.96-22.47-16.39-24.73C80.93.94,70.87-.03,60.77,0h0s-.05,0-.07,0c-.02,0-.05,0-.07,0h0c-10.1-.09-20.16.84-30.19,2.77-11.44,2.21-18.77,13.34-16.52,24.65,5.66,28.53,8.49,57.17,8.46,85.95.26,28.77-2.33,57.43-7.77,86-2.16,11.33,5.26,22.4,16.72,24.53,10.04,1.86,20.11,2.71,30.21,2.54h0s.05,0,.07,0c.02,0,.05,0,.07,0h0c10.1-.04,20.15-1.08,30.15-3.15,11.41-2.35,18.59-13.57,16.19-24.85Z"/>
    <rect class="cls-2" x="40.52" y="37.61" width="42.65" height="149.27" rx="10" ry="10"/>
    <rect class="cls-1" x="-8.4" y="95.31" width="140.48" height="33.86" rx="7" ry="7" transform="translate(174.08 50.4) rotate(90)"/>
  </g>
</svg>