<?xml version="1.0" encoding="UTF-8"?>
<svg id="Layer_2" data-name="Layer 2" xmlns="http://www.w3.org/2000/svg" viewBox="0 0 90.95 184.19">
  <defs>
    <style>
      .cls-1 {
        fill: #fff;
      }

      .cls-2 {
        fill: #d8d8d8;
      }

      .cls-3 {
        fill: #78e6ff;
      }
    </style>
  </defs>
  <g id="Menstrual_Tampon" data-name="Menstrual Tampon">
    <path class="cls-3" d="M26.2,130.29c-.02.34-2.32,34.54,8.39,46.07,2.14,2.3,4.71,3.47,7.64,3.47,4.17,0,7.47-1.28,10.07-3.91,8.59-8.67,8.38-29.98,8.18-50.58-.03-2.99-.06-5.95-.06-8.84,0-6.76-.47-13.47-.93-19.95-1.1-15.63-2.05-29.13,4.35-35.99,2.81-3.01,6.69-4.48,11.87-4.48,10.29.27,15.29,9.66,15.23,27.76,0,1.22-1.02,2.2-2.23,2.19h0c-1.19,0-2.18-.95-2.2-2.14-.26-21.7-6.32-22.78-10.8-23.44-4.12-.61-6.74,1.01-8.67,3.09-5.1,5.47-4.21,18.09-3.19,32.71.46,6.57.94,13.36.94,20.26,0,2.88.03,5.82.06,8.8.21,21.5.42,43.73-9.45,53.7-3.42,3.45-7.85,5.2-13.18,5.2h0c-6.97,0-12.28-4.4-15.78-13.06-5.41-13.39-5.77-38.97-3.87-40.81"/>
    <path class="cls-3" d="M11.65,115.03h26.21v18.47c0,1.05-.86,1.91-1.91,1.91H13.56c-1.05,0-1.91-.86-1.91-1.91v-18.47h0Z"/>
    <path class="cls-1" d="M21.16,0h4.27c11.68,0,21.16,9.48,21.16,21.16v101.85c0,2.03-1.64,3.67-3.67,3.67H3.67C1.64,126.68,0,125.04,0,123.01V21.16C0,9.48,9.48,0,21.16,0Z"/>
    <path class="cls-2" d="M13.68,33.14h1.85c1.12,0,2.03.91,2.03,2.03v79.1c0,.42-.34.76-.76.76h-4.4c-.42,0-.76-.34-.76-.76V35.17c0-1.12.91-2.03,2.03-2.03Z"/>
    <path class="cls-2" d="M30.94,33.17h4.4c.42,0,.76.34.76.76v79.1c0,1.12-.91,2.03-2.03,2.03h-1.85c-1.12,0-2.03-.91-2.03-2.03V33.93c0-.42.34-.76.76-.76Z" transform="translate(66.03 148.35) rotate(-179.8)"/>
  </g>
</svg>