<svg width="213" height="112" viewBox="0 0 213 112" fill="none" xmlns="http://www.w3.org/2000/svg">
<g clip-path="url(#clip0_335_220)">
<path d="M165.843 12.0325V96.659C165.843 100.255 162.937 103.169 159.336 103.169H133.464V5.50879H159.336C162.937 5.50879 165.843 8.42214 165.843 12.0325Z" fill="#FFBE00"/>
<path d="M146.379 5.50879V103.169H18.4347C14.8479 103.169 11.9283 100.255 11.9283 96.659V12.0325C11.9283 8.42214 14.8479 5.50879 18.4347 5.50879H146.379Z" fill="#0078DB"/>
<path d="M182.787 4.49332L169.313 6.41616C167.002 6.74592 165.395 8.89155 165.724 11.2086L178.257 99.5036C178.586 101.821 180.726 103.432 183.037 103.102L196.511 101.179C198.822 100.849 200.429 98.7036 200.1 96.3866L187.567 8.09156C187.238 5.77455 185.098 4.16356 182.787 4.49332Z" fill="#FFBE00"/>
<path d="M208.788 103.169H4.21245C1.88598 103.169 0 105.06 0 107.392C0 109.725 1.88598 111.616 4.21245 111.616H208.788C211.114 111.616 213 109.725 213 107.392C213 105.06 211.114 103.169 208.788 103.169Z" fill="#A0643C"/>
<path d="M121.355 27.2823V81.3814C114.626 84.0856 106.785 85.6329 98.4296 85.6329C73.2661 85.6329 52.8712 71.6098 52.8712 54.3248C52.8712 37.0399 73.28 23.0168 98.4296 23.0168C106.785 23.0168 114.626 24.5641 121.355 27.2683V27.2823Z" fill="white"/>
<path d="M123.51 0.630005H145.573C146.755 0.630005 147.728 1.59183 147.728 2.79062V103.183H121.355V2.79062C121.355 1.60577 122.314 0.630005 123.51 0.630005Z" fill="#BEBEBE"/>
</g>
<defs>
<clipPath id="clip0_335_220">
<rect width="213" height="111" fill="white" transform="translate(0 0.630005)"/>
</clipPath>
</defs>
</svg>
