<svg width="131" height="147" viewBox="0 0 131 147" fill="none" xmlns="http://www.w3.org/2000/svg">
<g clip-path="url(#clip0_335_219)">
<path d="M130.69 130.75C130.28 131.91 129.44 132.82 128.32 133.33C110.23 141.55 90.9201 146.06 70.9201 146.75C70.2201 146.77 69.6101 146.32 69.3801 145.67C66.3001 137.07 57.9901 131.17 48.7801 131.17C41.1801 131.17 34.2201 135.02 30.1801 141.48C29.8601 142 29.2601 142.32 28.6301 142.32C28.4801 142.32 28.3201 142.3 28.1701 142.26C19.4701 140.08 10.9401 137.1 2.8001 133.4C1.9701 133.03 1.2201 132.47 0.740101 131.71C-0.139899 130.34 -0.229899 128.71 0.460101 127.32L43.9801 38.32C44.1901 37.9 44.6201 37.64 45.0801 37.65C45.2601 37.66 45.4301 37.66 45.6001 37.66C50.3801 37.66 54.5801 34.7 56.0501 30.3C57.3801 26.31 56.6501 22.24 54.0301 19.15C53.7701 18.85 53.7101 18.42 53.8801 18.07L61.4101 2.66001C62.0701 1.33001 63.2801 0.300013 64.7401 0.0600131C66.7401 -0.259987 68.6101 0.740013 69.4701 2.50001L104.45 74.03C104.52 74.17 104.52 74.33 104.47 74.48C104.4 74.63 104.28 74.75 104.12 74.81C101.71 75.73 99.8401 77.29 98.7101 79.34C95.4001 85.41 99.5201 94.08 107.91 98.67C110.71 100.21 113.74 101.15 116.69 101.39C117.43 101.45 118.06 101.86 118.37 102.5L130.5 127.32C131.03 128.4 131.1 129.62 130.69 130.75Z" fill="#FADD77"/>
<path d="M96.65 129.07C87.54 130.27 79.36 125.17 78.37 117.67C77.39 110.17 83.96 103.13 93.05 101.93C102.15 100.73 110.34 105.83 111.31 113.33C112.3 120.81 105.74 127.87 96.64 129.07H96.65Z" fill="#FAC149"/>
<path d="M38.2201 108.56C38.2201 112.11 35.3301 114.98 31.7801 114.98C28.2301 114.98 25.3401 112.11 25.3401 108.56C25.3401 105.01 28.2301 102.12 31.7801 102.12C35.3301 102.12 38.2201 104.99 38.2201 108.56Z" fill="#FAC149"/>
<path d="M68.2002 76.52C68.2002 84.39 61.0802 90.76 52.3102 90.76C43.5402 90.76 36.4402 84.38 36.4402 76.52C36.4402 68.66 43.5402 62.29 52.3102 62.29C61.0802 62.29 68.2002 68.66 68.2002 76.52Z" fill="#FAC149"/>
<path d="M70.6702 39.41C73.161 39.41 75.1802 37.3908 75.1802 34.9C75.1802 32.4092 73.161 30.39 70.6702 30.39C68.1793 30.39 66.1602 32.4092 66.1602 34.9C66.1602 37.3908 68.1793 39.41 70.6702 39.41Z" fill="#FAC149"/>
<path d="M90.8301 56.53C90.8301 61.62 86.7001 65.75 81.6101 65.75C76.5201 65.75 72.4001 61.62 72.4001 56.53C72.4001 51.44 76.5301 47.32 81.6101 47.32C86.6901 47.32 90.8301 51.44 90.8301 56.53Z" fill="#FAC149"/>
</g>
<defs>
<clipPath id="clip0_335_219">
<rect width="130.95" height="146.75" fill="white"/>
</clipPath>
</defs>
</svg>
