<svg width="100" height="158" viewBox="0 0 100 158" fill="none" xmlns="http://www.w3.org/2000/svg">
<g clip-path="url(#clip0_335_213)">
<path d="M97.6219 4.42231V84.3288H2.29319V4.42231C2.29319 1.98241 4.28062 0 6.74367 0H93.1714C95.6175 0 97.6219 1.98241 97.6219 4.42231Z" fill="#432A0C"/>
<path d="M63.6657 6.64195V35.5479C63.6657 37.0728 62.4257 38.2928 60.9139 38.2928H39.0012C37.4724 38.2928 36.2494 37.0559 36.2494 35.5479V6.62501C36.2494 5.10007 37.4894 3.88013 39.0012 3.88013L60.8969 3.88013C62.4257 3.88013 63.6487 5.11702 63.6487 6.62501L63.6657 6.64195Z" fill="#543511"/>
<path d="M63.6657 45.1211V74.027C63.6657 75.552 62.4257 76.7719 60.9139 76.7719H39.0012C37.4724 76.7719 36.2494 75.535 36.2494 74.027V45.1041C36.2494 43.5792 37.4894 42.3593 39.0012 42.3593H60.9309C62.4597 42.3593 63.6827 43.5961 63.6827 45.1041L63.6657 45.1211Z" fill="#543511"/>
<path d="M32.5803 35.5817V6.65882C32.5803 5.14286 31.3482 3.91394 29.8284 3.91394L7.89876 3.91394C6.37897 3.91394 5.14693 5.14286 5.14693 6.65882L5.14693 35.5817C5.14693 37.0977 6.37897 38.3266 7.89876 38.3266H29.8284C31.3482 38.3266 32.5803 37.0977 32.5803 35.5817Z" fill="#543511"/>
<path d="M32.5633 45.1211V74.0271C32.5633 75.552 31.3233 76.7719 29.8115 76.7719H7.89876C6.36997 76.7719 5.14693 75.535 5.14693 74.0271L5.14693 45.1211C5.14693 43.5962 6.38695 42.3762 7.89876 42.3762H29.8284C31.3572 42.3762 32.5803 43.6131 32.5803 45.1211H32.5633Z" fill="#543511"/>
<path d="M94.7681 6.65882V35.5817C94.7681 37.1066 93.5281 38.3266 92.0163 38.3266H70.1036C68.5748 38.3266 67.3518 37.0897 67.3518 35.5817V6.65882C67.3518 5.13389 68.5918 3.91394 70.1036 3.91394L92.0163 3.91394C93.5451 3.91394 94.7681 5.15083 94.7681 6.65882Z" fill="#543511"/>
<path d="M94.7511 45.1211V74.044C94.7511 75.5689 93.5111 76.7889 91.9993 76.7889H70.0866C68.5578 76.7889 67.3348 75.552 67.3348 74.044V45.1211C67.3348 43.5962 68.5748 42.3762 70.0866 42.3762H92.0163C93.5451 42.3762 94.7681 43.6131 94.7681 45.1211H94.7511Z" fill="#543511"/>
<path d="M97.6219 84.3457V153.561C97.6219 156.018 95.6175 158 93.1714 158H6.74367C4.28062 158 2.29319 156.018 2.29319 153.561V84.3457H97.6219Z" fill="#F03214"/>
<path d="M98.1145 93.6817L1.9025 96.2741C0.849332 96.308 2.74181e-06 95.5455 0.0169893 94.5797L0.186855 80.1268C0.186855 79.2457 0.934265 78.5171 1.88551 78.4154L97.9616 68.8592C99.0657 68.7575 100 69.52 100 70.5197L99.966 91.9365C99.966 92.8684 99.1337 93.6478 98.1145 93.6648V93.6817Z" fill="#BEBEBE"/>
</g>
<defs>
<clipPath id="clip0_335_213">
<rect width="100" height="158" fill="white"/>
</clipPath>
</defs>
</svg>
