<svg width="107" height="118" viewBox="0 0 107 118" fill="none" xmlns="http://www.w3.org/2000/svg">
<g clip-path="url(#clip0_335_216)">
<path d="M88.98 17.91C98.45 17.91 106.13 25.59 106.13 35.06V108.58C106.13 113.4 103.26 117.29 99.7 117.29H6.43C2.87 117.29 0 113.4 0 108.58V35.06C0 25.59 7.68 17.91 17.15 17.91H88.98Z" fill="#543511"/>
<path d="M95.89 0H10.24C8.72674 0 7.5 1.22674 7.5 2.74V15.17C7.5 16.6833 8.72674 17.91 10.24 17.91H95.89C97.4033 17.91 98.63 16.6833 98.63 15.17V2.74C98.63 1.22674 97.4033 0 95.89 0Z" fill="#F03214"/>
<path d="M89.99 47.28H16.14C14.0137 47.28 12.29 49.0037 12.29 51.13V95.53C12.29 97.6563 14.0137 99.38 16.14 99.38H89.99C92.1163 99.38 93.84 97.6563 93.84 95.53V51.13C93.84 49.0037 92.1163 47.28 89.99 47.28Z" fill="white"/>
<g clip-path="url(#clip1_335_216)">
<path d="M80.801 72.0842L58.7398 84.8864L43.2268 58.1537L55.6281 50.9573C55.9289 51.2602 56.2543 51.5299 56.6013 51.7615C58.66 53.1648 61.3894 53.3639 63.6535 52.05C63.8734 51.9224 64.0877 51.7853 64.2863 51.6319C64.429 52.3195 64.6873 52.991 65.0605 53.6341C65.5553 54.4868 66.203 55.1934 66.9515 55.7397C67.3253 56.0067 67.7189 56.2431 68.1333 56.4293C69.397 57.0013 70.8133 57.1791 72.1861 56.9046C72.5967 56.8255 73.0067 56.7022 73.4085 56.5327L81.3033 70.1372C81.7013 70.8231 81.4802 71.7028 80.8066 72.0937L80.801 72.0842Z" fill="#432A0C"/>
<path d="M74.9665 62.7413L66.3731 67.728C66.1205 67.8746 65.7978 67.7817 65.6512 67.5293L61.7205 60.7556C61.574 60.5031 61.6535 60.1768 61.9061 60.0302L68.1278 56.4198C69.3915 56.9918 70.8078 57.1696 72.1806 56.8951L75.1522 62.0159C75.2987 62.2683 75.2145 62.5974 74.9665 62.7413Z" fill="#543511"/>
<path d="M64.0388 69.0825L56.0583 73.7136C55.6373 73.958 55.0987 73.8057 54.8526 73.3817L51.2867 67.2368C51.038 66.8081 51.1804 66.267 51.5968 66.0254L59.582 61.3915C60.003 61.1472 60.5416 61.2995 60.7877 61.7234L64.3563 67.8731C64.6051 68.3018 64.4626 68.8429 64.0463 69.0845L64.0388 69.0825Z" fill="#543511"/>
<path d="M66.9515 55.7396L61.3146 59.0108C61.0619 59.1574 60.7392 59.0645 60.5927 58.812L56.6619 52.0384C56.6121 51.9526 56.5885 51.8581 56.5892 51.7622C58.6479 53.1655 61.3773 53.3645 63.6414 52.0507C63.8612 51.9231 64.0756 51.786 64.2742 51.6325C64.4169 52.3202 64.6752 52.9917 65.0484 53.6347C65.5432 54.4874 66.1909 55.194 66.9394 55.7403L66.9515 55.7396Z" fill="#543511"/>
<path d="M58.9775 60.3607L50.9969 64.9918C50.5759 65.2361 50.0373 65.0838 49.7913 64.6599L46.2254 58.515C45.9766 58.0863 46.1191 57.5452 46.5354 57.3036L54.516 52.6724C54.937 52.4281 55.4756 52.5804 55.7216 53.0043L59.2903 59.154C59.5391 59.5827 59.3966 60.1238 58.9803 60.3654L58.9775 60.3607Z" fill="#543511"/>
<path d="M79.7191 71.6423L71.7339 76.2761C71.3129 76.5205 70.7743 76.3682 70.5283 75.9442L66.9624 69.7993C66.7136 69.3706 66.856 68.8295 67.2724 68.5879L75.2576 63.954C75.6786 63.7097 76.2172 63.862 76.4633 64.2859L80.0292 70.4308C80.2779 70.8595 80.1355 71.4007 79.7191 71.6423Z" fill="#543511"/>
<path d="M69.0974 77.7998L61.1122 82.4336C60.6912 82.6779 60.1526 82.5256 59.9066 82.1017L56.3407 75.9568C56.0919 75.5281 56.2343 74.987 56.6507 74.7454L64.6359 70.1115C65.0569 69.8672 65.5955 70.0195 65.8416 70.4434L69.4102 76.5931C69.659 77.0218 69.5165 77.5629 69.1002 77.8045L69.0974 77.7998Z" fill="#543511"/>
<path d="M58.7352 84.8891L39.6258 95.9784C38.9475 96.372 38.074 96.1275 37.6759 95.4416L23.6114 71.205C23.2106 70.5143 23.4345 69.6393 24.1128 69.2457L43.2221 58.1565L58.7352 84.8891Z" fill="#F03214"/>
<path d="M56.2425 86.5202L39.87 59.9552C39.6892 59.6653 39.7615 59.305 40.0309 59.155L44.0489 56.8871C44.2921 56.7459 44.6149 56.8388 44.7978 57.0893L63.0708 82.5005C63.2785 82.7938 63.22 83.1779 62.944 83.3381L57.0256 86.7599C56.7683 86.9092 56.4177 86.8006 56.2471 86.5175L56.2425 86.5202Z" fill="#BEBEBE"/>
</g>
</g>
<defs>
<clipPath id="clip0_335_216">
<rect width="106.13" height="117.29" fill="white"/>
</clipPath>
<clipPath id="clip1_335_216">
<rect width="32.4223" height="50.4346" fill="white" transform="translate(66.1358 44) rotate(59.8733)"/>
</clipPath>
</defs>
</svg>
