<svg width="100" height="158" viewBox="0 0 100 158" fill="none" xmlns="http://www.w3.org/2000/svg">
<g clip-path="url(#clip0_335_214)">
<path d="M97.6219 4.42231V84.3288H2.29318V39.411C3.56718 39.0722 4.79021 38.6147 5.9453 38.0386C12.8758 34.6668 17.6321 27.5843 17.6321 19.3836C17.6321 18.5872 17.5981 17.7909 17.4962 17.0115C19.5515 17.7062 21.7428 18.062 24.036 18.062C27.0766 18.062 29.9643 17.4181 32.5803 16.249C33.8712 15.656 35.1113 14.9613 36.2494 14.131C39.7316 11.6064 42.3985 8.04826 43.7914 3.89705C44.2161 2.66016 44.5218 1.3555 44.6917 0H93.2054C95.6514 0 97.6559 1.98241 97.6559 4.42231H97.6219Z" fill="#432A0C"/>
<path d="M63.6657 5.54063V36.6662C63.6657 37.5812 62.9183 38.3097 62.018 38.3097H37.8631C36.9628 38.3097 36.2154 37.5812 36.2154 36.6662V14.1311C39.6976 11.6065 42.3645 8.0483 43.7574 3.89709H62.018C62.9183 3.89709 63.6657 4.64262 63.6657 5.54063Z" fill="#543511"/>
<path d="M63.6657 45.1211V74.027C63.6657 75.552 62.4257 76.7719 60.9139 76.7719H39.0012C37.4724 76.7719 36.2494 75.535 36.2494 74.027V45.1041C36.2494 43.5792 37.4894 42.3593 39.0012 42.3593H60.9309C62.4597 42.3593 63.6827 43.5961 63.6827 45.1041L63.6657 45.1211Z" fill="#543511"/>
<path d="M32.5803 16.249V36.6662C32.5803 37.5811 31.8328 38.3097 30.9326 38.3097H6.77764C6.47188 38.3097 6.18311 38.225 5.92831 38.0725C12.8588 34.7007 17.6151 27.6182 17.6151 19.4175C17.6151 18.6211 17.5811 17.8248 17.4792 17.0454C19.5346 17.7401 21.7258 18.0959 24.019 18.0959C27.0596 18.0959 29.9473 17.452 32.5633 16.2829L32.5803 16.249Z" fill="#543511"/>
<path d="M32.5633 45.1211V74.0271C32.5633 75.552 31.3233 76.7719 29.8115 76.7719H7.89876C6.36997 76.7719 5.14693 75.535 5.14693 74.0271L5.14693 45.1211C5.14693 43.5962 6.38695 42.3762 7.89876 42.3762H29.8284C31.3572 42.3762 32.5803 43.6131 32.5803 45.1211H32.5633Z" fill="#543511"/>
<path d="M94.7681 6.65882V35.5817C94.7681 37.1066 93.5281 38.3266 92.0163 38.3266H70.1036C68.5748 38.3266 67.3518 37.0897 67.3518 35.5817V6.65882C67.3518 5.13389 68.5918 3.91394 70.1036 3.91394L92.0163 3.91394C93.5451 3.91394 94.7681 5.15083 94.7681 6.65882Z" fill="#543511"/>
<path d="M94.7511 45.1211V74.044C94.7511 75.5689 93.5111 76.7889 91.9993 76.7889H70.0866C68.5578 76.7889 67.3348 75.552 67.3348 74.044V45.1211C67.3348 43.5962 68.5748 42.3762 70.0866 42.3762H92.0163C93.5451 42.3762 94.7681 43.6131 94.7681 45.1211H94.7511Z" fill="#543511"/>
<path d="M97.6219 84.3457V153.561C97.6219 156.018 95.6175 158 93.1714 158H6.74367C4.28061 158 2.29318 156.018 2.29318 153.561V84.3457H97.6219Z" fill="#F03214"/>
<path d="M98.1145 93.6647L1.90252 96.2571C0.849347 96.291 1.80006e-05 95.5286 0.0170046 94.5628L0.18687 80.1098C0.18687 79.2287 0.93428 78.5001 1.88553 78.3985L97.9616 68.8422C99.0658 68.7406 100 69.503 100 70.5027L99.966 91.9195C99.966 92.8515 99.1337 93.6309 98.1145 93.6478V93.6647Z" fill="#BEBEBE"/>
</g>
<defs>
<clipPath id="clip0_335_214">
<rect width="100" height="158" fill="white"/>
</clipPath>
</defs>
</svg>
