<svg width="257" height="135" viewBox="0 0 257 135" fill="none" xmlns="http://www.w3.org/2000/svg">
<g clip-path="url(#clip0_335_224)">
<path d="M228.65 0H27.32C16.9481 0 8.54001 8.40809 8.54001 18.78V68.2C8.54001 78.5719 16.9481 86.98 27.32 86.98H228.65C239.022 86.98 247.43 78.5719 247.43 68.2V18.78C247.43 8.40809 239.022 0 228.65 0Z" fill="#85A381"/>
<path d="M237.97 64.65V22.32C237.97 15.2176 232.212 9.46002 225.11 9.46002L30.87 9.46002C23.7676 9.46002 18.01 15.2176 18.01 22.32V64.65C18.01 71.7524 23.7676 77.51 30.87 77.51L225.11 77.51C232.212 77.51 237.97 71.7524 237.97 64.65Z" fill="#6E8E69"/>
<path d="M161.38 75.56C161.38 99.07 146.62 110.67 128.4 110.67C110.18 110.67 95.42 99.07 95.42 75.56C95.42 52.05 110.18 22.43 128.4 22.43C146.62 22.43 161.38 52.04 161.38 75.56Z" fill="#CDA17A"/>
<path d="M83.17 75.56C83.17 99.07 68.41 110.67 50.19 110.67C31.97 110.67 17.21 99.07 17.21 75.56C17.21 52.05 31.98 22.43 50.19 22.43C68.4 22.43 83.17 52.04 83.17 75.56Z" fill="#CDA17A"/>
<path d="M173.02 75.83C172.88 99.34 187.57 111.03 205.78 111.14C223.99 111.25 238.83 99.74 238.97 76.23C239.11 52.72 224.53 23.01 206.31 22.9C188.1 22.79 173.16 52.31 173.01 75.83H173.02Z" fill="#CDA17A"/>
<path d="M175.57 128.94L172.49 116.75C171.62 113.3 168.52 110.89 164.96 110.89C161.41 110.89 158.31 113.3 157.43 116.75L154.35 128.94C153.48 132.39 150.38 134.8 146.82 134.8H109.97C106.42 134.8 103.32 132.39 102.44 128.94L99.36 116.75C98.49 113.3 95.39 110.89 91.83 110.89C88.28 110.89 85.18 113.3 84.3 116.75L81.22 128.94C80.35 132.39 77.25 134.8 73.69 134.8H26.68C23.13 134.8 20.03 132.39 19.15 128.94L8.54001 86.99H247.43L236.82 128.95C235.95 132.4 232.85 134.81 229.29 134.81H183.08C179.53 134.81 176.43 132.4 175.55 128.95L175.57 128.94Z" fill="#85A381"/>
<path d="M249.23 75.88H7.57C3.3892 75.88 0 79.2692 0 83.45C0 87.6308 3.3892 91.02 7.57 91.02H249.23C253.411 91.02 256.8 87.6308 256.8 83.45C256.8 79.2692 253.411 75.88 249.23 75.88Z" fill="#9FBC9B"/>
</g>
<defs>
<clipPath id="clip0_335_224">
<rect width="256.8" height="134.8" fill="white"/>
</clipPath>
</defs>
</svg>
