<svg width="199" height="260" viewBox="0 0 199 260" fill="none" xmlns="http://www.w3.org/2000/svg">
<g clip-path="url(#clip0_470_772)">
<path d="M13.6422 48.2627C13.6422 48.2627 34.803 17.6538 63.9219 15.0966C93.0407 12.5395 111.954 29.2 127.637 29.0966C143.32 28.9933 148.229 25.0413 162.259 28.8642C176.289 32.6871 181.224 48.2627 181.224 48.2627H13.6422Z" fill="white"/>
<path d="M173.602 259.27H25.4241C10.0249 259.27 -1.80861 246.484 0.232544 232.071L5.99429 191.982C7.23449 183.277 7.88043 174.521 7.88043 165.739V48.2627H191.145V165.765C191.145 174.547 191.766 183.329 193.032 192.06L198.793 232.122C200.86 246.51 189.001 259.322 173.602 259.322V259.27Z" fill="#BC8044"/>
<path d="M189.879 36.7682H9.09479C5.44177 36.7682 2.48041 39.7287 2.48041 43.3807V61.0486C2.48041 64.7006 5.44177 67.6612 9.09479 67.6612H189.879C193.532 67.6612 196.494 64.7006 196.494 61.0486V43.3807C196.494 39.7287 193.532 36.7682 189.879 36.7682Z" fill="#F9B678"/>
<path d="M99.5 208.281C130.194 208.281 155.076 183.406 155.076 152.72C155.076 122.035 130.194 97.1593 99.5 97.1593C68.806 97.1593 43.9237 122.035 43.9237 152.72C43.9237 183.406 68.806 208.281 99.5 208.281Z" fill="white"/>
<path d="M97.5364 193.919C77.6415 197.097 68.986 185.473 66.9448 165.17C85.2894 166.384 96.632 174.805 97.5364 193.919Z" fill="#FFBE00"/>
<path d="M101.438 193.919C121.333 197.097 129.988 185.473 132.029 165.17C113.685 166.384 102.342 174.805 101.438 193.919Z" fill="#FFBE00"/>
<path d="M97.7947 166.049C80.5612 168.787 73.0941 158.739 71.3372 141.174C87.2272 142.233 97.0196 149.517 97.7947 166.049Z" fill="#FFBE00"/>
<path d="M101.179 166.049C118.413 168.787 125.88 158.739 127.637 141.174C111.747 142.233 101.955 149.517 101.179 166.049Z" fill="#FFBE00"/>
<path d="M99.5 144.506C115.08 129.731 103.737 114.827 99.5 111.004C95.2626 114.827 83.92 129.731 99.5 144.506Z" fill="#FFBE00"/>
</g>
<defs>
<clipPath id="clip0_470_772">
<rect width="199" height="259" fill="white" transform="translate(0 0.27002)"/>
</clipPath>
</defs>
</svg>
