<svg width="686" height="902" viewBox="0 0 686 902" fill="none" xmlns="http://www.w3.org/2000/svg">
<path d="M630.835 120.831H566.007V197.286H630.835V120.831Z" fill="#636363"/>
<path d="M630.835 704.677H566.007V781.132H630.835V704.677Z" fill="#636363"/>
<path d="M547.516 0H34.0357C15.2383 0 0 15.2301 0 34.0173V867.983C0 886.77 15.2383 902 34.0357 902H547.516C566.314 902 581.552 886.77 581.552 867.983V34.0173C581.552 15.2301 566.314 0 547.516 0Z" fill="#E2E2E2"/>
<path d="M549.865 50.523V851.402C549.865 861.835 541.403 870.293 530.965 870.293H50.5504C40.1123 870.293 31.6499 861.835 31.6499 851.402V50.523C31.6499 40.0905 40.1123 31.6328 50.5504 31.6328L530.965 31.6328C541.403 31.6328 549.865 40.0905 549.865 50.523Z" fill="#7E98AD"/>
<path d="M562.092 249.485H0V276.684H562.092V249.485Z" fill="#E2E2E2"/>
<path d="M562.092 546.401H0V573.6H562.092V546.401Z" fill="#E2E2E2"/>
<path d="M619.651 0C656.147 0 685.784 29.6208 685.784 66.0972V835.903C685.784 872.379 656.147 902 619.651 902V0Z" fill="#E2E2E2"/>
<path d="M176.561 679.014C199.667 679.217 218.262 698.141 218.059 721.247L216.886 854.988C216.808 863.851 209.547 870.986 200.684 870.908L149.075 870.455C140.211 870.377 133.077 863.117 133.155 854.253L134.328 720.512C134.531 697.406 153.454 678.812 176.561 679.014Z" fill="#00A05A"/>
<path d="M189.018 651.961L164.575 651.747L164.061 710.333L188.504 710.547L189.018 651.961Z" fill="#00A05A"/>
<path d="M189.592 637.312L164.253 637.09C162.072 637.071 160.288 638.824 160.269 641.005L160.21 647.754C160.19 649.936 161.943 651.719 164.125 651.739L189.464 651.961C191.645 651.98 193.429 650.227 193.448 648.046L193.507 641.297C193.527 639.115 191.774 637.331 189.592 637.312Z" fill="#B3B3B3"/>
<path d="M201.26 730.483L150.963 730.041C148.305 730.018 146.131 732.154 146.108 734.812L145.367 819.32C145.343 821.978 147.479 824.152 150.137 824.175L200.434 824.616C203.092 824.64 205.266 822.504 205.289 819.846L206.03 735.337C206.054 732.68 203.918 730.506 201.26 730.483Z" fill="white"/>
<path d="M195.601 750.522C195.459 750.577 195.308 750.608 195.144 750.608L156.911 750.535C156.22 750.531 155.661 749.977 155.665 749.286C155.669 748.595 156.224 748.035 156.923 748.036L195.156 748.109C195.847 748.113 196.406 748.668 196.402 749.359C196.398 749.886 196.066 750.341 195.601 750.522Z" fill="#999999"/>
<path d="M195.398 761.285C195.256 761.34 195.105 761.372 194.942 761.372L156.709 761.299C156.017 761.295 155.458 760.74 155.462 760.049C155.467 759.358 156.024 758.807 156.72 758.8L194.953 758.873C195.644 758.877 196.204 759.431 196.199 760.122C196.195 760.65 195.863 761.105 195.398 761.285Z" fill="#999999"/>
<path d="M195.371 772.226C195.229 772.281 195.078 772.312 194.915 772.312L156.681 772.24C155.99 772.235 155.431 771.681 155.435 770.99C155.44 770.299 155.994 769.74 156.693 769.741L194.926 769.813C195.617 769.818 196.177 770.372 196.172 771.063C196.168 771.591 195.836 772.046 195.371 772.226Z" fill="#999999"/>
<path d="M273.561 679.014C296.667 679.217 315.262 698.141 315.059 721.247L313.886 854.988C313.808 863.851 306.547 870.986 297.684 870.908L246.075 870.455C237.211 870.377 230.077 863.117 230.155 854.253L231.328 720.512C231.531 697.406 250.454 678.812 273.561 679.014Z" fill="#00A05A"/>
<path d="M286.018 651.961L261.575 651.747L261.061 710.333L285.504 710.547L286.018 651.961Z" fill="#00A05A"/>
<path d="M286.592 637.312L261.253 637.09C259.072 637.071 257.288 638.824 257.269 641.005L257.21 647.754C257.19 649.936 258.943 651.719 261.125 651.739L286.464 651.961C288.645 651.98 290.429 650.227 290.448 648.046L290.507 641.297C290.527 639.115 288.774 637.331 286.592 637.312Z" fill="#B3B3B3"/>
<path d="M298.26 730.483L247.963 730.041C245.305 730.018 243.131 732.154 243.108 734.812L242.367 819.32C242.343 821.978 244.479 824.152 247.137 824.175L297.434 824.616C300.092 824.64 302.266 822.504 302.289 819.846L303.03 735.337C303.054 732.68 300.918 730.506 298.26 730.483Z" fill="white"/>
<path d="M292.601 750.522C292.459 750.577 292.308 750.608 292.144 750.608L253.911 750.535C253.22 750.531 252.661 749.977 252.665 749.286C252.669 748.595 253.224 748.035 253.923 748.036L292.156 748.109C292.847 748.113 293.406 748.668 293.402 749.359C293.398 749.886 293.066 750.341 292.601 750.522Z" fill="#999999"/>
<path d="M292.398 761.285C292.256 761.34 292.105 761.372 291.942 761.372L253.709 761.299C253.017 761.295 252.458 760.74 252.462 760.049C252.467 759.358 253.024 758.807 253.72 758.8L291.953 758.873C292.644 758.877 293.204 759.431 293.199 760.122C293.195 760.65 292.863 761.105 292.398 761.285Z" fill="#999999"/>
<path d="M292.371 772.226C292.229 772.281 292.078 772.312 291.915 772.312L253.681 772.24C252.99 772.235 252.431 771.681 252.435 770.99C252.44 770.299 252.994 769.74 253.693 769.741L291.926 769.813C292.617 769.818 293.177 770.372 293.172 771.063C293.168 771.591 292.836 772.046 292.371 772.226Z" fill="#999999"/>
<path d="M371.561 679.014C394.667 679.217 413.262 698.141 413.059 721.247L411.886 854.988C411.808 863.851 404.547 870.986 395.684 870.908L344.075 870.455C335.211 870.377 328.077 863.117 328.155 854.253L329.328 720.512C329.531 697.406 348.454 678.812 371.561 679.014Z" fill="#00A05A"/>
<path d="M384.018 651.961L359.575 651.747L359.061 710.333L383.504 710.547L384.018 651.961Z" fill="#00A05A"/>
<path d="M384.592 637.312L359.253 637.09C357.072 637.071 355.288 638.824 355.269 641.005L355.21 647.754C355.19 649.936 356.943 651.719 359.125 651.739L384.464 651.961C386.645 651.98 388.429 650.227 388.448 648.046L388.507 641.297C388.527 639.115 386.774 637.331 384.592 637.312Z" fill="#B3B3B3"/>
<path d="M396.26 730.483L345.963 730.041C343.305 730.018 341.131 732.154 341.108 734.812L340.367 819.32C340.343 821.978 342.479 824.152 345.137 824.175L395.434 824.616C398.092 824.64 400.266 822.504 400.289 819.846L401.03 735.337C401.054 732.68 398.918 730.506 396.26 730.483Z" fill="white"/>
<path d="M390.601 750.522C390.459 750.577 390.308 750.608 390.144 750.608L351.911 750.535C351.22 750.531 350.661 749.977 350.665 749.286C350.669 748.595 351.224 748.035 351.923 748.036L390.156 748.109C390.847 748.113 391.406 748.668 391.402 749.359C391.398 749.886 391.066 750.341 390.601 750.522Z" fill="#999999"/>
<path d="M390.398 761.285C390.256 761.34 390.105 761.372 389.942 761.372L351.709 761.299C351.017 761.295 350.458 760.74 350.462 760.049C350.467 759.358 351.024 758.807 351.72 758.8L389.953 758.873C390.644 758.877 391.204 759.431 391.199 760.122C391.195 760.65 390.863 761.105 390.398 761.285V761.285Z" fill="#999999"/>
<path d="M390.371 772.226C390.229 772.281 390.078 772.312 389.915 772.312L351.681 772.24C350.99 772.235 350.431 771.681 350.435 770.99C350.44 770.299 350.994 769.74 351.693 769.741L389.926 769.813C390.617 769.818 391.177 770.372 391.172 771.063C391.168 771.591 390.836 772.046 390.371 772.226Z" fill="#999999"/>
<path d="M469.561 679.014C492.667 679.217 511.262 698.141 511.059 721.247L509.886 854.988C509.808 863.851 502.547 870.986 493.684 870.908L442.075 870.455C433.211 870.377 426.077 863.117 426.155 854.253L427.328 720.512C427.531 697.406 446.454 678.812 469.561 679.014Z" fill="#00A05A"/>
<path d="M482.018 651.961L457.575 651.747L457.061 710.333L481.504 710.547L482.018 651.961Z" fill="#00A05A"/>
<path d="M482.592 637.312L457.253 637.09C455.072 637.071 453.288 638.824 453.269 641.005L453.21 647.754C453.19 649.936 454.943 651.719 457.125 651.739L482.464 651.961C484.645 651.98 486.429 650.227 486.448 648.046L486.507 641.297C486.527 639.115 484.774 637.331 482.592 637.312Z" fill="#B3B3B3"/>
<path d="M494.26 730.483L443.963 730.041C441.305 730.018 439.131 732.154 439.108 734.812L438.367 819.32C438.343 821.978 440.479 824.152 443.137 824.175L493.434 824.616C496.092 824.64 498.266 822.504 498.289 819.846L499.03 735.337C499.054 732.68 496.918 730.506 494.26 730.483Z" fill="white"/>
<path d="M488.601 750.522C488.459 750.577 488.308 750.608 488.144 750.608L449.911 750.535C449.22 750.531 448.661 749.977 448.665 749.286C448.669 748.595 449.224 748.035 449.923 748.036L488.156 748.109C488.847 748.113 489.406 748.668 489.402 749.359C489.398 749.886 489.066 750.341 488.601 750.522Z" fill="#999999"/>
<path d="M488.398 761.285C488.256 761.34 488.105 761.372 487.942 761.372L449.709 761.299C449.017 761.295 448.458 760.74 448.462 760.049C448.467 759.358 449.024 758.807 449.72 758.8L487.953 758.873C488.644 758.877 489.204 759.431 489.199 760.122C489.195 760.65 488.863 761.105 488.398 761.285V761.285Z" fill="#999999"/>
<path d="M488.371 772.226C488.229 772.281 488.078 772.312 487.915 772.312L449.681 772.24C448.99 772.235 448.431 771.681 448.435 770.99C448.44 770.299 448.994 769.74 449.693 769.741L487.926 769.813C488.617 769.818 489.177 770.372 489.172 771.063C489.168 771.591 488.836 772.046 488.371 772.226Z" fill="#999999"/>
<g clip-path="url(#clip0_470_781)">
<path d="M222.37 165.553V236.457C222.37 239.47 219.928 241.911 216.902 241.911H195.16V160.088H216.902C219.928 160.088 222.37 162.529 222.37 165.553Z" fill="#FFBE00"/>
<path d="M206.014 160.088V241.911H98.4921C95.4778 241.911 93.0243 239.47 93.0243 236.457V165.553C93.0243 162.529 95.4778 160.088 98.4921 160.088H206.014Z" fill="#0078DB"/>
<path d="M236.61 159.237L225.286 160.848C223.344 161.124 221.994 162.922 222.27 164.863L232.803 238.84C233.079 240.781 234.878 242.131 236.82 241.855L248.143 240.244C250.085 239.967 251.436 238.17 251.159 236.228L240.627 162.252C240.351 160.31 238.552 158.961 236.61 159.237Z" fill="#FFBE00"/>
<path d="M258.46 241.911H86.54C84.5849 241.911 83 243.495 83 245.45C83 247.404 84.5849 248.988 86.54 248.988H258.46C260.415 248.988 262 247.404 262 245.45C262 243.495 260.415 241.911 258.46 241.911Z" fill="#A0643C"/>
<path d="M184.984 178.33V223.657C179.329 225.922 172.74 227.219 165.718 227.219C144.571 227.219 127.432 215.47 127.432 200.988C127.432 186.506 144.583 174.756 165.718 174.756C172.74 174.756 179.329 176.053 184.984 178.319V178.33Z" fill="white"/>
<path d="M186.795 156H205.336C206.329 156 207.147 156.806 207.147 157.81V241.923H184.984V157.81C184.984 156.818 185.79 156 186.795 156Z" fill="#BEBEBE"/>
</g>
<g clip-path="url(#clip1_470_781)">
<path d="M520.69 232.75C520.28 233.91 519.44 234.82 518.32 235.33C500.23 243.55 480.92 248.06 460.92 248.75C460.22 248.77 459.61 248.32 459.38 247.67C456.3 239.07 447.99 233.17 438.78 233.17C431.18 233.17 424.22 237.02 420.18 243.48C419.86 244 419.26 244.32 418.63 244.32C418.48 244.32 418.32 244.3 418.17 244.26C409.47 242.08 400.94 239.1 392.8 235.4C391.97 235.03 391.22 234.47 390.74 233.71C389.86 232.34 389.77 230.71 390.46 229.32L433.98 140.32C434.19 139.9 434.62 139.64 435.08 139.65C435.26 139.66 435.43 139.66 435.6 139.66C440.38 139.66 444.58 136.7 446.05 132.3C447.38 128.31 446.65 124.24 444.03 121.15C443.77 120.85 443.71 120.42 443.88 120.07L451.41 104.66C452.07 103.33 453.28 102.3 454.74 102.06C456.74 101.74 458.61 102.74 459.47 104.5L494.45 176.03C494.52 176.17 494.52 176.33 494.47 176.48C494.4 176.63 494.28 176.75 494.12 176.81C491.71 177.73 489.84 179.29 488.71 181.34C485.4 187.41 489.52 196.08 497.91 200.67C500.71 202.21 503.74 203.15 506.69 203.39C507.43 203.45 508.06 203.86 508.37 204.5L520.5 229.32C521.03 230.4 521.1 231.62 520.69 232.75Z" fill="#FADD77"/>
<path d="M486.65 231.07C477.54 232.27 469.36 227.17 468.37 219.67C467.39 212.17 473.96 205.13 483.05 203.93C492.15 202.73 500.34 207.83 501.31 215.33C502.3 222.81 495.74 229.87 486.64 231.07H486.65Z" fill="#FAC149"/>
<path d="M428.22 210.56C428.22 214.11 425.33 216.98 421.78 216.98C418.23 216.98 415.34 214.11 415.34 210.56C415.34 207.01 418.23 204.12 421.78 204.12C425.33 204.12 428.22 206.99 428.22 210.56Z" fill="#FAC149"/>
<path d="M458.2 178.52C458.2 186.39 451.08 192.76 442.31 192.76C433.54 192.76 426.44 186.38 426.44 178.52C426.44 170.66 433.54 164.29 442.31 164.29C451.08 164.29 458.2 170.66 458.2 178.52Z" fill="#FAC149"/>
<path d="M460.67 141.41C463.161 141.41 465.18 139.391 465.18 136.9C465.18 134.409 463.161 132.39 460.67 132.39C458.179 132.39 456.16 134.409 456.16 136.9C456.16 139.391 458.179 141.41 460.67 141.41Z" fill="#FAC149"/>
<path d="M480.83 158.53C480.83 163.62 476.7 167.75 471.61 167.75C466.52 167.75 462.4 163.62 462.4 158.53C462.4 153.44 466.53 149.32 471.61 149.32C476.69 149.32 480.83 153.44 480.83 158.53Z" fill="#FAC149"/>
</g>
<g clip-path="url(#clip2_470_781)">
<path d="M505.624 443H352.745C344.87 443 338.485 449.425 338.485 457.35V495.111C338.485 503.036 344.87 509.461 352.745 509.461H505.624C513.5 509.461 519.885 503.036 519.885 495.111V457.35C519.885 449.425 513.5 443 505.624 443Z" fill="#DCB07F"/>
<path d="M512.702 492.399V460.055C512.702 454.628 508.33 450.228 502.936 450.228H355.441C350.048 450.228 345.676 454.628 345.676 460.055V492.399C345.676 497.826 350.048 502.225 355.441 502.225H502.936C508.33 502.225 512.702 497.826 512.702 492.399Z" fill="#B69066"/>
<path d="M454.543 500.735C454.543 518.699 443.335 527.562 429.5 527.562C415.665 527.562 404.457 518.699 404.457 500.735C404.457 482.771 415.665 460.139 429.5 460.139C443.335 460.139 454.543 482.764 454.543 500.735Z" fill="white"/>
<path d="M395.155 500.735C395.155 518.699 383.947 527.562 370.112 527.562C356.276 527.562 345.068 518.699 345.068 500.735C345.068 482.771 356.284 460.139 370.112 460.139C383.939 460.139 395.155 482.764 395.155 500.735Z" fill="white"/>
<path d="M463.382 500.941C463.276 518.905 474.43 527.837 488.258 527.922C502.086 528.006 513.355 519.211 513.461 501.247C513.567 483.283 502.496 460.582 488.661 460.498C474.833 460.414 463.488 482.97 463.374 500.941H463.382Z" fill="white"/>
<path d="M465.318 541.522L462.98 532.208C462.319 529.572 459.965 527.73 457.262 527.73C454.566 527.73 452.212 529.572 451.544 532.208L449.205 541.522C448.544 544.159 446.19 546 443.487 546H415.505C412.81 546 410.456 544.159 409.787 541.522L407.449 532.208C406.788 529.572 404.434 527.73 401.731 527.73C399.035 527.73 396.681 529.572 396.013 532.208L393.674 541.522C393.013 544.159 390.66 546 387.956 546H352.259C349.564 546 347.21 544.159 346.542 541.522L338.485 509.469H519.885L511.828 541.53C511.168 544.166 508.814 546.008 506.11 546.008H471.021C468.325 546.008 465.971 544.166 465.303 541.53L465.318 541.522Z" fill="#DCB07F"/>
<path d="M521.252 500.979H337.748C334.574 500.979 332 503.569 332 506.764C332 509.958 334.574 512.548 337.748 512.548H521.252C524.426 512.548 527 509.958 527 506.764C527 503.569 524.426 500.979 521.252 500.979Z" fill="#FFC88C"/>
</g>
<g clip-path="url(#clip3_470_781)">
<path d="M272.974 429.765H201.022V540.235H272.974V429.765Z" fill="white"/>
<path d="M272.974 428.121H201.022V456.335H272.974V428.121Z" fill="#F03214"/>
<path d="M272.974 513.665H201.022V541.879H272.974V513.665Z" fill="#F03214"/>
<path d="M274.132 424H199.868C198.284 424 197 425.291 197 426.883C197 428.475 198.284 429.765 199.868 429.765H274.132C275.716 429.765 277 428.475 277 426.883C277 425.291 275.716 424 274.132 424Z" fill="#B3B3B3"/>
<path d="M274.132 540.235H199.868C198.284 540.235 197 541.525 197 543.117C197 544.709 198.284 546 199.868 546H274.132C275.716 546 277 544.709 277 543.117C277 541.525 275.716 540.235 274.132 540.235Z" fill="#B3B3B3"/>
<path d="M236.985 504.441C246.33 504.441 253.909 496.824 253.909 487.422C253.909 478.02 246.334 470.402 236.985 470.402C227.636 470.402 220.062 478.02 220.062 487.422C220.062 496.824 227.636 504.441 236.985 504.441Z" fill="#F03214"/>
<path d="M227.1 467.717C226.449 467.823 225.828 467.997 225.241 468.231C226.863 471.698 230.615 473.818 234.56 473.189C235.211 473.083 235.832 472.909 236.419 472.675C234.797 469.208 231.046 467.088 227.1 467.717Z" fill="#00641E"/>
<path d="M239.909 465.665C240.559 465.559 241.206 465.533 241.835 465.576C241.366 469.374 238.455 472.565 234.505 473.198C233.855 473.304 233.209 473.329 232.579 473.287C233.048 469.489 235.959 466.298 239.909 465.665Z" fill="#00641E"/>
<path d="M241.387 475.143C242.038 475.037 242.659 474.863 243.246 474.629C241.624 471.163 237.872 469.043 233.927 469.671C233.276 469.778 232.655 469.952 232.068 470.185C233.69 473.652 237.441 475.772 241.387 475.143Z" fill="#00641E"/>
<path d="M228.578 477.195C227.928 477.302 227.282 477.327 226.652 477.285C227.121 473.486 230.032 470.296 233.982 469.663C234.632 469.557 235.279 469.531 235.908 469.574C235.439 473.372 232.528 476.562 228.578 477.195Z" fill="#00641E"/>
</g>
<g clip-path="url(#clip4_470_781)">
<path d="M80.7637 546C72.0831 546 65 537.838 65 527.825V440.075C65 436.707 66.3262 436.616 68.5868 434.552C70.5459 432.762 70.7268 432.459 68.9786 430.456L67.7127 428.969C65.9947 426.967 65 424.175 65 421.323V397.474C65 383.759 72.6558 380.755 83.2353 376.599V366.646H108.735V376.599C119.344 380.755 127 383.759 127 397.474V421.323C127 424.145 126.005 426.937 124.287 428.969L122.991 430.456C121.273 432.489 121.454 432.793 123.383 434.552C125.674 436.646 127 436.737 127 440.075V527.825C127 537.838 119.917 546 111.236 546H80.7637Z" fill="#A4CFE6"/>
<path d="M108.825 359H83.175C80.9944 359 79.2266 360.78 79.2266 362.975V363.551C79.2266 365.747 80.9944 367.526 83.175 367.526H108.825C111.006 367.526 112.773 365.747 112.773 363.551V362.975C112.773 360.78 111.006 359 108.825 359Z" fill="#00A4FF"/>
<path d="M127 463.651H65V511.197H127V463.651Z" fill="#00A4FF"/>
</g>
<defs>
<clipPath id="clip0_470_781">
<rect width="179" height="93" fill="white" transform="translate(83 156)"/>
</clipPath>
<clipPath id="clip1_470_781">
<rect width="130.95" height="146.75" fill="white" transform="translate(390 102)"/>
</clipPath>
<clipPath id="clip2_470_781">
<rect width="195" height="103" fill="white" transform="translate(332 443)"/>
</clipPath>
<clipPath id="clip3_470_781">
<rect width="80" height="122" fill="white" transform="translate(197 424)"/>
</clipPath>
<clipPath id="clip4_470_781">
<rect width="62" height="187" fill="white" transform="translate(65 359)"/>
</clipPath>
</defs>
</svg>
