<svg width="184" height="243" viewBox="0 0 184 243" fill="none" xmlns="http://www.w3.org/2000/svg">
<g clip-path="url(#clip0_470_776)">
<path d="M169.22 32.4301H151.83V52.9501H169.22V32.4301Z" fill="#636363"/>
<path d="M169.22 189.13H151.83V209.65H169.22V189.13Z" fill="#636363"/>
<path d="M146.87 0H9.13C4.08764 0 0 4.08764 0 9.13V232.96C0 238.002 4.08764 242.09 9.13 242.09H146.87C151.912 242.09 156 238.002 156 232.96V9.13C156 4.08764 151.912 0 146.87 0Z" fill="#E2E2E2"/>
<path d="M147.5 13.56V228.51C147.5 231.31 145.23 233.58 142.43 233.58H13.56C10.76 233.58 8.48999 231.31 8.48999 228.51V13.56C8.48999 10.76 10.76 8.48999 13.56 8.48999L142.43 8.48999C145.23 8.48999 147.5 10.76 147.5 13.56Z" fill="#9CBDD8"/>
<path d="M150.78 66.96H0V74.26H150.78V66.96Z" fill="#E2E2E2"/>
<path d="M150.78 146.65H0V153.95H150.78V146.65Z" fill="#E2E2E2"/>
<path d="M166.22 0C176.01 0 183.96 7.95 183.96 17.74V224.35C183.96 234.14 176.01 242.09 166.22 242.09V0Z" fill="#E2E2E2"/>
</g>
<defs>
<clipPath id="clip0_470_776">
<rect width="183.96" height="242.09" fill="white"/>
</clipPath>
</defs>
</svg>
