<svg width="106" height="78" viewBox="0 0 106 78" fill="none" xmlns="http://www.w3.org/2000/svg">
<g clip-path="url(#clip0_335_212)">
<path d="M99.49 60.44C98.74 61.88 99.83 63.4001 100.53 64.6501C103.2 69.3501 101.83 73.6101 96.67 76.6501C85.56 78.6201 75 65.2001 64.25 56.18C47.73 41.8801 32.68 66.8301 21.95 72.6601C18.14 75.1101 14.8 77.2801 10.98 77.1501C4.56001 75.9601 1.85001 69.1301 5.35001 64.2201C9.64001 57.9501 -6.38999 55.68 3.01001 38.57C-2.99999 27.66 1.32001 23.22 6.35001 15.25C3.37001 9.76005 2.02001 4.27005 8.96001 0.50005C13.65 -1.25995 17.84 2.00005 21.95 4.48005C32.68 10.33 47.73 35.2701 64.25 20.97C76.24 10.7 82.07 2.23005 94.65 4.96856e-05C100.82 1.14005 103.72 7.63005 100.53 12.5C99.97 13.48 99.22 14.59 99.24 15.74C105.08 22.6 108.05 29.24 102.62 38.57C107.29 47.15 106.24 54.51 99.49 60.44Z" fill="#FFBE00"/>
<path opacity="0.5" d="M75.87 34.9601H29.75C27.7507 34.9601 26.13 36.5786 26.13 38.5751C26.13 40.5716 27.7507 42.1901 29.75 42.1901H75.87C77.8693 42.1901 79.49 40.5716 79.49 38.5751C79.49 36.5786 77.8693 34.9601 75.87 34.9601Z" fill="#BC8522"/>
</g>
<defs>
<clipPath id="clip0_335_212">
<rect width="105.48" height="77.16" fill="white"/>
</clipPath>
</defs>
</svg>
