<svg width="164" height="153" viewBox="0 0 164 153" fill="none" xmlns="http://www.w3.org/2000/svg">
<g clip-path="url(#clip0_490_2957)">
<path d="M98.65 13.6399H64.94V48.8599H98.65V13.6399Z" fill="#636363"/>
<path d="M50.12 42.99H113.47C115.21 42.99 116.62 44.4 116.62 46.14V65.44H46.98V46.14C46.98 44.4 48.39 42.99 50.13 42.99H50.12Z" fill="#AAAAAA"/>
<path d="M154.92 152.4H8.68C3.49 152.4 -0.429998 148.69 0.040002 144.26L6.33 85.61C8.3 67.19 27.34 53.01 49.55 53.01H114.06C136.27 53.01 155.31 67.19 157.28 85.61L163.57 144.26C164.04 148.69 160.12 152.4 154.93 152.4H154.92Z" fill="#0078DB"/>
<path d="M152.54 0C155.35 0 157.46 2.22 156.99 4.65C154.47 17.5 141.69 27.28 126.3 27.28H37.29C21.9 27.28 9.12 17.5 6.6 4.65C6.13 2.23 8.24 0 11.05 0L152.54 0Z" fill="#AAAAAA"/>
<path d="M81.8 138.51C99.8763 138.51 114.53 123.856 114.53 105.78C114.53 87.7038 99.8763 73.05 81.8 73.05C63.7237 73.05 49.07 87.7038 49.07 105.78C49.07 123.856 63.7237 138.51 81.8 138.51Z" fill="#AAAAAA"/>
<path d="M81.8 134.07C97.4241 134.07 110.09 121.404 110.09 105.78C110.09 90.1559 97.4241 77.49 81.8 77.49C66.1759 77.49 53.51 90.1559 53.51 105.78C53.51 121.404 66.1759 134.07 81.8 134.07Z" fill="white"/>
<path d="M70.641 88.9589C71.4578 88.4174 72.5667 88.6422 73.1081 89.459L81.1583 101.603L78.1911 103.57L70.1409 91.426C69.5994 90.6092 69.8242 89.5004 70.641 88.9589Z" fill="#F03214"/>
<path d="M81.8 111.37C84.8873 111.37 87.39 108.867 87.39 105.78C87.39 102.693 84.8873 100.19 81.8 100.19C78.7127 100.19 76.21 102.693 76.21 105.78C76.21 108.867 78.7127 111.37 81.8 111.37Z" fill="#AAAAAA"/>
<path d="M81.8 108.28C83.1807 108.28 84.3 107.161 84.3 105.78C84.3 104.399 83.1807 103.28 81.8 103.28C80.4193 103.28 79.3 104.399 79.3 105.78C79.3 107.161 80.4193 108.28 81.8 108.28Z" fill="white"/>
<path d="M83.41 80.89C83.41 80.0009 82.6892 79.28 81.8 79.28C80.9108 79.28 80.19 80.0009 80.19 80.89V85.6C80.19 86.4892 80.9108 87.21 81.8 87.21C82.6892 87.21 83.41 86.4892 83.41 85.6V80.89Z" fill="#636363"/>
<path d="M83.41 125.95C83.41 125.061 82.6892 124.34 81.8 124.34C80.9108 124.34 80.19 125.061 80.19 125.95V130.66C80.19 131.549 80.9108 132.27 81.8 132.27C82.6892 132.27 83.41 131.549 83.41 130.66V125.95Z" fill="#636363"/>
<path d="M56.92 104.17C56.0308 104.17 55.31 104.891 55.31 105.78C55.31 106.669 56.0308 107.39 56.92 107.39H61.63C62.5192 107.39 63.24 106.669 63.24 105.78C63.24 104.891 62.5192 104.17 61.63 104.17H56.92Z" fill="#636363"/>
<path d="M101.97 104.17C101.081 104.17 100.36 104.891 100.36 105.78C100.36 106.669 101.081 107.39 101.97 107.39H106.68C107.569 107.39 108.29 106.669 108.29 105.78C108.29 104.891 107.569 104.17 106.68 104.17H101.97Z" fill="#636363"/>
</g>
<defs>
<clipPath id="clip0_490_2957">
<rect width="163.6" height="152.4" fill="white"/>
</clipPath>
</defs>
</svg>
