<svg width="319" height="279" viewBox="0 0 319 279" fill="none" xmlns="http://www.w3.org/2000/svg">
<g clip-path="url(#clip0_247_424)">
<path d="M43.8 54.68L41.04 37.02C40.25 34.25 38.35 31.94 35.78 30.63L4.16001 14.44C0.19001 12.41 -1.19999 7.43001 1.14001 3.64001C3.21001 0.270009 7.52001 -0.959991 11.06 0.810009L49.54 21.05C52.9 22.73 55.41 25.73 56.47 29.33L60.81 53.68L43.81 54.68H43.8Z" fill="#EF4126"/>
<path d="M290.3 109.84V117.83H238.67L230.8 169.68H222.8L230.67 117.83H182.58L179.8 169.68H171.8L174.58 117.83H124.55L128.8 171.68H120.8L116.55 117.83H60.92V109.84H115.92L111.8 57.6799H119.8L123.92 109.84H175.01L177.8 57.6799H185.8L183.01 109.84H231.88L239.8 57.6799H247.8L239.88 109.84H290.3Z" fill="#BEBEBE"/>
<path d="M75.8 164.68L48.27 203.39C45.52 207.26 45.13 212.33 47.25 216.58C49.43 220.93 53.87 223.68 58.74 223.68H276.89C281.09 223.68 284.49 220.28 284.49 216.08C284.49 211.88 281.08 208.47 276.88 208.48L69.66 208.68C66.84 208.68 65.22 205.46 66.92 203.2L89.81 172.68L75.81 164.68H75.8Z" fill="#BEBEBE"/>
<path d="M312.49 49.6799H43.69C39.74 49.6799 36.9 53.4699 38.01 57.2499L71.56 172.42C72.29 174.94 74.61 176.68 77.24 176.68H272.59C275.11 176.68 277.35 175.08 278.18 172.7L297.24 117.68L298.8 113.18L318.08 57.5299C319.41 53.6899 316.56 49.6799 312.49 49.6799ZM299.63 70.0299L286.59 109.68L283.96 117.68L269.81 160.73L269.79 160.79C268.75 163.41 265.99 165.18 262.91 165.18H87.56C84.31 165.18 81.5 163.28 80.56 160.45L68.86 118.21L68.71 117.68L66.64 110.22L66.49 109.68L55.42 69.7199C54.82 67.8299 55.14 65.8199 56.33 64.1799C57.68 62.2999 59.97 61.1799 62.44 61.1799H292.73C295.28 61.1799 297.6 62.3599 298.95 64.3299C300.12 66.0499 300.36 68.1199 299.63 70.0299Z" fill="#BEBEBE"/>
<path d="M121.3 255.18C121.3 267.88 111 278.18 98.3 278.18C85.6 278.18 75.3 267.88 75.3 255.18C75.3 252.61 75.72 250.13 76.51 247.82C79.57 238.73 88.17 232.18 98.3 232.18C108.43 232.18 116.58 238.39 119.84 247.12C120.79 249.63 121.3 252.34 121.3 255.18Z" fill="#646464"/>
<path d="M273.3 255.18C273.3 267.88 263 278.18 250.3 278.18C237.6 278.18 227.3 267.88 227.3 255.18C227.3 252.61 227.72 250.13 228.51 247.82C231.57 238.73 240.17 232.18 250.3 232.18C260.43 232.18 268.58 238.39 271.84 247.12C272.79 249.63 273.3 252.34 273.3 255.18Z" fill="#646464"/>
<path d="M250.3 266.18C256.375 266.18 261.3 261.255 261.3 255.18C261.3 249.105 256.375 244.18 250.3 244.18C244.225 244.18 239.3 249.105 239.3 255.18C239.3 261.255 244.225 266.18 250.3 266.18Z" fill="white"/>
<path d="M98.3 266.18C104.375 266.18 109.3 261.255 109.3 255.18C109.3 249.105 104.375 244.18 98.3 244.18C92.2249 244.18 87.3 249.105 87.3 255.18C87.3 261.255 92.2249 266.18 98.3 266.18Z" fill="white"/>
<path d="M277.85 245.06C274.65 246.16 271.16 244.92 269.24 242.13C265.09 236.12 258.15 232.18 250.3 232.18C242.45 232.18 235.09 236.36 231 242.68C229.14 245.55 225.63 246.87 222.38 245.8L221.57 245.53C216.96 244.01 215.04 238.57 217.63 234.46C224.35 223.77 236.25 216.67 249.81 216.67C263.37 216.67 274.88 223.54 281.66 233.93C284.31 238 282.45 243.47 277.85 245.05V245.06Z" fill="#EF4126"/>
<path d="M125.85 245.06C122.65 246.16 119.16 244.92 117.24 242.13C113.09 236.12 106.15 232.18 98.3 232.18C90.45 232.18 83.09 236.36 79 242.68C77.14 245.55 73.63 246.87 70.38 245.8L69.57 245.53C64.96 244.01 63.04 238.57 65.63 234.46C72.35 223.77 84.25 216.67 97.81 216.67C111.37 216.67 122.88 223.54 129.66 233.93C132.31 238 130.45 243.47 125.85 245.05V245.06Z" fill="#EF4126"/>
</g>
<defs>
<clipPath id="clip0_247_424">
<rect width="318.41" height="278.18" fill="white"/>
</clipPath>
</defs>
</svg>
