<svg width="80" height="122" viewBox="0 0 80 122" fill="none" xmlns="http://www.w3.org/2000/svg">
<g clip-path="url(#clip0_247_423)">
<path d="M75.974 5.76526H4.02173V116.235H75.974V5.76526Z" fill="white"/>
<path d="M75.974 4.12109H4.02173V32.3354H75.974V4.12109Z" fill="#F03214"/>
<path d="M75.974 89.6647H4.02173V117.879H75.974V89.6647Z" fill="#F03214"/>
<path d="M77.1315 0H2.86846C1.28425 0 0 1.29059 0 2.88261C0 4.47463 1.28425 5.76522 2.86846 5.76522H77.1315C78.7158 5.76522 80 4.47463 80 2.88261C80 1.29059 78.7158 0 77.1315 0Z" fill="#B3B3B3"/>
<path d="M77.1315 116.235H2.86846C1.28425 116.235 0 117.525 0 119.117C0 120.709 1.28425 122 2.86846 122H77.1315C78.7158 122 80 120.709 80 119.117C80 117.525 78.7158 116.235 77.1315 116.235Z" fill="#B3B3B3"/>
<path d="M39.9853 80.4411C49.3299 80.4411 56.9087 72.8235 56.9087 63.4216C56.9087 54.0197 49.3341 46.4021 39.9853 46.4021C30.6364 46.4021 23.0618 54.0197 23.0618 63.4216C23.0618 72.8235 30.6364 80.4411 39.9853 80.4411Z" fill="#F03214"/>
<path d="M30.0998 43.717C29.4492 43.8232 28.8282 43.9974 28.241 44.2311C29.8632 47.6978 33.6146 49.8179 37.5603 49.1891C38.2109 49.0829 38.8319 48.9087 39.4191 48.675C37.7969 45.2082 34.0455 43.0882 30.0998 43.717Z" fill="#00641E"/>
<path d="M42.9087 41.665C43.5592 41.5588 44.2056 41.5333 44.8351 41.5758C44.3661 45.374 41.4554 48.5646 37.5055 49.1976C36.8549 49.3038 36.2086 49.3293 35.5791 49.2868C36.048 45.4887 38.9587 42.2981 42.9087 41.665Z" fill="#00641E"/>
<path d="M44.3872 51.1434C45.0378 51.0372 45.6588 50.863 46.246 50.6294C44.6238 47.1626 40.8724 45.0426 36.9267 45.6713C36.2761 45.7776 35.6551 45.9517 35.0679 46.1854C36.6901 49.6522 40.4415 51.7722 44.3872 51.1434Z" fill="#00641E"/>
<path d="M31.5785 53.1954C30.9279 53.3016 30.2816 53.3271 29.6521 53.2847C30.121 49.4865 33.0317 46.2959 36.9817 45.6628C37.6322 45.5566 38.2786 45.5311 38.9081 45.5736C38.4391 49.3718 35.5284 52.5624 31.5785 53.1954Z" fill="#00641E"/>
</g>
<defs>
<clipPath id="clip0_247_423">
<rect width="80" height="122" fill="white"/>
</clipPath>
</defs>
</svg>
