<svg width="62" height="187" viewBox="0 0 62 187" fill="none" xmlns="http://www.w3.org/2000/svg">
<g clip-path="url(#clip0_470_777)">
<path d="M15.7637 187C7.08313 187 0 178.838 0 168.825V81.0748C0 77.7068 1.3262 77.6158 3.58678 75.5525C5.54594 73.7623 5.72679 73.4589 3.97861 71.4563L2.71269 69.9695C0.994652 67.9669 0 65.1754 0 62.3232V38.4741C0 24.7594 7.65581 21.7555 18.2353 17.5986V7.6463H43.7346V17.5986C54.3442 21.7555 62 24.7594 62 38.4741V62.3232C62 65.1451 61.0053 67.9366 59.2873 69.9695L57.9912 71.4563C56.2732 73.4892 56.4541 73.7927 58.3831 75.5525C60.6738 77.6461 62 77.7372 62 81.0748V168.825C62 178.838 54.9169 187 46.2363 187H15.7637Z" fill="#A4CFE6"/>
<path d="M43.825 0H18.175C15.9944 0 14.2266 1.7796 14.2266 3.97485V4.55135C14.2266 6.7466 15.9944 8.5262 18.175 8.5262H43.825C46.0057 8.5262 47.7735 6.7466 47.7735 4.55135V3.97485C47.7735 1.7796 46.0057 0 43.825 0Z" fill="#00A4FF"/>
<path d="M62 104.651H0V152.197H62V104.651Z" fill="#00A4FF"/>
</g>
<defs>
<clipPath id="clip0_470_777">
<rect width="62" height="187" fill="white"/>
</clipPath>
</defs>
</svg>
