<svg width="117" height="105" viewBox="0 0 117 105" fill="none" xmlns="http://www.w3.org/2000/svg">
<g clip-path="url(#clip0_247_422)">
<path d="M87.0545 105H29.9455C25.9687 105 22.7272 102.166 22.2554 98.3215L11.0603 6.74573H105.94L94.7446 98.3215C94.2728 102.172 91.0313 105 87.0545 105Z" fill="#FFDCFF"/>
<path d="M112.901 0.30603H4.09935C2.00455 0.30603 0.306381 2.00248 0.306381 4.09516V4.10128C0.306381 6.19396 2.00455 7.89042 4.09935 7.89042H112.901C114.995 7.89042 116.694 6.19396 116.694 4.10128V4.09516C116.694 2.00248 114.995 0.30603 112.901 0.30603Z" fill="white" stroke="white" stroke-miterlimit="10"/>
<path d="M58.5 73.8422C76.1857 73.8422 90.5227 62.9674 90.5227 49.5526C90.5227 36.1378 76.1857 25.2629 58.5 25.2629C40.8143 25.2629 26.4773 36.1378 26.4773 49.5526C26.4773 62.9674 40.8143 73.8422 58.5 73.8422Z" fill="white"/>
<path d="M53.2364 40.1134L49.8969 45.7879L49.8295 45.9042L46.4899 51.5787C43.5487 60.6935 55.1237 64.0051 70.0995 61.5321C72.6976 61.2627 74.4195 58.2694 73.341 55.9004C65.13 37.8974 58.9902 34.8245 53.2303 40.1134H53.2364Z" fill="#FFDCFF"/>
<path d="M51.3369 53.8866C46.8025 51.3401 47.7461 47.7468 47.789 44.8636C52.6237 47.0184 52.9117 50.7891 51.3369 53.8866Z" fill="#FFDCFF"/>
<path d="M46.349 54.9211C45.8282 55.2883 45.2583 55.5883 44.6578 55.8148C42.4886 52.1419 42.9543 48.0039 46.1162 45.7635C46.637 45.3962 47.2069 45.0962 47.8074 44.8698C49.9765 48.5426 49.5108 52.6806 46.349 54.9211Z" fill="#FFDCFF"/>
<path d="M47.8012 44.8513C50.3013 43.4066 52.9852 40.8357 57.4154 43.5536C55.4791 46.4367 52.0354 48.0222 47.8012 44.8513Z" fill="#FFDCFF"/>
<path d="M47.8074 44.8636C47.7155 44.227 47.6971 43.5842 47.7645 42.9537C48.1812 39.1034 51.5758 36.6793 55.8468 36.7834C55.9387 37.42 55.9571 38.0627 55.8897 38.6932C55.473 42.5436 52.0783 44.9677 47.8074 44.8636Z" fill="#FFDCFF"/>
<path d="M53.2364 40.1134L49.8969 45.7879L49.8295 45.9042L46.4899 51.5787C43.5487 60.6935 55.1237 64.0051 70.0995 61.5321C72.6976 61.2627 74.4195 58.2694 73.341 55.9004C65.13 37.8974 58.9902 34.8245 53.2303 40.1134H53.2364Z" fill="#F03214"/>
<path d="M51.3369 53.8866C46.8025 51.3401 47.7461 47.7468 47.789 44.8636C52.6237 47.0184 52.9117 50.7891 51.3369 53.8866Z" fill="#00641E"/>
<path d="M46.349 54.9211C45.8282 55.2883 45.2583 55.5883 44.6578 55.8148C42.4886 52.1419 42.9543 48.0039 46.1162 45.7635C46.637 45.3962 47.2069 45.0962 47.8074 44.8698C49.9765 48.5426 49.5108 52.6806 46.349 54.9211Z" fill="#00641E"/>
<path d="M47.8012 44.8513C50.3013 43.4066 52.9852 40.8357 57.4154 43.5536C55.4791 46.4367 52.0354 48.0222 47.8012 44.8513Z" fill="#00641E"/>
<path d="M47.8074 44.8636C47.7155 44.227 47.6971 43.5842 47.7645 42.9537C48.1812 39.1034 51.5758 36.6793 55.8468 36.7834C55.9387 37.42 55.9571 38.0627 55.8897 38.6932C55.473 42.5436 52.0783 44.9677 47.8074 44.8636Z" fill="#00641E"/>
</g>
<defs>
<clipPath id="clip0_247_422">
<rect width="117" height="105" fill="white"/>
</clipPath>
</defs>
</svg>
