<svg width="117" height="180" viewBox="0 0 117 180" fill="none" xmlns="http://www.w3.org/2000/svg">
<g clip-path="url(#clip0_247_421)">
<path d="M17.0168 4.26433C16.3153 1.28978 13.3355 -0.552882 10.3612 0.148628C7.38692 0.850137 5.54441 3.83017 6.24586 6.80472L33.9052 124.096C34.6066 127.07 37.5864 128.913 40.5607 128.211C43.535 127.51 45.3776 124.53 44.6761 121.555L17.0168 4.26433Z" fill="#B3B3B3"/>
<path d="M85.9699 180H28.8609C24.8841 180 21.6426 177.163 21.1708 173.314L9.97568 81.6382H104.855L93.66 173.314C93.1882 177.169 89.9467 180 85.9699 180Z" fill="#FFDCFF"/>
<path d="M112.901 75.2466H4.09934C2.00454 75.2466 0.306366 76.9449 0.306366 79.0399V79.046C0.306366 81.141 2.00454 82.8393 4.09934 82.8393H112.901C114.995 82.8393 116.694 81.141 116.694 79.046V79.0399C116.694 76.9449 114.995 75.2466 112.901 75.2466Z" fill="white" stroke="white" stroke-miterlimit="10"/>
<path d="M58.5 148.869C76.1857 148.869 90.5227 137.983 90.5227 124.553C90.5227 111.124 76.1857 100.237 58.5 100.237C40.8143 100.237 26.4773 111.124 26.4773 124.553C26.4773 137.983 40.8143 148.869 58.5 148.869Z" fill="white"/>
<path d="M53.2364 115.098L49.8968 120.778L49.8294 120.895L46.4899 126.575C43.5487 135.7 55.1237 139.015 70.0995 136.54C72.6976 136.27 74.4194 133.273 73.341 130.902C65.13 112.879 58.9902 109.803 53.2303 115.098H53.2364Z" fill="#F03214"/>
<path d="M51.3368 128.892C46.8024 126.343 47.7461 122.745 47.789 119.859C52.6236 122.016 52.9116 125.791 51.3368 128.892Z" fill="#00641E"/>
<path d="M46.349 129.921C45.8281 130.289 45.2583 130.589 44.6578 130.816C42.4886 127.139 42.9543 122.997 46.1161 120.754C46.637 120.386 47.2069 120.086 47.8074 119.859C49.9765 123.536 49.5108 127.678 46.349 129.921Z" fill="#00641E"/>
<path d="M47.8012 119.847C50.3013 118.401 52.9852 115.827 57.4154 118.548C55.4791 121.434 52.0354 123.021 47.8012 119.847Z" fill="#00641E"/>
<path d="M47.8074 119.859C47.7154 119.222 47.6971 118.578 47.7645 117.947C48.1811 114.092 51.5758 111.666 55.8467 111.77C55.9387 112.407 55.957 113.051 55.8896 113.682C55.473 117.536 52.0783 119.963 47.8074 119.859Z" fill="#00641E"/>
</g>
<defs>
<clipPath id="clip0_247_421">
<rect width="117" height="180" fill="white"/>
</clipPath>
</defs>
</svg>
